<svg width="180" height="180" viewBox="0 0 180 180" fill="none" xmlns="http://www.w3.org/2000/svg">
<path d="M165.498 58.0598C170.621 69.6854 135.818 82.4191 94.1491 100.969C52.4805 119.519 19.7004 136.869 14.5775 125.23C11.4123 118.057 21.4754 105.998 39.435 93.4546C42.5936 91.258 45.961 89.0352 49.6025 86.832C53.5573 84.4125 57.7731 81.9995 62.2043 79.6193C65.5325 77.8402 68.9804 76.0916 72.548 74.3737C75.228 73.0885 77.9645 71.8208 80.7577 70.5706C82.6024 69.7532 84.4449 68.9554 86.2852 68.1773C89.8353 66.6823 93.3399 65.2856 96.7987 63.9873C101.804 62.1055 106.686 60.44 111.404 58.9843C115.072 57.8499 118.641 56.8533 122.074 55.9878C145.052 50.2307 162.176 50.5258 165.498 58.0598Z" fill="#BC8241"/>
<path d="M49.4732 87C49.6211 87.8364 49.7421 88.7048 49.8295 89.5987C50.5959 97.2608 48.7069 103.71 45.6012 103.991C42.9123 104.233 40.1629 99.7063 39 93.4489C42.2536 91.3099 45.7491 89.1454 49.4732 87Z" fill="#E2C4A6"/>
<path d="M72.7272 75L72.8288 75.8704C73.6003 83.3847 71.6917 89.7155 68.5649 89.991C65.8983 90.2227 63.2047 85.9583 62 80.0158C65.4517 78.3209 69.0274 76.649 72.7272 75Z" fill="#E2C4A6"/>
<path d="M96.7794 64C96.7794 64.185 96.7793 64.3631 96.8329 64.5481C97.589 72.769 95.7088 79.6952 92.6242 79.9898C89.8875 80.257 87.1308 75.249 86 68.3434C89.6399 66.8042 93.2331 65.3565 96.7794 64Z" fill="#E2C4A6"/>
<path d="M121.832 56C121.832 56 121.832 56.0595 121.832 56.086C122.587 64.0209 120.72 70.6994 117.668 70.9904C114.86 71.2549 112.02 66.0377 111 59.0219C114.728 57.8779 118.336 56.8728 121.832 56Z" fill="#E2C4A6"/>
</svg>
