<svg width="180" height="180" viewBox="0 0 180 180" fill="none" xmlns="http://www.w3.org/2000/svg">
<path d="M109.946 128.54L115.084 62.9529L93.2573 113.039C93.7482 112.971 94.2484 113.036 94.7062 113.225C95.164 113.415 95.563 113.724 95.8623 114.119C96.1615 114.514 96.3501 114.981 96.4088 115.473C96.4675 115.966 96.394 116.464 96.196 116.919C95.998 117.373 95.6826 117.766 95.2822 118.059C94.8818 118.351 94.4109 118.531 93.9178 118.581C93.4247 118.63 92.9272 118.548 92.4765 118.342C92.0258 118.136 91.6381 117.813 91.3533 117.408L83.9638 134.364L84.683 134.362C98.5918 134.542 109.899 131.945 109.946 128.54ZM99.1027 109.511C98.7431 109.585 98.3696 109.551 98.0295 109.413C97.6894 109.275 97.3979 109.039 97.1919 108.735C96.9859 108.431 96.8746 108.073 96.8721 107.706C96.8697 107.339 96.9761 106.979 97.178 106.672C97.3799 106.366 97.6683 106.126 98.0065 105.983C98.3447 105.84 98.7176 105.801 99.0781 105.87C99.4387 105.939 99.7706 106.114 100.032 106.372C100.293 106.63 100.472 106.959 100.547 107.319C100.598 107.558 100.6 107.804 100.555 108.044C100.51 108.284 100.418 108.513 100.283 108.717C100.149 108.921 99.9755 109.097 99.7728 109.233C99.5701 109.369 99.3423 109.464 99.1027 109.511ZM95.3969 127.621C95.075 128.114 94.6144 128.5 94.073 128.731C93.5317 128.962 92.934 129.027 92.3556 128.918C91.7772 128.809 91.2441 128.532 90.8236 128.12C90.4032 127.708 90.1144 127.181 89.9937 126.605C89.873 126.028 89.9258 125.43 90.1455 124.884C90.3652 124.338 90.742 123.869 91.228 123.537C91.7141 123.205 92.2876 123.025 92.8761 123.019C93.4646 123.013 94.0417 123.182 94.5342 123.504C95.1844 123.942 95.6362 124.617 95.792 125.385C95.9477 126.153 95.795 126.952 95.3667 127.608L95.3969 127.621ZM103.581 114.673C103.04 114.787 102.476 114.738 101.963 114.533C101.449 114.327 101.008 113.973 100.695 113.516C100.382 113.059 100.212 112.52 100.206 111.967C100.2 111.413 100.358 110.87 100.661 110.407C100.963 109.943 101.396 109.58 101.906 109.362C102.415 109.145 102.977 109.084 103.521 109.186C104.065 109.289 104.566 109.55 104.962 109.938C105.357 110.326 105.628 110.822 105.742 111.363C105.815 111.723 105.817 112.094 105.747 112.455C105.677 112.815 105.536 113.158 105.333 113.464C105.129 113.77 104.867 114.032 104.562 114.236C104.257 114.441 103.914 114.582 103.554 114.654L103.581 114.673ZM103.9 124.735C103.769 124.939 103.598 125.115 103.399 125.253C103.199 125.391 102.974 125.488 102.737 125.539C102.5 125.589 102.255 125.593 102.016 125.548C101.778 125.503 101.55 125.412 101.347 125.279C101.145 125.146 100.97 124.974 100.834 124.773C100.698 124.572 100.603 124.346 100.555 124.108C100.506 123.871 100.506 123.626 100.552 123.387C100.599 123.149 100.693 122.923 100.828 122.721C101.097 122.319 101.514 122.039 101.989 121.943C102.463 121.847 102.956 121.941 103.361 122.207C103.766 122.472 104.05 122.887 104.15 123.36C104.251 123.833 104.161 124.328 103.9 124.735ZM106.734 119.45C106.326 119.535 105.902 119.498 105.516 119.342C105.129 119.186 104.798 118.919 104.563 118.575C104.328 118.231 104.201 117.825 104.197 117.408C104.193 116.991 104.313 116.583 104.541 116.234C104.769 115.886 105.096 115.613 105.479 115.45C105.863 115.287 106.286 115.241 106.695 115.319C107.105 115.396 107.482 115.593 107.779 115.885C108.077 116.177 108.281 116.551 108.366 116.959C108.471 117.506 108.356 118.074 108.045 118.537C107.735 119 107.253 119.321 106.706 119.431L106.734 119.45Z" fill="#DDAD77"/>
<path d="M94.2483 118.526C93.7129 118.636 93.157 118.587 92.6492 118.385C92.1414 118.183 91.7039 117.836 91.3908 117.388L84.0013 134.345C70.4794 134.067 59.6347 131.172 59.6793 127.824L53.6365 49.2219L53.3265 45.1879L89.8877 45.7187L92.6551 45.7615L94.3603 45.7865L98.2159 45.8368L116.418 46.1004L116.087 50.1565L115.093 62.9497L93.2661 113.036C93.979 112.948 94.6983 113.137 95.2751 113.565C95.8519 113.994 96.242 114.627 96.3646 115.335C96.4871 116.042 96.3327 116.77 95.9335 117.367C95.5342 117.964 94.9206 118.385 94.2197 118.542L94.2483 118.526Z" fill="#F2C58B"/>
<path d="M96.934 108.078C96.8598 107.72 96.8933 107.348 97.0305 107.009C97.1677 106.67 97.4023 106.379 97.7046 106.174C98.007 105.968 98.3636 105.856 98.7293 105.853C99.095 105.85 99.4534 105.955 99.7593 106.156C100.065 106.356 100.305 106.643 100.448 106.98C100.591 107.316 100.631 107.688 100.563 108.047C100.495 108.406 100.321 108.737 100.065 108.998C99.8091 109.259 99.4813 109.439 99.1233 109.513C98.6428 109.612 98.1428 109.516 97.7326 109.247C97.3224 108.979 97.0353 108.558 96.934 108.078Z" fill="#F2C58B"/>
<path d="M95.4116 127.621C95.0906 128.112 94.6311 128.497 94.0912 128.728C93.5513 128.958 92.9553 129.023 92.3783 128.915C91.8014 128.807 91.2695 128.53 90.85 128.119C90.4304 127.709 90.1419 127.183 90.021 126.609C89.9001 126.034 89.9521 125.437 90.1707 124.892C90.3892 124.347 90.7643 123.879 91.2486 123.548C91.733 123.216 92.3047 123.035 92.8917 123.029C93.4786 123.022 94.0545 123.189 94.5463 123.51C94.8733 123.723 95.155 123.998 95.3754 124.32C95.5959 124.642 95.7507 125.004 95.8311 125.386C95.9115 125.768 95.9158 126.161 95.8438 126.545C95.7718 126.928 95.6249 127.294 95.4116 127.621Z" fill="#F2C58B"/>
<path d="M103.602 114.675C103.06 114.789 102.497 114.74 101.983 114.534C101.469 114.329 101.028 113.975 100.715 113.518C100.403 113.061 100.232 112.522 100.226 111.968C100.22 111.415 100.378 110.872 100.681 110.408C100.984 109.945 101.417 109.582 101.926 109.364C102.435 109.147 102.997 109.086 103.541 109.188C104.085 109.291 104.587 109.552 104.982 109.94C105.377 110.327 105.649 110.824 105.762 111.365C105.838 111.725 105.842 112.095 105.775 112.456C105.707 112.817 105.569 113.161 105.369 113.468C105.168 113.776 104.909 114.041 104.605 114.248C104.302 114.455 103.961 114.6 103.602 114.675Z" fill="#F2C58B"/>
<path d="M103.953 124.744C103.687 125.152 103.269 125.438 102.791 125.539C102.314 125.639 101.816 125.546 101.408 125.279C101 125.013 100.714 124.595 100.613 124.117C100.513 123.64 100.606 123.142 100.873 122.734C101.139 122.325 101.557 122.039 102.035 121.939C102.271 121.889 102.515 121.887 102.752 121.931C102.99 121.976 103.216 122.067 103.418 122.199C103.62 122.331 103.795 122.501 103.931 122.701C104.067 122.9 104.163 123.124 104.213 123.361C104.263 123.597 104.265 123.841 104.221 124.078C104.176 124.315 104.085 124.542 103.953 124.744Z" fill="#F2C58B"/>
<path d="M106.751 119.443C106.344 119.529 105.92 119.491 105.533 119.335C105.147 119.179 104.815 118.912 104.58 118.568C104.346 118.224 104.218 117.818 104.214 117.401C104.21 116.985 104.33 116.576 104.558 116.228C104.787 115.879 105.113 115.606 105.497 115.443C105.88 115.28 106.303 115.234 106.713 115.312C107.122 115.389 107.499 115.587 107.797 115.879C108.094 116.171 108.298 116.544 108.383 116.952C108.495 117.498 108.386 118.067 108.081 118.534C107.775 119.001 107.297 119.328 106.751 119.443Z" fill="#F2C58B"/>
<path d="M84.8899 55.7114C103.084 55.9772 117.897 51.8373 117.975 46.4647C118.054 41.0921 103.368 36.5212 85.1741 36.2555C66.98 35.9897 52.1672 40.1296 52.0887 45.5022C52.0102 50.8748 66.6958 55.4456 84.8899 55.7114Z" fill="#42331D"/>
<path d="M66.0397 118.863C67.5427 119.518 69.2922 118.831 69.9472 117.328C70.6022 115.825 69.9147 114.075 68.4117 113.42C66.9086 112.765 65.1592 113.453 64.5042 114.956C63.8491 116.459 64.5366 118.208 66.0397 118.863Z" fill="#42331D"/>
<path d="M75.395 126.049C76.898 126.704 78.6475 126.017 79.3025 124.514C79.9575 123.011 79.27 121.261 77.767 120.606C76.2639 119.951 74.5144 120.639 73.8594 122.142C73.2044 123.645 73.8919 125.394 75.395 126.049Z" fill="#42331D"/>
<path d="M78.9946 115.433C80.4976 116.088 82.2471 115.4 82.9021 113.897C83.5571 112.394 82.8696 110.645 81.3666 109.99C79.8635 109.335 78.114 110.022 77.459 111.525C76.804 113.028 77.4915 114.778 78.9946 115.433Z" fill="#42331D"/>
<path d="M71.1605 109.305C72.0903 109.71 73.1726 109.284 73.5778 108.355C73.983 107.425 73.5577 106.342 72.6279 105.937C71.6981 105.532 70.6158 105.957 70.2106 106.887C69.8054 107.817 70.2307 108.899 71.1605 109.305Z" fill="#42331D"/>
<path d="M95.4116 127.621C95.0906 128.112 94.6311 128.497 94.0912 128.728C93.5513 128.958 92.9553 129.023 92.3783 128.915C91.8014 128.807 91.2695 128.53 90.85 128.119C90.4304 127.709 90.1419 127.183 90.021 126.609C89.9001 126.034 89.9521 125.437 90.1707 124.892C90.3892 124.347 90.7643 123.879 91.2486 123.548C91.733 123.216 92.3047 123.035 92.8917 123.029C93.4786 123.022 94.0545 123.189 94.5463 123.51C94.8733 123.723 95.155 123.998 95.3754 124.32C95.5959 124.642 95.7507 125.004 95.8311 125.386C95.9115 125.768 95.9158 126.161 95.8438 126.545C95.7718 126.928 95.6249 127.294 95.4116 127.621Z" fill="#42331D"/>
<path d="M103.953 124.744C103.687 125.152 103.269 125.438 102.791 125.539C102.314 125.639 101.816 125.546 101.408 125.279C101 125.013 100.714 124.595 100.613 124.117C100.513 123.64 100.606 123.142 100.873 122.734C101.139 122.325 101.557 122.039 102.035 121.939C102.271 121.889 102.515 121.887 102.752 121.931C102.99 121.976 103.216 122.067 103.418 122.199C103.62 122.331 103.795 122.501 103.931 122.701C104.067 122.9 104.163 123.124 104.213 123.361C104.263 123.597 104.265 123.841 104.221 124.078C104.176 124.315 104.085 124.542 103.953 124.744Z" fill="#42331D"/>
<path d="M67.1036 127.972C68.0334 128.377 69.1157 127.952 69.5209 127.022C69.9261 126.092 69.5008 125.01 68.571 124.605C67.6411 124.2 66.5588 124.625 66.1536 125.555C65.7484 126.485 66.1737 127.567 67.1036 127.972Z" fill="#42331D"/>
<path d="M74.4278 118.203C75.3577 118.608 76.4399 118.183 76.8451 117.253C77.2503 116.323 76.825 115.241 75.8952 114.836C74.9654 114.431 73.8831 114.856 73.4779 115.786C73.0727 116.715 73.498 117.798 74.4278 118.203Z" fill="#42331D"/>
<path d="M94.2481 118.526C93.7127 118.636 93.1568 118.587 92.649 118.385C92.1412 118.183 91.7037 117.836 91.3906 117.388C91.1696 117.081 91.0164 116.73 90.9414 116.359C90.8654 116 90.8611 115.63 90.9286 115.269C90.9961 114.908 91.1342 114.564 91.3349 114.256C91.5355 113.949 91.7948 113.684 92.098 113.477C92.4012 113.27 92.7422 113.125 93.1016 113.05C93.1624 113.032 93.2251 113.02 93.2885 113.017C94.0014 112.929 94.7207 113.119 95.2975 113.547C95.8743 113.975 96.2644 114.608 96.387 115.316C96.5095 116.023 96.3552 116.751 95.9559 117.348C95.5566 117.945 94.9429 118.366 94.2421 118.523L94.2481 118.526Z" fill="#42331D"/>
<path d="M84.7549 122.201C86.258 122.856 88.0074 122.169 88.6625 120.665C89.3175 119.162 88.63 117.413 87.1269 116.758C85.6239 116.103 83.8744 116.79 83.2194 118.293C82.5644 119.796 83.2519 121.546 84.7549 122.201Z" fill="#42331D"/>
<path d="M82.8236 131.182C83.9534 131.674 85.2684 131.158 85.7608 130.028C86.2531 128.898 85.7364 127.583 84.6066 127.091C83.4768 126.598 82.1617 127.115 81.6694 128.245C81.177 129.375 81.6938 130.69 82.8236 131.182Z" fill="#42331D"/>
<path d="M88.349 111.582C89.8521 112.237 91.6015 111.549 92.2566 110.046C92.9116 108.543 92.2241 106.794 90.721 106.139C89.218 105.484 87.4685 106.171 86.8135 107.674C86.1585 109.177 86.846 110.927 88.349 111.582Z" fill="#42331D"/>
<path d="M80.4722 107.396C81.0888 107.664 81.8064 107.382 82.0751 106.766C82.3438 106.149 82.0618 105.432 81.4452 105.163C80.8287 104.894 80.1111 105.176 79.8424 105.793C79.5737 106.409 79.8557 107.127 80.4722 107.396Z" fill="#42331D"/>
<path d="M99.1052 109.506C98.7458 109.581 98.3722 109.547 98.0316 109.41C97.6911 109.273 97.3989 109.038 97.192 108.734C96.9852 108.431 96.8729 108.073 96.8695 107.706C96.8661 107.339 96.9716 106.979 97.1728 106.671C97.374 106.364 97.6617 106.124 97.9997 105.98C98.3376 105.836 98.7106 105.796 99.0714 105.865C99.4321 105.933 99.7645 106.107 100.026 106.364C100.288 106.621 100.468 106.951 100.543 107.31C100.594 107.549 100.596 107.795 100.551 108.035C100.506 108.274 100.414 108.503 100.281 108.707C100.147 108.911 99.9746 109.087 99.7728 109.224C99.571 109.361 99.3441 109.457 99.1052 109.506Z" fill="#42331D"/>
<path d="M89.7094 103.006C90.7059 103.44 91.8658 102.984 92.3 101.988C92.7343 100.991 92.2785 99.8312 91.282 99.3969C90.2855 98.9627 89.1257 99.4185 88.6914 100.415C88.2572 101.411 88.7129 102.571 89.7094 103.006Z" fill="#42331D"/>
<path d="M103.602 114.675C103.06 114.789 102.497 114.74 101.983 114.534C101.469 114.329 101.028 113.975 100.715 113.518C100.403 113.061 100.232 112.522 100.226 111.968C100.22 111.415 100.378 110.872 100.681 110.408C100.984 109.945 101.417 109.582 101.926 109.364C102.435 109.147 102.997 109.086 103.541 109.188C104.085 109.291 104.587 109.552 104.982 109.94C105.377 110.327 105.649 110.824 105.762 111.365C105.838 111.725 105.842 112.095 105.775 112.456C105.707 112.817 105.569 113.161 105.369 113.468C105.168 113.776 104.909 114.041 104.605 114.248C104.302 114.455 103.961 114.6 103.602 114.675Z" fill="#42331D"/>
<path d="M106.751 119.443C106.344 119.529 105.92 119.491 105.533 119.335C105.147 119.179 104.815 118.912 104.58 118.568C104.346 118.224 104.218 117.818 104.214 117.401C104.21 116.985 104.33 116.576 104.558 116.228C104.787 115.879 105.113 115.606 105.497 115.443C105.88 115.28 106.303 115.234 106.713 115.312C107.122 115.389 107.499 115.587 107.797 115.879C108.094 116.171 108.298 116.544 108.383 116.952C108.495 117.498 108.386 118.067 108.081 118.534C107.775 119.001 107.297 119.328 106.751 119.443Z" fill="#42331D"/>
<path d="M99.5978 19.632L91.289 19.1955L89.8425 46.7318L98.1514 47.1682L99.5978 19.632Z" fill="#BE9BC8"/>
<path d="M95.3758 20.611C97.6702 20.7315 99.5584 20.2936 99.5931 19.6328C99.6278 18.9721 97.7959 18.3387 95.5014 18.2182C93.207 18.0977 91.3189 18.5356 91.2842 19.1964C91.2495 19.8571 93.0813 20.4905 95.3758 20.611Z" fill="#A580B2"/>
<path d="M93.9305 48.1488C96.2249 48.2694 98.113 47.8314 98.1477 47.1707C98.1824 46.5099 96.3506 45.8766 94.0561 45.7561C91.7617 45.6355 89.8735 46.0735 89.8388 46.7342C89.8041 47.395 91.636 48.0283 93.9305 48.1488Z" fill="#BE9BC8"/>
<path d="M91.3664 117.378L93.2703 113.009C93.7631 112.939 94.2655 113.002 94.7258 113.191C95.1861 113.381 95.5876 113.689 95.8888 114.085C96.1901 114.481 96.3803 114.951 96.4396 115.445C96.499 115.939 96.4255 116.44 96.2266 116.896C96.0278 117.353 95.7109 117.748 95.3085 118.04C94.9062 118.333 94.4329 118.514 93.9376 118.563C93.4424 118.612 92.943 118.528 92.4911 118.319C92.0391 118.111 91.6508 117.786 91.3664 117.378Z" fill="#42331D"/>
<path d="M96.934 108.078C96.8598 107.72 96.8933 107.348 97.0305 107.009C97.1677 106.67 97.4023 106.379 97.7046 106.174C98.007 105.968 98.3636 105.856 98.7293 105.853C99.095 105.85 99.4534 105.955 99.7593 106.156C100.065 106.356 100.305 106.643 100.448 106.98C100.591 107.316 100.631 107.688 100.563 108.047C100.495 108.406 100.321 108.737 100.065 108.998C99.8091 109.259 99.4813 109.439 99.1233 109.513C98.6428 109.612 98.1428 109.516 97.7326 109.247C97.3224 108.979 97.0353 108.558 96.934 108.078Z" fill="#42331D"/>
<path d="M94.5464 123.51C95.038 123.831 95.4232 124.291 95.6531 124.832C95.883 125.373 95.9474 125.969 95.838 126.546C95.7287 127.124 95.4506 127.655 95.0389 128.074C94.6272 128.494 94.1004 128.781 93.5252 128.901C92.9501 129.02 92.3523 128.966 91.8078 128.746C91.2632 128.526 90.7962 128.149 90.466 127.663C90.1357 127.177 89.957 126.604 89.9525 126.017C89.948 125.429 90.1179 124.854 90.4407 124.363C90.8726 123.706 91.5475 123.247 92.3172 123.087C93.0868 122.927 93.8885 123.079 94.5464 123.51Z" fill="#42331D"/>
<path d="M105.768 111.368C105.881 111.908 105.831 112.47 105.625 112.981C105.419 113.493 105.066 113.932 104.61 114.243C104.155 114.554 103.617 114.724 103.065 114.729C102.514 114.735 101.973 114.577 101.511 114.276C101.049 113.974 100.687 113.542 100.47 113.035C100.253 112.528 100.191 111.967 100.293 111.425C100.394 110.883 100.654 110.383 101.04 109.988C101.425 109.593 101.919 109.322 102.459 109.208C103.184 109.058 103.939 109.201 104.559 109.606C105.179 110.011 105.614 110.644 105.768 111.368Z" fill="#42331D"/>
<path d="M103.385 122.192C103.588 122.323 103.763 122.492 103.899 122.691C104.036 122.89 104.132 123.113 104.182 123.349C104.232 123.585 104.235 123.829 104.191 124.066C104.146 124.303 104.055 124.529 103.923 124.731C103.656 125.139 103.239 125.425 102.761 125.526C102.284 125.626 101.786 125.533 101.378 125.266C100.969 124.999 100.683 124.581 100.583 124.104C100.483 123.627 100.576 123.129 100.843 122.721C100.974 122.518 101.145 122.344 101.344 122.208C101.543 122.072 101.768 121.976 102.004 121.927C102.24 121.878 102.484 121.876 102.721 121.921C102.958 121.967 103.184 122.059 103.385 122.192Z" fill="#42331D"/>
<path d="M104.254 117.809C104.169 117.402 104.207 116.978 104.364 116.592C104.52 116.206 104.787 115.875 105.131 115.641C105.475 115.407 105.881 115.28 106.297 115.276C106.713 115.272 107.121 115.392 107.47 115.62C107.818 115.848 108.091 116.174 108.254 116.557C108.417 116.94 108.463 117.362 108.386 117.771C108.31 118.18 108.113 118.558 107.822 118.855C107.531 119.153 107.158 119.358 106.751 119.443C106.48 119.501 106.2 119.504 105.927 119.453C105.655 119.401 105.395 119.297 105.163 119.145C104.931 118.993 104.731 118.797 104.575 118.568C104.419 118.339 104.31 118.081 104.254 117.809Z" fill="#42331D"/>
</svg>
