<svg width="180" height="180" viewBox="0 0 180 180" fill="none" xmlns="http://www.w3.org/2000/svg">
<path d="M136.403 109.905C149.006 99.1502 147.233 76.3771 132.448 59.0388C117.662 41.7006 95.4446 36.3547 82.8343 47.1078C79.3152 50.1579 76.7863 54.1888 75.5713 58.6844C75.2869 59.651 74.7259 60.5132 73.9574 61.1648L41.6487 88.7205C39.7332 90.3557 39.3117 92.9964 40.6875 94.6146L82.8417 144.04C84.225 145.659 86.8967 145.648 88.8123 144.013L121.121 116.457C121.885 115.798 122.827 115.38 123.828 115.254C128.458 114.76 132.836 112.898 136.403 109.905Z" fill="#996D45"/>
<path d="M131.394 104.562C144.004 93.809 142.232 71.0358 127.439 53.6962C112.645 36.3566 90.4354 31.0121 77.8326 41.7665C74.3085 44.8131 71.7765 48.8444 70.5621 53.3418C70.2807 54.3097 69.7192 55.1727 68.9483 55.8221L36.6403 83.4171C34.7248 85.0524 34.3033 87.693 35.6715 89.3099L77.8174 138.695C79.1931 140.313 81.8724 140.303 83.788 138.668L116.089 111.11C116.853 110.452 117.795 110.033 118.796 109.908C123.434 109.421 127.821 107.56 131.394 104.562Z" fill="#A37644"/>
<path d="M128.757 102.857C140.676 92.6842 139.219 71.4163 125.521 55.2997C111.822 39.1832 91.0232 34.4376 79.1101 44.5805C75.8065 47.4391 73.4088 51.1995 72.2107 55.4006C71.921 56.3484 71.3666 57.1937 70.6126 57.8369L40.3027 83.6862C38.3872 85.3215 37.9657 87.9621 39.3414 89.5803L78.058 134.972C79.4414 136.592 82.1131 136.58 84.0286 134.945L114.331 109.094C115.087 108.449 116.012 108.035 116.997 107.9C121.323 107.395 125.409 105.643 128.757 102.857Z" fill="#F9F2C7"/>
<path d="M88.4834 57.8502C83.519 65.2771 69.7185 55.0217 69.4408 66.762C69.171 78.1985 64.0059 76.1474 62.4884 79.0053C56.7459 89.7914 62.896 110.473 78.7446 103.686C98.2572 95.3367 112.289 110.081 116.649 103.617C121.009 97.1542 137.262 88.6473 124.003 74.8256C119.862 70.5244 103.812 34.8888 88.4834 57.8502Z" fill="white"/>
<path d="M88.1887 88.8704C93.197 89.7737 97.9894 86.4458 98.8927 81.4374C99.796 76.429 96.4682 71.6367 91.4598 70.7333C86.4514 69.83 81.6591 73.1579 80.7558 78.1663C79.8525 83.1747 83.1803 87.9671 88.1887 88.8704Z" fill="#F4DB24"/>
<path d="M97.6616 77.6297C98.0774 79.3175 97.7454 80.8547 96.9091 81.064C96.0727 81.2733 96.9056 79.6072 96.4897 77.9194C96.0739 76.2316 94.5529 75.1587 95.3892 74.9494C96.2255 74.7401 97.2457 75.9419 97.6616 77.6297Z" fill="#F9F3E2"/>
</svg>
