<svg width="180" height="180" viewBox="0 0 180 180" fill="none" xmlns="http://www.w3.org/2000/svg">
<path d="M41.4754 113.885C36.8718 117.592 42.2491 120.292 44.5002 122C55.0002 127 75.0002 132.064 91.5 132C106.5 131.942 128.072 128.197 134.5 124C138.176 119.797 136.272 118.6 136.272 118.6C136.272 118.6 86.1216 130.357 41.4754 113.885Z" fill="#BE8B40"/>
<path d="M44.103 105.238C43.4727 104.956 36.4442 109.021 40.8698 115.17C42.1129 118.322 84.5722 127.554 95.0426 125.959C105.513 124.365 135.899 122.021 136.404 118.729C136.909 115.436 136.948 107.663 136.948 107.663C136.948 107.663 83.7195 123.045 44.103 105.238Z" fill="#59361F"/>
<path d="M43.1407 96.2578C37.0405 96.9037 38.0206 103.286 39.5356 104.491C41.0506 105.696 48.1533 105.461 46.5456 110.383C44.9379 115.306 46.2935 121.261 49.307 118.268C52.3205 115.275 58.1441 112.853 58.4565 115.655C58.7689 118.458 64.2905 122.86 65.6299 120.408C66.9693 117.955 71.0301 124.822 74.0032 123.187C76.9763 121.552 80.3923 117.924 81.1194 119.793C81.8465 121.661 94.7702 131.866 95.9073 123.985C97.0444 116.104 104.232 121.845 109.075 121.196C113.919 120.547 120.376 122.948 121.003 119.753C121.631 116.558 127.783 119.214 129.664 121.702C131.545 124.19 133.97 124.82 135.104 121.585C136.238 118.349 132.949 114.76 132.949 114.76C132.949 114.76 138.476 119.844 139.674 116.607C140.872 113.369 139.952 109.453 139.567 108.447C139.181 107.44 138.869 104.638 140.209 104.27C141.548 103.902 139.361 98.3892 136.681 99.1555C134.002 99.9218 43.1407 96.2578 43.1407 96.2578Z" fill="#86B240"/>
<path d="M55.5608 62.2045C55.5608 62.2045 71.4558 108.181 79.1918 119.851C83.5722 126.462 85.2684 120.931 90.4279 117.481C95.5873 114.031 109.086 108.51 109.658 104.504C110.229 100.498 66.8977 61.9925 66.8977 61.9925L55.5608 62.2045Z" fill="#FEEA59"/>
<path d="M67.5709 101.967C63.5069 101.784 46.3126 97.5595 44.6986 98.527C43.0846 99.4944 41.689 102.087 45.6658 105.109C50.0447 108.447 72.2685 114.101 74.275 112.101C76.2816 110.101 80.7982 102.541 67.5709 101.967Z" fill="#E56627"/>
<path d="M99.9814 103.264C96.0947 103.918 79.1399 103.303 77.728 104.578C76.3161 105.853 75.3792 108.683 79.5855 110.831C84.2288 113.194 106.163 114.175 107.753 111.813C109.343 109.451 112.64 101.136 99.9814 103.264Z" fill="#E56627"/>
<path d="M126.547 100.821C123.634 101.879 110.462 103.097 109.55 104.469C108.639 105.842 108.324 108.727 111.884 110.369C115.809 112.181 132.886 110.791 133.775 108.316C134.664 105.84 136.012 97.3925 126.547 100.821Z" fill="#E56627"/>
<path d="M45.016 85.7534C44.3926 85.4298 41.1091 95.7372 42.3551 99.3202C43.6012 102.903 85.5149 111.272 95.9769 109.511C106.439 107.749 136.831 105.229 137.333 101.494C137.835 97.7593 137.873 88.9351 137.873 88.9351C137.873 88.9351 84.6507 106.15 45.016 85.7534Z" fill="#59361F"/>
<path d="M44.0604 76.7793C37.9531 77.4254 38.9331 83.8001 40.4482 85.0129C41.9633 86.2258 49.0658 85.9749 47.4654 90.9049C45.8649 95.8349 47.2132 101.775 50.2196 98.7825C53.2259 95.7897 59.0566 93.367 59.3762 96.1693C59.6957 98.9715 65.2102 103.374 66.5496 100.921C67.889 98.4686 71.9498 105.336 74.9229 103.701C77.896 102.066 81.3548 98.429 82.0391 100.299C82.7234 102.169 95.6899 112.372 96.8341 104.491C97.9783 96.6101 105.152 102.351 109.995 101.741C114.839 101.13 121.303 103.484 121.923 100.29C122.543 97.0948 128.71 99.7505 130.591 102.246C132.472 104.742 134.897 105.364 136.023 102.122C137.15 98.8788 133.876 95.2962 133.876 95.2962C133.876 95.2962 139.403 100.381 140.601 97.1432C141.799 93.9057 140.879 89.9896 140.487 88.9912C140.094 87.9928 139.789 85.1824 141.128 84.8069C142.468 84.4314 140.288 78.9258 137.601 79.6923C134.915 80.4589 44.0604 76.7793 44.0604 76.7793Z" fill="#86B240"/>
<path d="M48.6365 81.7585C48.6365 81.7585 112.168 104.012 114.891 111.607C117.615 119.202 120.657 109.048 123.401 103.229C126.144 97.4085 135.033 85.1078 133.551 81.4179C132.068 77.728 75.6883 70.3074 75.6883 70.3074L48.6365 81.7585Z" fill="#FEEA59"/>
<path d="M132.937 76.4487C132.937 76.4487 66.7765 91.5236 63.0359 98.7651C59.2954 106.007 57.6728 95.5837 55.7738 89.5088C53.8748 83.4339 46.7779 70.2473 48.7669 66.7528C50.7558 63.2583 107.682 62.0673 107.682 62.0673L132.937 76.4487Z" fill="#FEEA59"/>
<path d="M68.4839 82.4813C64.42 82.3062 47.2257 78.0736 45.6117 79.0411C43.9977 80.0085 42.6021 82.6012 46.5718 85.6311C50.9577 88.9609 73.1815 94.6156 75.181 92.6154C77.1804 90.6153 81.7115 83.0784 68.4839 82.4813Z" fill="#E56627"/>
<path d="M100.895 83.7783C97.0079 84.4326 80.0603 83.8173 78.6412 85.0924C77.2222 86.3675 76.2924 89.1971 80.4987 91.345C85.142 93.7079 107.076 94.689 108.673 92.327C110.27 89.965 113.553 81.6506 100.895 83.7783Z" fill="#E56627"/>
<path d="M128.391 82.7902C125.478 83.8405 112.306 85.0582 111.395 86.4385C110.483 87.8188 110.168 90.6965 113.728 92.3376C117.653 94.1501 134.73 92.768 135.619 90.2923C136.509 87.8166 137.87 79.3534 128.391 82.7902Z" fill="#E56627"/>
<path d="M139.76 76.9586C138.876 89.445 116.347 91.1212 89.5257 89.6329C62.7044 88.1447 41.7412 84.0719 42.6247 71.5854C42.6605 71.0904 42.7334 70.5982 42.8428 70.1139C43.6366 81.4851 63.9767 85.2956 89.7409 86.7204C115.505 88.1452 137.3 86.6245 139.764 75.479C139.794 75.9709 139.792 76.4652 139.76 76.9586Z" fill="#AA7833"/>
<path d="M139.119 75.2644C139.075 75.4416 139.032 75.6189 138.974 75.7965C137.707 63.4065 117.671 46.4894 92.331 44.7731C66.9909 43.0567 45.4811 57.1468 42.3376 69.2344C42.314 69.0623 42.3003 68.8885 42.2967 68.714C44.8769 56.5008 66.6669 41.9064 92.4351 43.6517C118.203 45.397 138.459 62.8228 139.119 75.2644Z" fill="#D1A065"/>
<path d="M139.79 76.0707C136.652 86.7325 114.64 89.3528 89.3 87.6364C63.9598 85.9201 42.6125 81.7988 42.3375 69.2344C45.481 57.1469 67.0121 43.0563 92.3523 44.7727C117.692 46.489 138.524 63.6731 139.79 76.0707Z" fill="#BE8B40"/>
<path d="M55.3942 66.4446C56.6412 65.641 57.4018 64.5291 57.093 63.9612C56.7841 63.3933 55.5228 63.5844 54.2757 64.388C53.0286 65.1916 52.2681 66.3035 52.5769 66.8714C52.8857 67.4393 54.1471 67.2482 55.3942 66.4446Z" fill="#CCA36C"/>
<path d="M64.2519 57.1958C65.499 56.3922 66.2596 55.2804 65.9507 54.7124C65.6419 54.1445 64.3806 54.3356 63.1335 55.1392C61.8864 55.9428 61.1258 57.0547 61.4347 57.6226C61.7435 58.1905 63.0048 57.9994 64.2519 57.1958Z" fill="#CCA36C"/>
<path d="M73.8184 62.1685C74.8872 61.0552 75.4184 59.7809 75.0049 59.3222C74.5914 58.8636 73.3898 59.3942 72.321 60.5075C71.2522 61.6207 70.721 62.895 71.1345 63.3537C71.5479 63.8124 72.7496 63.2817 73.8184 62.1685Z" fill="#CCA36C"/>
<path d="M81.3478 52.1513C82.343 51.3562 82.9052 50.3532 82.6035 49.911C82.3018 49.4687 81.2505 49.7548 80.2553 50.5499C79.2601 51.345 78.6979 52.348 78.9996 52.7902C79.3013 53.2324 80.3526 52.9464 81.3478 52.1513Z" fill="#CCA36C"/>
<path d="M88.8 67.1254C89.4308 65.6032 89.5136 64.1735 88.9851 63.932C88.4565 63.6906 87.5167 64.7288 86.886 66.251C86.2553 67.7732 86.1724 69.2029 86.701 69.4444C87.2295 69.6858 88.1693 68.6476 88.8 67.1254Z" fill="#CCA36C"/>
<path d="M108.375 53.0178C108.611 52.4994 107.938 51.6422 106.871 51.1031C105.803 50.564 104.747 50.5472 104.511 51.0656C104.275 51.584 104.949 52.4412 106.016 52.9803C107.083 53.5194 108.139 53.5362 108.375 53.0178Z" fill="#CCA36C"/>
<path d="M101.694 56.9588C102.081 56.5883 101.738 55.4907 100.927 54.5074C100.116 53.524 99.1453 53.0273 98.7579 53.3978C98.3706 53.7683 98.7138 54.8659 99.5245 55.8492C100.335 56.8326 101.306 57.3293 101.694 56.9588Z" fill="#CCA36C"/>
<path d="M89.8282 52.571C90.7799 51.7026 91.2868 50.6614 90.9605 50.2456C90.6342 49.8297 89.5982 50.1966 88.6466 51.0651C87.695 51.9335 87.1881 52.9747 87.5144 53.3905C87.8407 53.8064 88.8766 53.4395 89.8282 52.571Z" fill="#CCA36C"/>
<path d="M104.821 67.6286C105.28 67.1896 104.873 65.8894 103.913 64.7244C102.952 63.5594 101.802 62.9708 101.343 63.4098C100.884 63.8488 101.291 65.149 102.251 66.314C103.212 67.479 104.362 68.0675 104.821 67.6286Z" fill="#CCA36C"/>
<path d="M118.994 75.1148C119.453 74.6758 119.047 73.3756 118.086 72.2106C117.126 71.0456 115.975 70.457 115.516 70.896C115.057 71.335 115.464 72.6352 116.425 73.8002C117.385 74.9652 118.536 75.5537 118.994 75.1148Z" fill="#CCA36C"/>
<path d="M94.9118 80.2062C95.4799 80.1228 95.7998 78.7152 95.6264 77.0622C95.4529 75.4093 94.8518 74.1369 94.2837 74.2203C93.7156 74.3037 93.3957 75.7113 93.5691 77.3643C93.7426 79.0172 94.3437 80.2896 94.9118 80.2062Z" fill="#CCA36C"/>
<path d="M73.5441 74.8535C74.5869 73.695 75.0848 72.3955 74.6561 71.9511C74.2274 71.5066 73.0345 72.0855 71.9916 73.244C70.9488 74.4026 70.4509 75.702 70.8796 76.1465C71.3083 76.5909 72.5012 76.012 73.5441 74.8535Z" fill="#CCA36C"/>
<path d="M129.452 67.2715C129.892 66.8048 129.428 65.5334 128.416 64.4318C127.404 63.3303 126.227 62.8157 125.787 63.2825C125.347 63.7492 125.81 65.0206 126.822 66.1221C127.834 67.2237 129.012 67.7383 129.452 67.2715Z" fill="#CCA36C"/>
<path d="M117.864 62.7045C118.304 62.2377 117.84 60.9664 116.828 59.8648C115.816 58.7633 114.639 58.2487 114.199 58.7155C113.759 59.1822 114.223 60.4536 115.235 61.5551C116.247 62.6567 117.424 63.1713 117.864 62.7045Z" fill="#CCA36C"/>
</svg>
