<svg width="180" height="180" viewBox="0 0 180 180" fill="none" xmlns="http://www.w3.org/2000/svg">
<path d="M51.4274 48.064L58.8095 138.568C58.791 142.289 71.0769 145.441 86.2801 145.602C101.483 145.762 113.872 142.846 113.906 139.121L113.945 139.113L120.561 48.7507L51.4274 48.064Z" fill="#F9F2E8"/>
<path d="M123.025 50.8424C123.09 44.9293 106.487 39.9551 85.9433 39.7323C65.3992 39.5094 48.693 44.1223 48.6288 50.0355C48.5647 55.9486 65.1669 60.9228 85.711 61.1456C106.255 61.3685 122.961 56.7556 123.025 50.8424Z" fill="#42331D"/>
<path d="M120.14 42.9733C120.195 37.4761 104.763 32.8661 85.6715 32.6766C66.5803 32.487 51.0597 36.7897 51.0051 42.2868C50.9505 47.784 66.3827 52.3941 85.4738 52.5837C104.565 52.7732 120.086 48.4705 120.14 42.9733Z" fill="#42331D"/>
<path d="M122.9 49.9023L48.7775 48.6556L51.2528 41.2294L120.143 42.7227L122.9 49.9023Z" fill="#42331D"/>
<path d="M115.957 42.4642C116.004 37.8087 102.658 33.9018 86.1486 33.7378C69.6395 33.5739 56.2188 37.215 56.1726 41.8706C56.1263 46.5261 69.4721 50.433 85.9812 50.5969C102.49 50.7609 115.911 47.1197 115.957 42.4642Z" fill="#5E574E"/>
<path d="M90.5072 48.1537C90.513 47.5662 88.5028 47.07 86.0173 47.0453C83.5317 47.0206 81.512 47.4769 81.5062 48.0643C81.5003 48.6517 83.5106 49.1479 85.9961 49.1726C88.4817 49.1972 90.5014 48.7411 90.5072 48.1537Z" fill="#C1B5AA"/>
<path d="M53.5647 79.8376C64.0311 82.5365 74.7872 83.9506 85.5956 84.049C96.7481 83.9349 107.077 83.2534 118 81.0001L116 111C116 111 105.648 114.196 85.2674 114.002C64.8872 113.809 54.8876 109.731 54.8876 109.731L53.5647 79.8376Z" fill="#D1A66A"/>
<path opacity="0.4" d="M94 145.5C99 137.5 115.333 98 118.5 76.5L114 141C103.5 145.5 96 145.5 94 145.5Z" fill="#BDAB92"/>
</svg>
