<svg width="180" height="180" viewBox="0 0 180 180" fill="none" xmlns="http://www.w3.org/2000/svg">
<path d="M122.345 29.6944L120.12 29.0345L106.182 76.0266L108.407 76.6864L122.345 29.6944Z" fill="#B29973"/>
<path d="M118.939 23.4683L116.664 23L106.772 71.0695L109.048 71.5378L118.939 23.4683Z" fill="#B29973"/>
<path d="M128.651 66.0059L88.726 62.4905L48.7573 65.425L102.631 70.6049L128.651 66.0059Z" fill="#E2E2E0"/>
<path d="M73.7342 53.0747C70.9853 54.7706 60.2415 57.7496 57.4734 60.6764C55.8241 62.4265 54.4172 65.5659 54.4172 65.5659C54.4172 65.5659 53.7447 66.8567 55.7351 66.7659C57.7255 66.675 71.9174 69.608 71.9174 69.608C71.9174 69.608 84.6808 70.4106 85.2998 70.4979C85.9187 70.5853 92.3544 73.195 93.4014 71.5979C94.4484 70.0008 99.0548 74.555 100.589 73.1565C102.123 71.7579 106.088 73.1989 107.146 71.3819C108.204 69.5649 112.445 73.0019 115.017 70.4917C117.589 67.9815 129.428 68.7401 126.98 66.6114C124.532 64.4826 111.296 59.6227 107.982 58.592C104.668 57.5612 98.4716 55.8098 93.4078 55.9621C90.3242 56.0912 78.1125 50.3341 73.7342 53.0747Z" fill="#FFF0B1"/>
<path d="M85.4045 53.1615C85.4293 53.4262 85.3948 53.6932 85.3037 53.943C85.2125 54.1928 85.0669 54.4191 84.8774 54.6057C84.688 54.7923 84.4594 54.9344 84.2082 55.0218C83.9571 55.1091 83.6896 55.1395 83.4253 55.1107C82.152 55.0964 80.7219 55.0706 80.7328 53.8811C80.7617 53.2872 81.0251 52.729 81.4652 52.3292C81.9054 51.9294 82.4862 51.7205 83.0801 51.7486C84.3697 51.7562 85.4154 51.972 85.4045 53.1615Z" fill="#B68A58"/>
<path d="M73.6709 53.0438C70.9241 54.7451 60.1804 57.7241 57.4123 60.6509C55.7607 62.3956 54.3538 65.535 54.3538 65.535C54.3538 65.535 53.6836 66.8312 55.674 66.7403C57.6644 66.6495 71.8563 69.5825 71.8563 69.5825C71.8563 69.5825 84.6252 70.3829 85.2365 70.467C85.8478 70.5511 92.291 73.1641 93.3491 71.594C94.4073 70.024 99.0048 74.5566 100.545 73.1558C102.084 71.755 106.038 73.2005 107.094 71.378C108.149 69.5556 112.393 72.9981 114.967 70.4933C117.542 67.9885 129.376 68.7363 126.93 66.613C124.485 64.4896 111.251 59.6221 107.932 58.5935C104.612 57.565 98.4217 55.8114 93.3579 55.9637C90.2797 56.0905 78.0625 50.3357 73.6709 53.0438Z" fill="#FFF0B1"/>
<path d="M102.782 140.996L53.2304 135.247L48.7573 65.425L102.631 70.6048L102.782 140.996Z" fill="#F4F4F2"/>
<path d="M124.157 126.638L102.782 140.996L102.631 70.6049L128.651 66.0059L124.157 126.638Z" fill="#E2E1DE"/>
<path d="M143.333 74.3453L123.773 77.7669L102.631 70.6049L128.651 66.0059L143.333 74.3453Z" fill="white"/>
<path d="M62.2051 59.1697C63.0324 58.6999 63.5516 58.0521 63.3647 57.7228C63.1777 57.3936 62.3554 57.5076 61.528 57.9774C60.7007 58.4472 60.1816 59.0949 60.3686 59.4242C60.5555 59.7534 61.3777 59.6395 62.2051 59.1697Z" fill="#EDDC95"/>
<path d="M73.5161 59.8078C73.4292 59.4393 72.608 59.3177 71.682 59.5363C70.756 59.7548 70.0759 60.2308 70.1628 60.5993C70.2498 60.9678 71.071 61.0893 71.997 60.8708C72.923 60.6522 73.6031 60.1764 73.5161 59.8078Z" fill="#EDDC95"/>
<path d="M86.7572 61.8984C87.5845 61.4286 88.1036 60.7809 87.9167 60.4516C87.7297 60.1224 86.9075 60.2363 86.0801 60.7061C85.2528 61.1759 84.7336 61.8237 84.9206 62.1529C85.1075 62.4822 85.9298 62.3682 86.7572 61.8984Z" fill="#EDDC95"/>
<path d="M82.965 55.6633C82.8534 55.3015 82.0259 55.2353 81.1167 55.5155C80.2075 55.7958 79.5608 56.3163 79.6724 56.6781C79.7839 57.04 80.6113 57.1061 81.5206 56.8258C82.4298 56.5456 83.0765 56.0252 82.965 55.6633Z" fill="#EDDC95"/>
<path d="M88.226 55.6381C88.2898 55.2649 87.5813 54.8325 86.6435 54.6721C85.7056 54.5118 84.8937 54.6844 84.8299 55.0576C84.7661 55.4308 85.4746 55.8634 86.4124 56.0237C87.3503 56.184 88.1622 56.0114 88.226 55.6381Z" fill="#EDDC95"/>
<path d="M81.3489 54.1868C81.4127 53.8136 80.7041 53.3811 79.7663 53.2208C78.8285 53.0605 78.0165 53.2331 77.9527 53.6063C77.8889 53.9795 78.5974 54.4121 79.5352 54.5724C80.4731 54.7327 81.2851 54.5601 81.3489 54.1868Z" fill="#EDDC95"/>
<path d="M94.6289 56.4591C94.6927 56.0858 93.9841 55.6533 93.0463 55.493C92.1085 55.3327 91.2965 55.5053 91.2327 55.8785C91.1689 56.2517 91.8774 56.6843 92.8153 56.8446C93.7531 57.0049 94.5651 56.8323 94.6289 56.4591Z" fill="#EDDC95"/>
<path d="M82.2769 59.111C82.1654 58.7492 81.3379 58.683 80.4287 58.9632C79.5195 59.2435 78.8728 59.764 78.9843 60.1258C79.0959 60.4877 79.9234 60.5538 80.8326 60.2736C81.7418 59.9934 82.3885 59.4728 82.2769 59.111Z" fill="#EDDC95"/>
<path d="M66.9625 55.7408C66.851 55.3789 66.0235 55.3128 65.1143 55.5931C64.2051 55.8733 63.5584 56.3937 63.6699 56.7556C63.7814 57.1174 64.6089 57.1836 65.5181 56.9034C66.4274 56.6231 67.074 56.1026 66.9625 55.7408Z" fill="#EDDC95"/>
<path d="M68.5648 62.9222C68.4533 62.5603 67.6258 62.4942 66.7166 62.7744C65.8073 63.0546 65.1607 63.5751 65.2722 63.937C65.3837 64.2988 66.2112 64.365 67.1204 64.0848C68.0296 63.8045 68.6763 63.284 68.5648 62.9222Z" fill="#EDDC95"/>
<path d="M78.6265 58.7874C78.5395 58.4189 77.7184 58.2974 76.7924 58.5159C75.8664 58.7345 75.1862 59.2103 75.2732 59.5788C75.3602 59.9473 76.1813 60.0689 77.1073 59.8504C78.0333 59.6318 78.7135 59.1559 78.6265 58.7874Z" fill="#EDDC95"/>
<path d="M78.3763 64.6776C78.2893 64.3091 77.4681 64.1875 76.5421 64.4061C75.6161 64.6246 74.936 65.1005 75.023 65.469C75.1099 65.8375 75.9311 65.9591 76.8571 65.7405C77.7831 65.522 78.4632 65.0461 78.3763 64.6776Z" fill="#EDDC95"/>
<path d="M59.3731 64.4415C60.2004 63.9717 60.7196 63.324 60.5326 62.9947C60.3457 62.6654 59.5234 62.7794 58.696 63.2492C57.8687 63.719 57.3496 64.3668 57.5365 64.696C57.7235 65.0253 58.5457 64.9113 59.3731 64.4415Z" fill="#EDDC95"/>
<path d="M85.0132 60.6753C84.9262 60.3068 84.1051 60.1853 83.1791 60.4039C82.2531 60.6224 81.5729 61.0983 81.6599 61.4668C81.7469 61.8353 82.568 61.9569 83.494 61.7383C84.42 61.5198 85.1002 61.0438 85.0132 60.6753Z" fill="#EDDC95"/>
<path d="M101.802 61.4074C101.942 61.0554 101.338 60.4858 100.454 60.1351C99.5691 59.7844 98.739 59.7854 98.5994 60.1373C98.4598 60.4893 99.0637 61.059 99.9481 61.4097C100.833 61.7604 101.663 61.7593 101.802 61.4074Z" fill="#EDDC95"/>
<path d="M97.4118 58.98C97.5514 58.628 96.9476 58.0584 96.0631 57.7077C95.1787 57.357 94.3486 57.358 94.209 57.71C94.0695 58.0619 94.6733 58.6316 95.5577 58.9823C96.4421 59.333 97.2723 59.332 97.4118 58.98Z" fill="#EDDC95"/>
<path d="M107.368 59.4206C107.257 59.0588 106.429 58.9926 105.52 59.2729C104.611 59.5531 103.964 60.0736 104.076 60.4354C104.187 60.7972 105.015 60.8634 105.924 60.5832C106.833 60.3029 107.48 59.7824 107.368 59.4206Z" fill="#EDDC95"/>
<path d="M106.55 63.2059C106.553 62.8272 105.784 62.5148 104.832 62.5079C103.881 62.5011 103.107 62.8026 103.105 63.1812C103.102 63.5598 103.871 63.8722 104.823 63.879C105.774 63.8858 106.547 63.5845 106.55 63.2059Z" fill="#EDDC95"/>
<path d="M111.576 61.5323C111.579 61.1537 110.81 60.8412 109.859 60.8344C108.907 60.8276 108.134 61.129 108.131 61.5077C108.128 61.8863 108.897 62.1988 109.849 62.2056C110.8 62.2124 111.574 61.9109 111.576 61.5323Z" fill="#EDDC95"/>
<path d="M111.596 59.1337C111.599 58.7551 110.83 58.4426 109.878 58.4358C108.927 58.429 108.153 58.7304 108.151 59.109C108.148 59.4877 108.917 59.8001 109.868 59.8069C110.82 59.8137 111.593 59.5123 111.596 59.1337Z" fill="#EDDC95"/>
<path d="M104.449 57.1205C104.452 56.7418 103.682 56.4294 102.731 56.4225C101.78 56.4157 101.006 56.7172 101.003 57.0958C101.001 57.4744 101.77 57.7869 102.721 57.7937C103.673 57.8005 104.446 57.4991 104.449 57.1205Z" fill="#EDDC95"/>
<path d="M92.8734 62.0783C92.8761 61.6997 92.107 61.3872 91.1556 61.3804C90.2042 61.3736 89.4307 61.6751 89.428 62.0537C89.4253 62.4323 90.1944 62.7448 91.1458 62.7516C92.0972 62.7584 92.8706 62.457 92.8734 62.0783Z" fill="#EDDC95"/>
<path d="M87.4487 58.864C87.5125 58.4908 86.8039 58.0583 85.8661 57.898C84.9283 57.7377 84.1163 57.9103 84.0525 58.2835C83.9887 58.6567 84.6973 59.0892 85.6351 59.2495C86.5729 59.4098 87.3849 59.2373 87.4487 58.864Z" fill="#EDDC95"/>
<path d="M119.838 64.8916C119.938 64.5265 119.275 64.0264 118.358 63.7747C117.44 63.523 116.615 63.615 116.515 63.9801C116.415 64.3453 117.078 64.8453 117.995 65.097C118.913 65.3487 119.738 65.2568 119.838 64.8916Z" fill="#EDDC95"/>
<path d="M97.0371 63.3435C97.8645 62.8737 98.3837 62.2259 98.1967 61.8967C98.0097 61.5674 97.1874 61.6814 96.3601 62.1512C95.5327 62.621 95.0136 63.2687 95.2006 63.598C95.3876 63.9273 96.2098 63.8133 97.0371 63.3435Z" fill="#EDDC95"/>
<path d="M80.0709 63.2304C80.8948 62.7574 81.4101 62.1082 81.2218 61.7803C81.0336 61.4524 80.2131 61.5701 79.3893 62.0431C78.5654 62.5161 78.0501 63.1653 78.2383 63.4932C78.4265 63.8211 79.247 63.7034 80.0709 63.2304Z" fill="#EDDC95"/>
<path d="M102.047 67.5575C102.049 67.1788 101.28 66.8664 100.329 66.8596C99.3775 66.8528 98.6041 67.1542 98.6013 67.5328C98.5986 67.9114 99.3677 68.2239 100.319 68.2307C101.271 68.2375 102.044 67.9361 102.047 67.5575Z" fill="#EDDC95"/>
<path d="M111.22 65.7712C112.047 65.3014 112.566 64.6537 112.379 64.3244C112.192 63.9952 111.37 64.1091 110.543 64.5789C109.715 65.0487 109.196 65.6965 109.383 66.0257C109.57 66.355 110.392 66.241 111.22 65.7712Z" fill="#EDDC95"/>
<path d="M92.5418 67.7009C93.3692 67.2311 93.8883 66.5833 93.7013 66.2541C93.5144 65.9248 92.6921 66.0388 91.8648 66.5086C91.0374 66.9784 90.5183 67.6262 90.7052 67.9554C90.8922 68.2847 91.7145 68.1707 92.5418 67.7009Z" fill="#EDDC95"/>
<path d="M72.3052 53.0136C73.1291 52.5406 73.6444 51.8914 73.4562 51.5635C73.268 51.2356 72.4475 51.3533 71.6236 51.8263C70.7997 52.2993 70.2844 52.9485 70.4727 53.2764C70.6609 53.6043 71.4813 53.4866 72.3052 53.0136Z" fill="#EDDC95"/>
<path d="M70.31 58.5408C70.2882 58.1628 69.5004 57.9009 68.5506 57.9558C67.6007 58.0108 66.8485 58.3617 66.8703 58.7397C66.8922 59.1177 67.6799 59.3797 68.6298 59.3247C69.5796 59.2698 70.3319 58.9188 70.31 58.5408Z" fill="#EDDC95"/>
<path d="M92.8951 59.5162C92.8978 59.1375 92.1287 58.8251 91.1773 58.8182C90.2259 58.8114 89.4524 59.1129 89.4497 59.4915C89.447 59.8701 90.2161 60.1825 91.1675 60.1893C92.1189 60.1961 92.8924 59.8948 92.8951 59.5162Z" fill="#EDDC95"/>
<path d="M92.7856 60.2993C92.8101 60.564 92.7755 60.8309 92.6845 61.0807C92.5935 61.3305 92.4482 61.557 92.2591 61.7439C92.0701 61.9308 91.8419 62.0735 91.5911 62.1617C91.3403 62.2499 91.073 62.2814 90.8086 62.254C89.5331 62.2342 88.103 62.2084 88.1139 61.0189C88.1428 60.425 88.4062 59.8669 88.8463 59.467C89.2865 59.0672 89.8673 58.8583 90.4612 58.8864C91.7508 58.894 92.7965 59.1098 92.7856 60.2993Z" fill="#B68A58"/>
<path d="M101.399 61.8728C101.422 62.1378 101.386 62.4045 101.294 62.654C101.202 62.9035 101.056 63.1296 100.866 63.3161C100.677 63.5026 100.448 63.6448 100.197 63.7327C99.9461 63.8205 99.6787 63.8518 99.4142 63.8243C98.1409 63.81 96.7141 63.7765 96.7195 62.5893C96.7493 61.9945 97.0137 61.4358 97.4548 61.0357C97.8958 60.6355 98.4774 60.4265 99.0723 60.4545C100.371 60.4838 101.407 60.691 101.399 61.8728Z" fill="#B68A58"/>
<path d="M110.907 65.6507C110.931 65.9152 110.896 66.1817 110.804 66.431C110.713 66.6803 110.567 66.9062 110.378 67.0926C110.189 67.2789 109.961 67.421 109.71 67.5088C109.459 67.5965 109.192 67.6277 108.928 67.6C107.655 67.5856 106.223 67.5544 106.236 66.3703C106.249 66.076 106.321 65.7872 106.446 65.5206C106.572 65.254 106.748 65.0148 106.967 64.8166C107.185 64.6185 107.44 64.4654 107.717 64.3661C107.994 64.2667 108.289 64.2231 108.583 64.2378C109.882 64.2671 110.922 64.4851 110.907 65.6507Z" fill="#B68A58"/>
<path d="M64.7031 66.7994C64.7261 67.0643 64.6904 67.3311 64.5983 67.5806C64.5062 67.8301 64.3601 68.0562 64.1705 68.2427C63.9808 68.4292 63.7523 68.5714 63.5013 68.6593C63.2503 68.7471 62.9829 68.7784 62.7184 68.7509C61.4451 68.7366 60.0182 68.7031 60.0259 67.5213C60.0557 66.9265 60.3201 66.3678 60.7612 65.9677C61.2022 65.5676 61.7838 65.3586 62.3787 65.3865C63.6628 65.3964 64.7085 65.6122 64.7031 66.7994Z" fill="#B68A58"/>
<path d="M105.235 57.8471C105.26 58.1119 105.226 58.3788 105.135 58.6286C105.043 58.8784 104.898 59.1048 104.708 59.2914C104.519 59.478 104.29 59.6201 104.039 59.7074C103.788 59.7948 103.521 59.8252 103.256 59.7964C101.983 59.782 100.553 59.7562 100.558 58.569C100.588 57.9742 100.853 57.4156 101.294 57.0154C101.735 56.6153 102.316 56.4063 102.911 56.4342C104.192 56.4202 105.232 56.6382 105.235 57.8471Z" fill="#B68A58"/>
<path d="M68.5747 57.0115C68.5995 57.2762 68.565 57.5432 68.4738 57.793C68.3827 58.0428 68.2371 58.2691 68.0476 58.4557C67.8582 58.6423 67.6296 58.7844 67.3785 58.8718C67.1273 58.9591 66.8599 58.9895 66.5955 58.9607C65.3222 58.9464 63.8975 58.9183 63.9029 57.7311C63.9334 57.1377 64.1973 56.5805 64.6371 56.181C65.0769 55.7814 65.6568 55.5721 66.2503 55.5986C67.5465 55.6225 68.5932 55.8252 68.5747 57.0115Z" fill="#B68A58"/>
<path d="M83.0198 58.9177L80.2504 58.707C80.1342 58.6982 80.0329 58.7852 80.024 58.9014L79.9111 60.3854C79.9023 60.5016 79.9893 60.6029 80.1055 60.6118L82.8749 60.8224C82.9911 60.8313 83.0925 60.7443 83.1013 60.6281L83.2142 59.1441C83.223 59.0279 83.136 58.9266 83.0198 58.9177Z" fill="#78BC55"/>
<path d="M92.6112 62.5963L89.8734 62.1283C89.7586 62.1087 89.6496 62.1859 89.63 62.3007L89.476 63.2017C89.4563 63.3166 89.5335 63.4256 89.6483 63.4452L92.3861 63.9132C92.5009 63.9328 92.6099 63.8556 92.6295 63.7408L92.7836 62.8398C92.8032 62.7249 92.726 62.6159 92.6112 62.5963Z" fill="#78BC55"/>
<path d="M82.001 63.6781L79.2978 64.316C79.1844 64.3428 79.1142 64.4564 79.141 64.5698L79.351 65.4595C79.3777 65.5728 79.4913 65.6431 79.6047 65.6163L82.3079 64.9783C82.4213 64.9516 82.4916 64.8379 82.4648 64.7245L82.2548 63.8349C82.2281 63.7215 82.1144 63.6513 82.001 63.6781Z" fill="#78BC55"/>
<path d="M86.6598 54.6559L83.922 54.1879C83.8072 54.1683 83.6982 54.2454 83.6786 54.3603L83.5246 55.2613C83.5049 55.3761 83.5821 55.4851 83.6969 55.5048L86.4347 55.9727C86.5495 55.9924 86.6585 55.9152 86.6781 55.8004L86.8321 54.8993C86.8518 54.7845 86.7746 54.6755 86.6598 54.6559Z" fill="#78BC55"/>
<path d="M107.107 62.1686L104.429 61.4339C104.316 61.403 104.2 61.4691 104.169 61.5815L103.927 62.463C103.897 62.5754 103.963 62.6914 104.075 62.7222L106.754 63.457C106.866 63.4878 106.982 63.4217 107.013 63.3094L107.255 62.4279C107.285 62.3155 107.219 62.1994 107.107 62.1686Z" fill="#78BC55"/>
<path d="M74.9118 54.1689L72.2575 54.9869C72.1462 55.0213 72.0837 55.1393 72.118 55.2507L72.3873 56.1242C72.4216 56.2355 72.5397 56.298 72.651 56.2637L75.3053 55.4456C75.4166 55.4113 75.479 55.2932 75.4447 55.1819L75.1755 54.3083C75.1412 54.197 75.0231 54.1345 74.9118 54.1689Z" fill="#78BC55"/>
<path d="M98.5289 66.4299L95.8747 67.2479C95.7633 67.2822 95.7009 67.4003 95.7352 67.5116L96.0045 68.3852C96.0388 68.4965 96.1568 68.559 96.2682 68.5247L98.9224 67.7066C99.0337 67.6723 99.0962 67.5542 99.0619 67.4429L98.7926 66.5693C98.7583 66.458 98.6402 66.3956 98.5289 66.4299Z" fill="#78BC55"/>
<path d="M71.2851 64.1996L68.6308 65.0177C68.5194 65.052 68.457 65.1701 68.4913 65.2814L68.7606 66.155C68.7949 66.2663 68.9129 66.3287 69.0243 66.2944L71.6786 65.4763C71.7899 65.442 71.8523 65.324 71.818 65.2126L71.5488 64.3391C71.5145 64.2278 71.3964 64.1653 71.2851 64.1996Z" fill="#78BC55"/>
<path d="M73.6528 60.9722C73.6759 61.2372 73.64 61.504 73.548 61.7535C73.4559 62.003 73.3098 62.2291 73.1202 62.4155C72.9306 62.602 72.7021 62.7442 72.451 62.8321C72.2 62.92 71.9327 62.9513 71.6681 62.9237C70.3948 62.9094 68.968 62.8759 68.9734 61.6887C69.0048 61.0945 69.2696 60.5367 69.7103 60.1369C70.1509 59.7371 70.7317 59.5275 71.3262 59.5539C72.6125 59.5692 73.6582 59.785 73.6528 60.9722Z" fill="#B68A58"/>
<path d="M86.9128 56.3171C86.9369 56.5823 86.9019 56.8495 86.8102 57.0995C86.7185 57.3495 86.5724 57.5761 86.3826 57.7628C86.1927 57.9495 85.9638 58.0917 85.7122 58.1792C85.4607 58.2666 85.1929 58.2972 84.9281 58.2686C83.6548 58.2542 82.2302 58.2262 82.2356 57.0389C82.2654 56.4442 82.5299 55.8856 82.9709 55.4854C83.4119 55.0853 83.9935 54.8763 84.5884 54.9042C85.8725 54.9141 86.9182 55.1298 86.9128 56.3171Z" fill="#B68A58"/>
<path d="M88.2299 67.872C88.2536 68.1365 88.2183 68.403 88.1268 68.6523C88.0352 68.9016 87.8897 69.1275 87.7004 69.3139C87.5112 69.5002 87.2831 69.6424 87.0325 69.7301C86.7818 69.8178 86.5148 69.849 86.2507 69.8213C84.9774 69.807 83.5504 69.7735 83.5581 68.5917C83.588 67.9969 83.8524 67.4383 84.2934 67.0381C84.7344 66.638 85.3161 66.429 85.9109 66.4569C87.1951 66.4668 88.2679 66.6714 88.2299 67.872Z" fill="#B68A58"/>
<path d="M98.4206 55.9322C98.4453 56.197 98.4108 56.4639 98.3197 56.7137C98.2285 56.9635 98.0829 57.1899 97.8935 57.3765C97.704 57.5631 97.4754 57.7052 97.2242 57.7925C96.9731 57.8799 96.7056 57.9102 96.4413 57.8815C95.168 57.8671 93.7379 57.8413 93.7434 56.6541C93.7732 56.0593 94.0376 55.5007 94.4786 55.1005C94.9197 54.7004 95.5013 54.4914 96.0961 54.5193C97.3748 54.5314 98.4151 54.7494 98.4206 55.9322Z" fill="#B68A58"/>
<path d="M76.3511 85.7157L40.7225 80.9382L48.7575 65.4249L102.631 70.6048L76.3511 85.7157Z" fill="white"/>
<path d="M60.8929 102.023C60.8929 102.023 72.8131 100.67 76.9705 93.7303C76.9705 93.7303 83.5517 104.296 92.2645 104.295" stroke="#F04C23" stroke-width="5.49" stroke-miterlimit="10"/>
<path d="M68.7597 101.199C68.7597 101.199 69.7492 114.282 65.6578 119.135" stroke="#F04C23" stroke-width="5.49" stroke-miterlimit="10"/>
<path d="M84.7427 101.772C84.7427 101.772 83.8795 118.99 88.2733 122.75" stroke="#F04C23" stroke-width="5.49" stroke-miterlimit="10"/>
</svg>
