<svg width="180" height="180" viewBox="0 0 180 180" fill="none" xmlns="http://www.w3.org/2000/svg">
<path d="M59.6006 101.77L29.3906 110.93C28.5306 111.2 28.0006 111.67 28.0006 112.17V128.17C28.0006 128.91 29.1106 129.53 30.5706 129.61L130.001 135.2C131.711 135.3 133.211 134.63 133.211 133.76V118.19C133.211 117.61 132.531 117.09 131.481 116.86L62.2606 101.68C61.3798 101.493 60.4668 101.524 59.6006 101.77Z" fill="#F7D684"/>
<path d="M59.6006 86.59L29.3906 95.76C28.5306 96 28.0006 96.49 28.0006 97V113C28.0006 113.74 29.1106 114.36 30.5706 114.44L130.001 120C131.711 120.1 133.211 119.43 133.211 118.56V103C133.211 102.43 132.531 101.91 131.481 101.68L62.2606 86.5C61.3794 86.3185 60.4676 86.3494 59.6006 86.59Z" fill="#F7F4F0"/>
<path d="M64.5406 72.81L59.1906 72.52L59.5906 72.39C60.4611 72.1497 61.376 72.1189 62.2606 72.3L64.5406 72.81Z" fill="#F7D684"/>
<path d="M133.221 90.27V104.38C133.221 105.25 131.721 105.92 130.011 105.82L30.5706 100.26C29.1106 100.18 28.0006 99.56 28.0006 98.82V84.71C28.0006 85.45 29.1106 86.07 30.5706 86.15L130.001 91.72C131.721 91.81 133.221 91.14 133.221 90.27Z" fill="#F7D684"/>
<path d="M133.221 75.18V90.27C133.221 91.14 131.721 91.81 130.011 91.72L30.5706 86.15C29.1106 86.07 28.0006 85.45 28.0006 84.71V69.53C27.9898 69.8795 28.1169 70.2191 28.3546 70.4755C28.5923 70.7319 28.9214 70.8844 29.2706 70.9L59.1906 72.52L64.5406 72.81L131.761 76.43C131.939 76.4479 132.12 76.4293 132.291 76.3755C132.463 76.3217 132.621 76.2337 132.758 76.1169C132.894 76.0001 133.005 75.8569 133.085 75.6958C133.165 75.5348 133.211 75.3594 133.221 75.18Z" fill="#F7F4F0"/>
<path d="M133.221 74.7V75.18C133.211 75.3593 133.165 75.5348 133.085 75.6958C133.005 75.8568 132.894 76.0001 132.758 76.1169C132.621 76.2337 132.463 76.3216 132.291 76.3755C132.12 76.4293 131.939 76.4478 131.761 76.43L64.5406 72.81L59.1906 72.52L29.2706 70.9C28.9214 70.8844 28.5923 70.7319 28.3546 70.4755C28.1169 70.2191 27.9898 69.8794 28.0006 69.53V68.68C28.0006 68.17 28.5306 67.68 29.3906 67.44L59.5906 58.28C60.1944 58.1062 60.8237 58.0386 61.4506 58.08C61.6283 58.0901 61.8052 58.1102 61.9806 58.14H62.0706C62.1339 58.1344 62.1974 58.1344 62.2606 58.14L131.491 73.33C132.541 73.6 133.221 74.13 133.221 74.7Z" fill="#FFFDF8"/>
<path d="M28.0006 77.06H35.4106V129.74H30.3606C29.7347 129.74 29.1345 129.491 28.6919 129.049C28.2493 128.606 28.0006 128.006 28.0006 127.38V77.06Z" fill="#F7F4F0"/>
<path d="M85.4206 67C83.7306 69.42 80.5006 70 76.8006 70C71.3506 70 66.9406 68.71 66.9406 62.21C66.9406 56.6 70.2206 47.85 74.6306 45.59C71.4806 49.16 69.3406 55.71 69.3406 60.24C69.3406 66.74 73.7606 68.02 79.2106 68.02C81.3297 68.1273 83.4472 67.7795 85.4206 67Z" fill="#D32411"/>
<path d="M86.6706 62.19C86.769 63.8848 86.3317 65.5675 85.4206 67C83.4457 67.7726 81.3283 68.1136 79.2106 68C73.7606 68 69.3406 66.72 69.3406 60.22C69.3406 55.69 71.4806 49.14 74.6306 45.57C75.2958 45.2038 76.0413 45.008 76.8006 45C82.2506 45 86.6706 55.69 86.6706 62.19Z" fill="#ED3214"/>
</svg>
