<svg width="180" height="180" viewBox="0 0 180 180" fill="none" xmlns="http://www.w3.org/2000/svg">
<path d="M48.5197 84.4349C48.2412 84.1773 48.0181 83.9038 47.8561 83.6214L48.5197 84.4349Z" fill="#B76028"/>
<path d="M125.949 62.4449L126.029 63.085C126.032 68.2925 110.147 76.7986 89.4434 82.5283C68.74 88.2579 50.7475 89.1311 48.0737 84.6511L47.8118 84.0557L125.949 62.4449Z" fill="#B76028"/>
<path d="M125.413 61.9407L48.0164 83.6377C46.6211 78.5167 62.809 69.5111 84.1788 63.5209C105.549 57.5307 124.011 56.8191 125.413 61.9407Z" fill="#B76028"/>
<path d="M126.031 63.1994L125.368 62.386C125.737 62.663 125.96 62.9367 126.031 63.1994Z" fill="#B76028"/>
<path d="M61.2236 48.8103L57.1462 49.9385L68.4305 90.7178L72.5078 89.5895L61.2236 48.8103Z" fill="#EDD398"/>
<path d="M70.3075 90.3064L66.2246 91.4537L59.0737 65.1528L54.9873 50.0991L59.0646 48.9449L63.2257 64.2547L70.3075 90.3064Z" fill="#FFE6A9"/>
<path d="M87.8939 55.6852L83.3294 56.0675L87.155 101.744L91.7195 101.361L87.8939 55.6852Z" fill="#EDD398"/>
<path d="M89.3505 101.17L84.8954 101.555L82.5462 72.8958L81.1983 56.4974L85.6588 56.1194L87.028 72.7927L89.3505 101.17Z" fill="#FFE6A9"/>
<path d="M98.7481 41.5239L94.1836 41.9062L98.0091 87.5824L102.574 87.2001L98.7481 41.5239Z" fill="#EDD398"/>
<path d="M100.451 87.3604L95.9885 87.758L93.6858 58.6416L92.3704 41.9821L96.8329 41.5846L98.1684 58.5295L100.451 87.3604Z" fill="#FFE6A9"/>
<path d="M101.198 49.9488L96.7598 51.0816L108.095 95.494L112.533 94.3613L101.198 49.9488Z" fill="#EDD398"/>
<path d="M110.114 95.072L105.677 96.2019L98.474 68.0092L94.3516 51.8725L98.7895 50.7364L102.978 67.1494L110.114 95.072Z" fill="#FFE6A9"/>
<path d="M87.3013 40.8927L82.8866 42.1143L95.1108 86.2903L99.5254 85.0687L87.3013 40.8927Z" fill="#EDD398"/>
<path d="M97.6547 85.5042L93.2615 86.7352L85.5476 58.5455L81.1346 42.4149L85.5277 41.1838L90.0192 57.5871L97.6547 85.5042Z" fill="#FFE6A9"/>
<path d="M79.6582 45.5221L75.2436 46.7437L87.4678 90.9197L91.8823 89.6982L79.6582 45.5221Z" fill="#EDD398"/>
<path d="M89.7422 89.952L85.3519 91.1557L77.5917 63.4204L73.1527 47.5464L77.5431 46.3428L82.061 62.4851L89.7422 89.952Z" fill="#FFE6A9"/>
<path d="M55.0694 57.7473L51.2364 59.5377L69.1432 97.8734L72.9762 96.083L55.0694 57.7473Z" fill="#EDD398"/>
<path d="M71.0972 97.2302L67.2718 99.021L55.9332 74.5895L49.4452 60.5999L53.265 58.8022L59.8671 73.0239L71.0972 97.2302Z" fill="#FFE6A9"/>
<path d="M49.28 63.4467L45.447 65.2372L63.3538 103.573L67.1868 101.782L49.28 63.4467Z" fill="#EDD398"/>
<path d="M65.3289 102.608L61.5092 104.405L50.1645 79.9707L43.6763 65.9833L47.5023 64.1865L54.0984 78.4054L65.3289 102.608Z" fill="#FFE6A9"/>
<path d="M105.726 42.0029L101.311 43.2245L113.535 87.4005L117.95 86.1789L105.726 42.0029Z" fill="#EDD398"/>
<path d="M116.192 86.6383L111.642 87.8537L103.56 59.629L98.9337 43.4746L103.478 42.2586L108.18 58.6855L116.192 86.6383Z" fill="#FFE6A9"/>
<path d="M121.571 46.1581L116.091 46.4826L118.808 92.3688L124.288 92.0443L121.571 46.1581Z" fill="#EDD398"/>
<path d="M120.696 86.3772L115.36 86.7386L113.606 57.7107L112.605 41.0966L117.94 40.7413L118.957 57.6266L120.696 86.3772Z" fill="#FFE6A9"/>
<path d="M69.0952 53.051L64.8732 53.3209L67.5724 95.5464L71.7944 95.2765L69.0952 53.051Z" fill="#EDD398"/>
<path d="M69.7707 95.595L65.5413 95.8611L63.8106 69.0762L62.8237 53.752L67.0468 53.4853L68.0579 69.0687L69.7707 95.595Z" fill="#FFE6A9"/>
<path d="M111.73 32.428L107.159 32.7202L110.809 89.8254L115.38 89.5332L111.73 32.428Z" fill="#EDD398"/>
<path d="M112.922 89.4624L108.528 89.7761L106.439 53.5084L105.244 32.7516L109.638 32.438L110.851 53.5481L112.922 89.4624Z" fill="#FFE6A9"/>
<path d="M70.8627 44.5497L65.8432 46.5216L83.54 91.5684L88.5594 89.5965L70.8627 44.5497Z" fill="#EDD398"/>
<path d="M85.9821 90.2431L81.0062 92.2071L69.8545 63.7005L63.4698 47.3839L68.4518 45.4206L74.9396 62.0101L85.9821 90.2431Z" fill="#FFE6A9"/>
<path d="M70.5784 60.0252L66.5872 63.0043L93.3163 98.8152L97.3076 95.8361L70.5784 60.0252Z" fill="#EDD398"/>
<path d="M95.7393 97.0301L91.7207 100.009L74.5749 77.1762L64.7579 64.107L68.7833 61.1226L78.7619 74.4095L95.7393 97.0301Z" fill="#FFE6A9"/>
<path d="M71.3964 70.8668L67.9484 73.9106L95.2556 104.844L98.7036 101.8L71.3964 70.8668Z" fill="#EDD398"/>
<path d="M97.3546 103.175L93.9082 106.2L76.5326 86.648L66.591 75.46L70.0368 72.4414L80.1481 83.8149L97.3546 103.175Z" fill="#FFE6A9"/>
<path d="M125.81 63.177L133.394 120.979C133.635 122.895 133.179 124.834 132.108 126.442C131.037 128.051 129.422 129.223 127.556 129.746L81.468 142.434C79.5931 142.955 77.592 142.781 75.8345 141.946C74.0771 141.11 72.6822 139.669 71.9079 137.889L48.5193 84.4362C51.2031 88.8513 69.0089 87.9934 89.5167 82.3558C110.025 76.7183 125.815 68.3185 125.81 63.177Z" fill="#D16B28"/>
</svg>
