<svg width="180" height="180" viewBox="0 0 180 180" fill="none" xmlns="http://www.w3.org/2000/svg">
<path d="M43.1076 62.8259C37.2389 67.8641 29.1094 66.5383 30.0794 76.4264C31.0493 86.3145 59.6389 116.956 90.4614 121.68C120.167 126.244 141.214 126.146 141.988 101.806C142.763 77.4661 105.046 85.7911 93.6644 80.704C82.283 75.6169 61.8579 46.7342 43.1076 62.8259Z" fill="#EDBC68"/>
<path d="M77.3284 98.8803C104.012 108.183 148.884 118.2 149.989 99.2616C150.765 85.8481 111.806 97.8266 83.6549 86.6175C55.5038 75.4084 48.0798 51.1254 38.3629 56.8651C28.646 62.6049 50.3238 89.4666 77.3284 98.8803Z" fill="#BA4E27"/>
<path d="M46.5836 62C44.7503 65 42.0836 71.1 46.0836 71.5C51.0836 72 60.5835 63 60.0835 70.5C59.5835 78 60.0835 89.5 70.5835 86.5C81.0835 83.5 77.5835 86 84.0835 94.5C91.6279 104.366 95.0835 96.5 100.583 93.5C106.083 90.5 112.583 107.5 122.083 104C129.683 101.2 132.583 96.5 133.083 94.5" stroke="#E13C26" stroke-width="5" stroke-linecap="round" stroke-linejoin="round"/>
<path d="M47 68.254C47 68.254 54.3776 63.9044 53.6949 67.2897C53.0122 70.6751 49.8145 80.6924 54.6633 80.4704C59.512 80.2484 74.7619 71.9376 70.777 79.5755C66.7921 87.2134 69.516 95.6143 72.7416 92.6521C75.9671 89.69 81.1851 83.8696 81.7981 87.9002C82.4112 91.9307 81.408 99.4853 86.2637 98.1256C91.1194 96.7659 88.7856 91.9376 93.927 92.3746C99.0683 92.8117 97.0341 102.267 100.531 102.468C104.029 102.669 105.478 95.3784 110.981 95.4964C116.485 95.6143 116.025 104.515 121.076 104.98C126.127 105.444 121.947 97.8481 130 96.197" stroke="#F9D12E" stroke-width="4.03" stroke-miterlimit="10" stroke-linecap="round"/>
</svg>
