<svg width="180" height="180" viewBox="0 0 180 180" fill="none" xmlns="http://www.w3.org/2000/svg">
<path d="M90.2102 84.4147C102.66 88.274 113.12 90.216 113.573 88.7523C114.027 87.2886 104.303 82.9733 91.8535 79.114C79.4042 75.2547 68.9441 73.3126 68.4904 74.7764C68.0366 76.2401 77.7609 80.5553 90.2102 84.4147Z" fill="#B79962"/>
<path d="M105.258 38.5811C109.795 34.6905 93.2305 41.2579 94.211 44.5732C94.211 44.5732 84.3236 45.3916 84.9424 49.5655C84.9424 49.5655 73.0669 53.0314 74.9565 62.0226C74.9565 62.0226 65.8235 64.702 68.8 72.6254C71.7766 80.5487 71.1652 80.2102 71.1652 80.2102C71.1652 80.2102 87.1186 87.066 89.9906 87.7459C96.4223 89.2746 108.089 92.8953 109.516 92.0965C110.943 91.2978 116.562 84.6392 112.236 80.4415C112.236 80.4415 117.456 79.5479 117.2 76.1801C116.945 72.8124 116.097 67.9228 112.471 66.6164C112.471 66.6164 117.774 66.272 117.489 61.3348C117.203 56.3976 112.55 53.2214 112.55 53.2214C112.55 53.2214 100.215 42.9057 105.258 38.5811Z" fill="#0C7B32"/>
<path d="M68.383 75.0353C68.383 75.0353 72.3908 78.14 90.3908 83.5088C108.391 88.8777 113.466 89.0115 113.466 89.0115C113.466 89.0115 76.7575 141.601 72.7906 140.516C68.8236 139.432 68.5012 76.5418 68.383 75.0353Z" fill="#BE8C34"/>
<path d="M71.0256 81.7133L95.2656 112.668" stroke="#9B6D1A" stroke-width="0.37" stroke-miterlimit="10" stroke-linecap="round"/>
<path d="M70.2545 87.7193L92.5539 116.415" stroke="#9B6D1A" stroke-width="0.37" stroke-miterlimit="10" stroke-linecap="round"/>
<path d="M70.8933 94.8637L90.2405 119.573" stroke="#9B6D1A" stroke-width="0.37" stroke-miterlimit="10" stroke-linecap="round"/>
<path d="M70.5447 101.415L87.5109 123.249" stroke="#9B6D1A" stroke-width="0.37" stroke-miterlimit="10" stroke-linecap="round"/>
<path d="M70.4934 108.628L84.7731 126.864" stroke="#9B6D1A" stroke-width="0.37" stroke-miterlimit="10" stroke-linecap="round"/>
<path d="M71.3835 116.772L81.9965 130.427" stroke="#9B6D1A" stroke-width="0.37" stroke-miterlimit="10" stroke-linecap="round"/>
<path d="M93.6491 86.9536L71.1039 119.161" stroke="#9B6D1A" stroke-width="0.37" stroke-miterlimit="10" stroke-linecap="round"/>
<path d="M96.482 90.4048L74.0079 122.761" stroke="#9B6D1A" stroke-width="0.37" stroke-miterlimit="10" stroke-linecap="round"/>
<path d="M99.3749 93.0938L76.4903 125.786" stroke="#9B6D1A" stroke-width="0.37" stroke-miterlimit="10" stroke-linecap="round"/>
<path d="M102.172 96.549L79.4119 129.311" stroke="#9B6D1A" stroke-width="0.37" stroke-miterlimit="10" stroke-linecap="round"/>
<path d="M90.0213 84.9237L70.1794 113.49" stroke="#9B6D1A" stroke-width="0.37" stroke-miterlimit="10" stroke-linecap="round"/>
<path d="M84.5275 84.7407L69.6949 106.103" stroke="#9B6D1A" stroke-width="0.37" stroke-miterlimit="10" stroke-linecap="round"/>
<path d="M80.3819 83.5492L69.8584 98.7058" stroke="#9B6D1A" stroke-width="0.37" stroke-miterlimit="10" stroke-linecap="round"/>
<path d="M76.3458 81.6274L69.2669 91.8108" stroke="#9B6D1A" stroke-width="0.37" stroke-miterlimit="10" stroke-linecap="round"/>
<path d="M99.8963 104.958L86.3419 86.5201" stroke="#9B6D1A" stroke-width="0.37" stroke-miterlimit="10" stroke-linecap="round"/>
<path d="M97.1669 109.258L78.4533 84.3569" stroke="#9B6D1A" stroke-width="0.37" stroke-miterlimit="10" stroke-linecap="round"/>
</svg>
