<svg width="180" height="180" viewBox="0 0 180 180" fill="none" xmlns="http://www.w3.org/2000/svg">
<path d="M144.805 74.7586C144.805 106.998 132.258 128 90.406 128C47.4747 128 36 105.413 36 74.7586C36 74.627 36 74.4954 36 74.3704C36.1579 71.0807 38.2502 69.6266 41.8558 69.2647C44.9221 69.0992 47.9974 69.2669 51.0276 69.7647C46.1259 72.0347 42.6387 74.7652 41.0662 77.7523C45.5995 86.3517 65.9631 92.8325 90.4126 92.8325C114.862 92.8325 135.219 86.3517 139.759 77.7523C138.173 74.7652 134.693 72.0347 129.784 69.7647C132.813 69.2713 135.886 69.108 138.95 69.2779C142.555 69.6397 144.641 71.0741 144.799 74.3836C144.805 74.4954 144.805 74.627 144.805 74.7586Z" fill="#753714"/>
<path d="M90.4063 52C60.3445 52 36.0002 61.9088 36.0002 74.1335C36.0002 74.2059 36.0002 74.2848 36.0002 74.3572C36.0002 74.3572 36.0002 74.4296 36.0002 74.3572C36.0726 77.318 37.5793 80.1406 40.2506 82.7132C48.5013 90.6876 67.8517 96.2736 90.4063 96.2736C112.961 96.2736 132.311 90.681 140.555 82.7198C143.22 80.1537 144.727 77.3311 144.799 74.3704C144.799 74.3704 144.799 74.219 144.799 74.1467C144.806 61.9088 120.448 52 90.4063 52ZM90.4063 92.8325C65.9634 92.8325 45.5998 86.3517 41.0599 77.7522C42.639 74.7651 46.1261 72.0346 51.0279 69.7647C60.2392 65.4485 74.4575 62.6851 90.4063 62.6851C106.355 62.6851 120.573 65.4485 129.785 69.7581C134.693 72.0544 138.174 74.7849 139.746 77.772C135.213 86.3517 114.843 92.8325 90.4063 92.8325Z" fill="#753714"/>
<path d="M140.68 74.1334C140.669 75.3987 140.346 76.6417 139.739 77.7522C138.167 74.7651 134.693 72.0346 129.778 69.7646C120.567 65.4551 106.348 62.6917 90.3994 62.6917C74.4507 62.6917 60.2324 65.4287 51.021 69.7646C46.1193 72.0346 42.6321 74.7651 41.0596 77.7522C40.4531 76.6417 40.13 75.3987 40.1188 74.1334C40.158 72.3617 40.7671 70.6498 41.8558 69.2514C47.626 61.2902 67.1737 55.4344 90.3994 55.4344C113.625 55.4344 133.166 61.2902 138.943 69.2514C140.032 70.6498 140.641 72.3617 140.68 74.1334Z" fill="#5E2C13"/>
<path d="M139.739 77.7521C135.212 86.3515 114.842 92.8324 90.3927 92.8324C65.9432 92.8324 45.5928 86.3515 41.0463 77.7521C42.6254 74.765 46.106 72.0345 51.0143 69.7448C60.2256 65.4287 74.4374 62.6653 90.3861 62.6653C106.335 62.6653 120.56 65.4287 129.771 69.7383C134.693 72.0345 138.173 74.765 139.739 77.7521Z" fill="#E09E3F"/>
<path d="M58.9297 80.0682C59.8003 79.7486 60.7305 79.6236 61.6546 79.7021C62.5787 79.7805 63.4745 80.0605 64.2788 80.5222C69.6543 83.5159 69.8056 85.9635 69.9043 86.5951C69.8701 87.2124 69.6264 87.7996 69.2135 88.2597C71.5558 87.6018 72.1611 85.6279 72.0887 85.1608C71.99 84.5028 71.8387 82.0816 66.4632 79.0879C65.2771 78.3911 63.8926 78.1092 62.5284 78.2868C61.1642 78.4643 59.898 79.0911 58.9297 80.0682Z" fill="#A8641A"/>
<path d="M65.4829 88.286C66.7084 88.5855 67.988 88.5855 69.2135 88.286C69.6264 87.8258 69.8701 87.2387 69.9043 86.6214C69.8056 85.9634 69.6543 83.5421 64.2788 80.5485C63.4745 80.0867 62.5787 79.8067 61.6546 79.7283C60.7305 79.6499 59.8003 79.7749 58.9297 80.0945C58.1548 80.9011 57.657 81.9335 57.5085 83.0421C56.9821 86.8714 60.0219 87.1872 65.4829 88.286Z" fill="#B76F18"/>
<path d="M67.4501 72.2518C67.4896 72.4426 66.4303 73.6269 64.7196 74.4361C64.0617 73.3966 61.2851 69.9358 59.3902 69.8305C59.7738 69.5571 60.1919 69.3359 60.6337 69.1725C62.6471 68.4093 67.3909 71.9557 67.4501 72.2518Z" fill="#D8A675"/>
<path d="M64.7197 74.4361C63.6323 74.9558 62.4373 75.2106 61.2325 75.1796C57.5875 75.0612 56.6927 74.9427 56.3966 74.1334C56.1466 73.4755 57.5283 71.1332 59.3903 69.8304C61.2852 69.9357 64.088 73.3965 64.7197 74.4361Z" fill="#E8B680"/>
<path d="M100.111 70.1002C100.111 70.2976 98.8868 71.3043 97.0709 71.8372C96.6103 70.7121 94.3798 66.8565 92.5244 66.4552C92.9401 66.2411 93.3827 66.084 93.8403 65.988C95.9655 65.5603 100.097 69.8041 100.111 70.1002Z" fill="#D8A675"/>
<path d="M97.071 71.8372C95.9161 72.1799 94.6965 72.2453 93.5115 72.0281C89.9257 71.3701 89.0638 71.0872 88.9059 70.2384C88.7611 69.541 90.4915 67.4487 92.5312 66.4552C94.38 66.8566 96.6105 70.7121 97.071 71.8372Z" fill="#E8B680"/>
<path d="M134.337 78.3706C134.337 78.568 133.199 79.6865 131.423 80.305C130.883 79.2128 128.403 75.5151 126.521 75.2453C126.932 74.9999 127.375 74.8118 127.837 74.6861C129.896 74.1202 134.304 78.0745 134.337 78.3706Z" fill="#D65827"/>
<path d="M131.403 80.2919C130.273 80.713 129.061 80.8618 127.863 80.7262C124.244 80.2788 123.363 80.0682 123.139 79.2524C122.948 78.5944 124.534 76.364 126.501 75.2323C128.403 75.5152 130.883 79.2129 131.403 80.2919Z" fill="#E2632B"/>
<path d="M78.8588 79.9366C79.4444 80.3445 79.9181 83.4171 78.8588 84.0883C77.7995 84.7594 78.1087 81.6538 78.1087 81.6538C78.1087 81.6538 76.8784 85.266 76.0559 84.9436C75.2335 84.6212 76.4047 81.338 76.6744 81.0617C76.9442 80.7853 73.7465 82.6473 73.7992 81.7196C73.8518 80.7919 77.1021 78.7194 78.8588 79.9366Z" fill="#488421"/>
<path d="M109.256 69.8306C111.658 69.8306 113.605 69.106 113.605 68.2121C113.605 67.3182 111.658 66.5935 109.256 66.5935C106.854 66.5935 104.907 67.3182 104.907 68.2121C104.907 69.106 106.854 69.8306 109.256 69.8306Z" fill="#994D2B"/>
<path d="M118.579 72.7255C120.037 72.7255 121.218 72.2865 121.218 71.7451C121.218 71.2037 120.037 70.7648 118.579 70.7648C117.122 70.7648 115.941 71.2037 115.941 71.7451C115.941 72.2865 117.122 72.7255 118.579 72.7255Z" fill="#994D2B"/>
<path d="M112.132 73.8308C112.946 73.8308 113.605 73.5834 113.605 73.2781C113.605 72.9729 112.946 72.7255 112.132 72.7255C111.318 72.7255 110.658 72.9729 110.658 73.2781C110.658 73.5834 111.318 73.8308 112.132 73.8308Z" fill="#994D2B"/>
<path d="M83.6422 87.5426C85.3501 87.5426 86.7346 87.0271 86.7346 86.3912C86.7346 85.7553 85.3501 85.2397 83.6422 85.2397C81.9343 85.2397 80.5498 85.7553 80.5498 86.3912C80.5498 87.0271 81.9343 87.5426 83.6422 87.5426Z" fill="#994D2B"/>
<path d="M90.2743 89.6019C91.3135 89.6019 92.156 89.2896 92.156 88.9045C92.156 88.5193 91.3135 88.207 90.2743 88.207C89.235 88.207 88.3925 88.5193 88.3925 88.9045C88.3925 89.2896 89.235 89.6019 90.2743 89.6019Z" fill="#994D2B"/>
<path d="M85.6885 90.3849C86.2699 90.3849 86.7412 90.2111 86.7412 89.9967C86.7412 89.7823 86.2699 89.6085 85.6885 89.6085C85.1071 89.6085 84.6357 89.7823 84.6357 89.9967C84.6357 90.2111 85.1071 90.3849 85.6885 90.3849Z" fill="#994D2B"/>
<path d="M85.3464 67.975C81.3987 64.5011 80.3328 75.7586 80.2736 76.3442C80.2144 76.9298 84.0305 83.2066 93.0774 84.062C102.124 84.9173 107.644 85.8318 107.993 83.404C108.862 77.4824 90.1758 72.2122 85.3464 67.975Z" fill="#B76F18"/>
<path d="M84.0304 67.3105C81.7933 67.3105 80.2208 71.9557 84.8133 73.39C89.4058 74.8244 106.94 84.9897 107.717 84.0883C108.493 83.1869 109.204 80.088 98.0513 74.6796C86.899 69.2712 85.8397 67.3237 84.0304 67.3105Z" fill="#A8641A"/>
<path d="M109.144 79.4168C108.855 80.0748 110.381 83.2856 111.776 83.5487C113.171 83.8119 111.006 80.8182 111.006 80.8182C111.006 80.8182 114.48 83.9369 115.046 83.3053C115.612 82.6737 112.414 79.8576 111.974 79.68C111.533 79.5023 115.737 80.1274 115.112 79.2523C114.487 78.3772 110.006 77.5219 109.144 79.4168Z" fill="#488421"/>
</svg>
