<svg width="180" height="180" viewBox="0 0 180 180" fill="none" xmlns="http://www.w3.org/2000/svg">
<path d="M101.903 58.5953C116.149 58.8198 116.574 64.1259 117.898 67.423C119.144 70.5251 121.201 74.9095 118.855 78.6911C114.536 85.6576 100.922 91.5723 88.5073 96.5593C78.9291 100.436 64.163 108.82 58.5024 109.836C51.6363 111.089 30.536 115.627 29.3601 100.158C28.4738 88.4997 35.0917 84.3636 46.3421 79.607C54.2303 76.2685 92.8503 58.483 101.903 58.5953Z" fill="#CEA847"/>
<path d="M36.0314 88.9902C36.1864 88.7567 36.3866 88.5567 36.6202 88.4019C36.8538 88.2471 37.116 88.1407 37.3914 88.0889C37.6668 88.0371 37.9497 88.0411 38.2236 88.1005C38.4974 88.1599 38.7566 88.2735 38.9858 88.4348C39.8485 89.1261 41.9993 90.6683 41.2489 91.6846C40.4985 92.7009 37.1127 92.76 36.2264 92.0746C35.8033 91.6896 35.5459 91.1556 35.5084 90.5847C35.471 90.0139 35.6563 89.4508 36.0255 89.0138L36.0314 88.9902Z" fill="#664328"/>
<path d="M39.482 87.6607C35.6768 85.2381 30.0279 91.7968 29.508 95.0703C29.1062 97.6643 29.567 101.57 30.0988 103.697C30.4482 105.185 31.279 106.517 32.4624 107.485C32.8405 107.674 33.2128 102.114 37.2899 102.852C38.8616 103.148 43.5591 90.2546 39.482 87.6607Z" fill="#C09C41"/>
<path d="M45.5739 103.319C44.4745 102.006 42.947 101.123 41.2605 100.826C38.6488 100.489 33.9099 102.397 35.4344 105.233C36.9589 108.07 43.559 110.634 47.8429 108.82C50.6259 107.638 45.5739 103.319 45.5739 103.319Z" fill="#CB7329"/>
<path d="M40.1852 98.5979C42.3596 97.8593 47.4708 98.5624 48.0085 100.258C48.5462 101.954 48.4339 105.978 46.2358 106.723C44.0377 107.467 37.7508 104.719 37.2131 103.018C36.6754 101.316 37.993 99.3483 40.1675 98.6097L40.1852 98.5979Z" fill="#664328"/>
<path d="M34.9086 98.1311C36.6222 97.5402 38.3475 98.1311 38.7552 99.4192C39.163 100.707 41.3374 103.703 39.612 104.294C37.8866 104.885 32.9292 102.829 32.5451 101.54C32.161 100.252 33.1951 98.722 34.9086 98.1429V98.1311Z" fill="#664328"/>
<path d="M32.7814 95.6553C33.0187 95.4444 33.296 95.2834 33.5969 95.182C33.8977 95.0806 34.2159 95.0408 34.5324 95.0651C34.849 95.0893 35.1574 95.1771 35.4393 95.3232C35.7212 95.4693 35.9707 95.6707 36.1731 95.9153C36.9176 96.9257 38.8261 99.2479 37.6916 100.122C36.5571 100.997 32.8346 100.075 32.0901 99.0647C31.7405 98.5198 31.6161 97.8606 31.7428 97.2258C31.8695 96.591 32.2376 96.0301 32.7696 95.6612L32.7814 95.6553Z" fill="#664328"/>
<path d="M57.0842 100.613C55.5136 99.9281 53.7519 99.8193 52.109 100.306C49.6273 101.168 46.2356 104.985 48.8592 106.847C51.4827 108.708 58.5437 108.064 61.5572 104.542C63.5307 102.226 57.0842 100.613 57.0842 100.613Z" fill="#CB7329"/>
<path d="M58.8688 98.1252C59.1554 97.9115 59.4817 97.7571 59.8287 97.671C60.1757 97.585 60.5363 97.569 60.8896 97.624C61.2428 97.6791 61.5815 97.804 61.8859 97.9915C62.1903 98.179 62.4542 98.4253 62.6622 98.716C63.4127 99.8978 64.0863 101.34 63.3595 102.781C61.6991 106.096 58.5556 103.118 57.8052 101.913C57.4585 101.271 57.3744 100.52 57.5706 99.8182C57.7668 99.1161 58.228 98.5175 58.857 98.1488L58.8688 98.1252Z" fill="#664328"/>
<path d="M66.4201 95.3303C66.6774 95.5781 66.8825 95.8748 67.0235 96.203C67.1646 96.5312 67.2386 96.8843 67.2414 97.2415C67.2441 97.5987 67.1755 97.9528 67.0396 98.2832C66.9036 98.6135 66.7031 98.9133 66.4497 99.1651C65.3861 100.099 62.9576 102.468 61.8644 101.275C60.7713 100.081 61.4567 95.8207 62.5203 94.8812C63.0984 94.4352 63.8272 94.2314 64.5528 94.313C65.2783 94.3946 65.9437 94.7552 66.4083 95.3185L66.4201 95.3303Z" fill="#664328"/>
<path d="M35.4993 90.9164C35.7777 90.8871 36.059 90.9137 36.3269 90.9945C36.5949 91.0753 36.844 91.2087 37.0597 91.387C37.2754 91.5653 37.4534 91.7848 37.5832 92.0328C37.713 92.2807 37.792 92.552 37.8156 92.8309C37.8156 93.9417 38.0342 96.5889 36.7756 96.6421C35.5171 96.6952 33.2894 94.1367 33.2658 93.0318C33.2903 92.4607 33.5357 91.9215 33.9502 91.5279C34.3647 91.1344 34.9159 90.9172 35.4875 90.9223L35.4993 90.9164Z" fill="#563722"/>
<path d="M39.0448 93.2327C39.0448 93.2327 37.2308 92.0509 36.2677 93.0495C35.3045 94.0481 35.0859 98.2138 37.2249 100.14C39.3639 102.066 41.8751 98.3674 43.0392 97.3039C44.2032 96.2403 39.0448 93.2327 39.0448 93.2327Z" fill="#C9632B"/>
<path d="M47.8491 97.4634C47.8491 97.4634 46.9686 95.5312 45.3201 95.4721C43.6715 95.413 40.4276 97.747 41.1248 100.347C41.8221 102.947 46.8564 102.433 48.7413 102.58C50.6262 102.728 47.8491 97.4634 47.8491 97.4634Z" fill="#CB7329"/>
<path d="M57.8525 93.7586C57.8525 93.7586 56.972 91.8264 55.3235 91.7673C53.6749 91.7082 50.431 94.0363 51.1282 96.6362C51.8255 99.236 56.8598 98.722 58.7506 98.8756C60.6414 99.0292 57.8525 93.7586 57.8525 93.7586Z" fill="#CB7329"/>
<path d="M39.553 90.6092C41.2547 89.5102 43.2991 89.6992 44.1264 91.0405C44.9536 92.3818 48.1975 95.1767 46.4899 96.2639C44.7823 97.3511 38.8085 96.3703 37.9576 95.0349C37.1067 93.6995 37.8394 91.7201 39.5352 90.621L39.553 90.6092Z" fill="#664328"/>
<path d="M39.4112 87.6725C39.594 87.3995 39.8294 87.1657 40.1036 86.9847C40.3777 86.8036 40.6852 86.6789 41.008 86.6178C41.3308 86.5568 41.6626 86.5606 41.9839 86.6291C42.3052 86.6975 42.6097 86.8293 42.8796 87.0166C43.9019 87.832 46.4249 89.646 45.5445 90.8278C44.6641 92.0096 40.6638 92.0923 39.6357 91.2828C39.139 90.831 38.8369 90.2042 38.7928 89.5342C38.7487 88.8642 38.9661 88.2032 39.3994 87.6902L39.4112 87.6725Z" fill="#664328"/>
<path d="M45.0599 91.0464C45.0599 91.0464 43.6241 90.1069 42.85 90.8987C42.076 91.6905 41.8987 95.0349 43.6182 96.5239C45.3376 98.0129 47.3112 95.1176 48.2389 94.2667C49.1665 93.4159 45.0599 91.0464 45.0599 91.0464Z" fill="#C9632B"/>
<path d="M43.6064 88.9606C44.9595 88.0802 46.5608 88.2339 47.2462 89.3034C47.9316 90.3729 50.4842 92.5709 49.1252 93.4395C47.7662 94.3081 42.9919 93.5222 42.336 92.4587C41.6801 91.3951 42.2414 89.8233 43.5887 88.9488L43.6064 88.9606Z" fill="#664328"/>
<path d="M48.7884 92.5354C50.9628 92.1218 52.96 93.1558 53.2377 94.8458C53.5154 96.5357 54.4195 100.53 52.245 100.944C50.0706 101.357 45.633 98.0306 45.3494 96.3466C45.0658 94.6626 46.5962 92.9549 48.7647 92.5413L48.7884 92.5354Z" fill="#563722"/>
<path d="M55.4593 96.2403C57.6337 95.8326 59.6309 96.8666 59.9086 98.5565C60.1863 100.246 61.0904 104.235 58.9159 104.648C56.7415 105.062 52.304 101.73 52.044 100.051C51.784 98.3733 53.2908 96.6598 55.4593 96.2462V96.2403Z" fill="#563722"/>
<path d="M63.0403 87.4539C63.0403 87.4539 62.1658 85.5276 60.5173 85.4685C58.8687 85.4095 55.6248 87.7375 56.3161 90.3374C57.0074 92.9373 62.0536 92.4232 63.9385 92.5768C65.8234 92.7305 63.0403 87.4539 63.0403 87.4539Z" fill="#CB7329"/>
<path d="M60.6415 87.3889C62.4792 88.6238 63.1705 90.7628 62.1837 92.1632C61.197 93.5636 59.0521 97.0498 57.1967 95.803C55.3413 94.5562 54.5318 89.0906 55.5127 87.6902C56.4935 86.2898 58.7803 86.148 60.6179 87.377L60.6415 87.3889Z" fill="#563722"/>
<path d="M64.2696 91.3773C66.1131 92.6122 66.8044 94.7453 65.8177 96.1516C64.8309 97.5579 62.6801 101.032 60.8306 99.7914C58.9812 98.5506 58.1658 93.0731 59.1348 91.6846C60.1038 90.296 62.4024 90.1483 64.24 91.3773H64.2696Z" fill="#563722"/>
<path d="M48.883 91.7378C49.0898 90.1365 50.2125 88.9725 51.4533 89.1438C52.6942 89.3152 56.0385 88.7125 55.8554 90.3256C55.6722 91.9387 52.0442 95.1176 50.7974 94.9522C49.5507 94.7867 48.6998 93.3568 48.8771 91.7555L48.883 91.7378Z" fill="#664328"/>
<path d="M45.0836 84.5586C46.8562 83.2232 49.0956 83.2704 50.1001 84.659C51.1046 86.0476 53.6868 89.2206 51.9082 90.5678C50.1297 91.915 44.6877 90.8928 43.6891 89.5042C42.6905 88.1157 43.2991 85.9058 45.0658 84.594L45.0836 84.5586Z" fill="#563722"/>
<path d="M50.0352 99.431C50.308 99.357 50.593 99.3387 50.8731 99.3772C51.1532 99.4158 51.4226 99.5105 51.6653 99.6555C51.908 99.8006 52.119 99.9931 52.2856 100.222C52.4522 100.45 52.571 100.71 52.635 100.985C52.8182 102.084 53.3914 104.672 52.1505 104.908C50.9097 105.145 48.3157 102.911 48.1325 101.842C48.075 101.273 48.2398 100.705 48.5923 100.256C48.9449 99.8061 49.4577 99.5106 50.0233 99.431H50.0352Z" fill="#563722"/>
<path d="M48.2802 101.883C48.6318 101.818 48.9928 101.824 49.3421 101.9C49.6914 101.976 50.0219 102.122 50.3143 102.328C50.6066 102.533 50.8548 102.796 51.0443 103.099C51.2338 103.402 51.3608 103.74 51.4178 104.093C51.5537 105.505 51.5242 107.083 50.236 108.046C47.2816 110.274 45.7867 106.208 45.6508 104.796C45.626 104.067 45.885 103.357 46.3731 102.815C46.8613 102.272 47.5407 101.941 48.2684 101.889L48.2802 101.883Z" fill="#664328"/>
<path d="M56.2807 102.746C56.4012 103.082 56.4533 103.439 56.4339 103.795C56.4145 104.152 56.3239 104.501 56.1675 104.822C56.0112 105.143 55.7921 105.429 55.5234 105.664C55.2546 105.9 54.9415 106.078 54.6026 106.191C53.2317 106.551 50.0055 107.591 49.5564 106.037C49.1074 104.483 51.6245 100.967 52.9954 100.601C53.7117 100.463 54.4538 100.607 55.0662 101.003C55.6786 101.4 56.1138 102.018 56.2807 102.728V102.746Z" fill="#664328"/>
<path d="M33.1833 86.5439C30.5894 89.1438 28.4977 97.5934 29.1063 97.6643C29.7149 97.7352 33.3488 86.8807 39.4821 87.6607C47.589 88.6888 45.3909 89.1438 57.2735 89.8824C65.15 90.3728 109.62 78.0116 113.608 72.4632C123.984 58.0044 104.751 58.3825 99.1552 58.0044C93.5595 57.6262 37.8927 81.8346 33.1833 86.5439Z" fill="#EDC55D"/>
<path d="M120.279 76.9126C119.954 77.9348 118.365 81.2437 112.497 85.0667C95.2906 96.2462 57.8229 114.227 51.3409 110.634L51.8077 110.362C54.1122 108.986 64.0212 102.645 62.0891 96.9257C59.9087 90.4615 54.3072 90.2547 55.0517 84.3222C55.3885 81.6042 57.557 79.217 60.8364 77.1194C72.4413 69.692 97.8787 65.8926 105.064 64.3209C115.073 62.0992 115.446 62.4655 116.184 63.5823C116.923 64.6991 121.549 72.8946 120.279 76.9126Z" fill="#EDC55D"/>
<path d="M51.8079 110.362C51.0115 110.401 50.2174 110.25 49.4917 109.919C49.4917 109.919 62.0892 103.083 59.9739 97.0025C57.8585 90.9224 52.3811 90.6919 53.1019 85.0963C53.5037 82.0119 56.4936 79.3647 60.8366 77.1194C57.5572 79.217 55.3886 81.6042 55.0518 84.3222C54.3073 90.231 59.9089 90.4615 62.0892 96.9257C64.0214 102.645 54.1123 108.986 51.8079 110.362Z" fill="#D3A93F"/>
<path opacity="0.9" d="M81.5882 63.8187C81.5882 63.8187 55.4712 73.3673 54.3308 75.5004C53.1904 77.6334 61.9178 75.8608 66.2666 87.1348C70.6155 98.4088 69.4515 107.491 72.8136 108.696C76.1757 109.901 73.5522 108.59 78.7224 109.429C83.8926 110.268 96.2775 119.356 104.928 110.362C113.578 101.369 120.049 90.6092 110.145 86.538C100.242 82.4668 110.612 68.3862 101.719 66.5308C92.8267 64.6754 89.9314 59.2511 81.5882 63.8187Z" fill="#C64224"/>
<path d="M77.2865 74.6849C77.2865 74.6849 82.699 72.1501 85.9193 72.1205C87.6919 72.1205 85.2575 72.7587 82.4744 73.5741C80.1227 74.2654 77.2865 75.0572 77.2865 74.6849Z" fill="#F0C52E"/>
<path d="M79.9809 71.4351C79.9809 71.4351 85.6298 74.7204 87.0715 77.6098C87.8456 79.1757 85.9488 77.4089 83.6858 75.4177C81.7536 73.7277 79.5023 71.6656 79.9809 71.4351Z" fill="#F0C52E"/>
<path d="M73.4342 72.6996C73.4342 72.6996 79.2248 71.2106 82.3919 71.7778C84.1114 72.0851 81.6179 72.2801 78.7344 72.5696C76.2704 72.8119 73.3633 73.066 73.4342 72.6996Z" fill="#F0C52E"/>
<path d="M75.4312 75.8017C75.4312 75.8017 80.8673 73.255 84.1053 73.2255C85.878 73.2255 83.4376 73.8695 80.6428 74.6849C78.2792 75.3822 75.4312 76.174 75.4312 75.8017Z" fill="#F0C52E"/>
<path d="M75.1653 71.8073C75.1653 71.8073 80.8141 75.0926 82.2559 77.9821C83.0358 79.5479 81.1391 77.7812 78.8701 75.784C76.9379 74.0941 74.6808 72.0378 75.1653 71.8073Z" fill="#F0C52E"/>
<path d="M75.4312 79.867C75.4312 79.867 80.8673 77.3203 84.1053 77.2907C85.878 77.2907 83.4376 77.9348 80.6428 78.7502C78.2792 79.4593 75.4312 80.2511 75.4312 79.867Z" fill="#F0C52E"/>
<path d="M75.1653 75.8845C75.1653 75.8845 80.8141 79.1698 82.2559 82.0592C83.0358 83.625 81.1391 81.8583 78.8701 79.8611C76.9379 78.1712 74.6808 76.1149 75.1653 75.8845Z" fill="#F0C52E"/>
<path d="M71.5786 73.8105C71.5786 73.8105 77.3633 72.3214 80.5364 72.8887C82.2558 73.1959 79.7682 73.3909 76.8847 73.6805C74.4385 73.9227 71.5077 74.1768 71.5786 73.8105Z" fill="#F0C52E"/>
<path d="M78.0428 73.2018C78.0428 73.2018 83.4494 70.667 86.6756 70.6374C88.4482 70.6374 86.0079 71.2756 83.2308 72.091C80.8613 72.7764 78.0428 73.5741 78.0428 73.2018Z" fill="#F0C52E"/>
<path d="M83.6918 70.3242C83.6918 70.3242 89.3347 73.6095 90.7823 76.499C91.5564 78.0648 89.6656 76.2981 87.3966 74.3068C85.4644 72.611 83.2072 70.5547 83.6918 70.3242Z" fill="#F0C52E"/>
<path d="M69.4515 79.1697C69.4515 79.1697 75.9512 78.8034 78.7638 80.4224C80.2706 81.3028 77.718 80.8715 74.7281 80.4579C72.1932 80.1033 69.1797 79.6306 69.4515 79.1697Z" fill="#F0C52E"/>
<path d="M64.76 73.8045C64.76 73.8045 71.2597 74.1827 73.8654 76.109C75.2717 77.1489 72.7782 76.434 69.8534 75.6835C67.4071 75.0454 64.4527 74.23 64.76 73.8045Z" fill="#F0C52E"/>
<path d="M74.1726 71.2165C74.1726 71.2165 79.9573 69.7274 83.1304 70.2947C84.8498 70.6019 82.3622 70.7969 79.4787 71.0865C77.0325 71.3287 74.1017 71.5946 74.1726 71.2165Z" fill="#F0C52E"/>
<path d="M72.5419 73.6509C72.5419 73.6509 75.6086 69.9165 78.2675 68.5812C79.7093 67.8603 78.0725 69.237 76.2231 70.862C74.6573 72.2387 72.7546 73.8695 72.5419 73.6509Z" fill="#F0C52E"/>
<path d="M70.072 71.3583C70.072 71.3583 76.613 71.0333 79.4256 72.1855C80.9501 72.8059 78.3857 72.5164 75.3781 72.2446C72.8314 72.0082 69.8002 71.6951 70.072 71.3583Z" fill="#F0C52E"/>
<path d="M66.2725 74.4013C66.2725 74.4013 71.9154 77.6866 73.363 80.576C74.1371 82.1419 72.2463 80.3751 69.9773 78.378C68.0451 76.688 65.7879 74.6318 66.2725 74.4013Z" fill="#F0C52E"/>
<path d="M62.68 76.4044C62.68 76.4044 68.4647 74.9154 71.6378 75.4826C73.3572 75.7899 70.8637 75.9849 67.9802 76.2744C65.5458 76.5167 62.615 76.7708 62.68 76.4044Z" fill="#F0C52E"/>
<path d="M63.6491 76.2448C63.6491 76.2448 66.7098 72.5105 69.3747 71.1751C70.8106 70.4542 69.1797 71.831 67.3303 73.4559C65.7644 74.8326 63.8618 76.4635 63.6491 76.2448Z" fill="#F0C52E"/>
<path d="M61.1792 73.9582C61.1792 73.9582 67.7143 73.6332 70.5328 74.7854C72.0573 75.4058 69.4928 75.1163 66.4853 74.8445C63.9386 74.6022 60.9073 74.2891 61.1792 73.9582Z" fill="#F0C52E"/>
<path d="M68.2226 74.0232C68.2226 74.0232 72.1874 70.7674 75.1418 69.822C76.7431 69.3079 74.7873 70.4129 72.5538 71.7896C70.6629 72.9241 68.3703 74.2713 68.2226 74.0232Z" fill="#F0C52E"/>
<path d="M80.885 69.8515C80.885 69.8515 85.4171 68.1853 88.3892 68.3862C89.9964 68.4984 87.8869 68.853 85.4702 69.3198C83.4258 69.7097 80.9559 70.147 80.885 69.8515Z" fill="#F0C52E"/>
<path d="M83.8514 66.8676C83.8514 66.8676 88.3834 65.2072 91.3556 65.4022C92.9628 65.5145 90.8533 65.869 88.4366 66.3358C86.3922 66.7435 83.9518 67.1867 83.8514 66.8676Z" fill="#F0C52E"/>
<path d="M80.4477 71.0038C80.4477 71.0038 86.9888 70.6788 89.8073 71.831C91.3317 72.4514 88.7614 72.1678 85.7597 71.8901C83.213 71.6419 80.1759 71.3228 80.4477 71.0038Z" fill="#F0C52E"/>
<path d="M77.8597 70.6906C77.8597 70.6906 81.8245 67.4585 84.7789 66.4776C86.3802 65.9635 84.4184 67.098 82.1908 68.4452C80.3 69.5915 78.0074 70.9388 77.8597 70.6906Z" fill="#F0C52E"/>
<path d="M65.4511 71.3819C65.4511 71.3819 71.2476 69.9579 74.4207 70.5606C76.1342 70.8856 73.6407 71.051 70.7572 71.311C68.311 71.5296 65.3743 71.7483 65.4511 71.3819Z" fill="#F0C52E"/>
<path d="M62.485 75.459C62.485 75.459 68.2874 74.035 71.4545 74.6377C73.1681 74.9627 70.6746 75.1281 67.7911 75.3881C65.3448 75.6008 62.4141 75.8254 62.485 75.459Z" fill="#F0C52E"/>
<path d="M63.5958 78.053C63.5958 78.053 69.3982 76.629 72.5654 77.2317C74.2789 77.5566 71.7854 77.7221 68.9019 77.9821C66.4557 78.2007 63.5249 78.4193 63.5958 78.053Z" fill="#F0C52E"/>
<path d="M68.0451 75.459C68.0451 75.459 73.8417 74.035 77.0147 74.6377C78.7282 74.9627 76.2347 75.1281 73.3512 75.3881C70.905 75.6008 67.9978 75.8254 68.0451 75.459Z" fill="#F0C52E"/>
<path d="M63.4481 71.1042C63.4481 71.1042 69.4219 71.2047 72.3114 72.5991C73.9067 73.3673 71.4487 72.8769 68.5888 72.3864C66.1721 71.9728 63.2709 71.4351 63.4481 71.1042Z" fill="#F0C52E"/>
<path d="M66.6389 69.2902C66.6389 69.2902 72.6127 69.3966 75.5021 70.791C77.0798 71.5474 74.6217 71.0687 71.7678 70.5783C69.3688 70.1647 66.4735 69.627 66.6389 69.2902Z" fill="#F0C52E"/>
<path d="M70.3614 69.7688C70.3614 69.7688 75.047 67.683 78.1492 67.553C79.8154 67.4585 77.6115 68.0493 75.0884 68.7584C72.9731 69.3552 70.4086 70.0465 70.3614 69.7688Z" fill="#F0C52E"/>
<path d="M85.4704 70.1352C85.4704 70.1352 91.4205 69.7629 94.4577 70.5429C96.1003 70.9683 93.6127 70.8088 90.7233 70.6729C88.2711 70.5547 85.3404 70.4129 85.4704 70.1352Z" fill="#F0C52E"/>
<path d="M82.5336 67.8307C82.5336 67.8307 88.4779 68.2562 91.2609 69.432C92.7677 70.0702 90.3628 69.5797 87.5561 69.0597C85.1808 68.6402 82.3445 68.0493 82.5336 67.8307Z" fill="#F0C52E"/>
<path d="M89.9195 66.2767C89.9195 66.2767 94.0852 69.9106 94.4397 72.2269C94.6288 73.4795 93.4588 71.8133 92.0171 69.8929C90.794 68.2443 89.3877 66.2767 89.9195 66.2767Z" fill="#F0C52E"/>
<path d="M81.9665 65.7922C81.9665 65.7922 88.218 67.1985 90.4634 68.6816C91.6806 69.4793 89.3702 68.6461 86.6404 67.7125C84.33 66.9208 81.5883 65.9517 81.9665 65.7922Z" fill="#F0C52E"/>
<path d="M89.506 67.2753C89.506 67.2753 94.3512 66.0581 97.4533 66.1467C99.1314 66.194 96.9038 66.4776 94.3453 66.8321C92.1768 67.1394 89.5592 67.4585 89.506 67.2753Z" fill="#F0C52E"/>
<path d="M83.5498 64.9354C83.5498 64.9354 88.5368 64.705 91.5622 65.4081C93.1989 65.7863 90.9713 65.6208 88.3773 65.4613C86.1911 65.3313 83.5616 65.1481 83.5498 64.9354Z" fill="#F0C52E"/>
<path d="M76.5067 66.0463C76.5067 66.0463 81.4938 65.8158 84.5191 66.519C86.1558 66.903 83.9282 66.7317 81.3342 66.5781C79.148 66.4421 76.5185 66.2767 76.5067 66.0463Z" fill="#F0C52E"/>
<path d="M75.0235 68.2739C75.0235 68.2739 80.0165 68.0375 83.0359 68.7407C84.6726 69.1248 82.445 68.9534 79.851 68.7998C77.6707 68.6402 75.0354 68.4807 75.0235 68.2739Z" fill="#F0C52E"/>
<path d="M132.292 66.0344C146.544 66.2531 146.963 71.5592 148.293 74.8622C149.533 77.9584 151.59 82.3427 149.244 86.1303C144.925 93.0968 131.311 99.0056 118.896 103.999C109.318 107.845 94.5579 116.218 88.8913 117.252C82.0253 118.499 60.9072 123.043 59.7255 107.567C58.8392 95.9153 65.4629 91.7791 76.7133 87.0166C84.6252 83.6781 123.245 65.8926 132.292 66.0344Z" fill="#CEA847"/>
<path d="M66.4203 96.4116C66.5754 96.1783 66.7755 95.9784 67.0089 95.8235C67.2422 95.6686 67.5042 95.5619 67.7794 95.5096C68.0546 95.4573 68.3375 95.4605 68.6114 95.519C68.8854 95.5775 69.1449 95.6901 69.3747 95.8503C70.2492 96.5416 72.4059 98.0838 71.6437 99.0942C70.8814 100.105 67.5075 100.17 66.6212 99.4783C66.1955 99.0939 65.9359 98.5591 65.8973 97.9868C65.8587 97.4145 66.0441 96.8497 66.4144 96.4116H66.4203Z" fill="#664328"/>
<path d="M69.877 95.0703C66.0717 92.6477 60.4229 99.2065 59.897 102.486C59.4952 105.08 59.9561 108.986 60.4879 111.107C60.8314 112.598 61.6633 113.931 62.8514 114.894C63.2355 115.083 63.6019 109.523 67.6789 110.268C69.2566 110.557 73.9541 97.6643 69.877 95.0703Z" fill="#C09C41"/>
<path d="M75.963 110.729C74.8645 109.413 73.3369 108.528 71.6496 108.229C69.0379 107.898 64.299 109.801 65.8235 112.637C67.348 115.473 73.954 118.044 78.232 116.23C80.9973 115.042 75.963 110.729 75.963 110.729Z" fill="#CB7329"/>
<path d="M70.5801 106.013C72.725 105.275 77.8597 105.972 78.3974 107.674C78.9351 109.376 78.8229 113.394 76.6248 114.138C74.4267 114.883 68.1279 112.129 67.5902 110.433C67.0525 108.737 68.3761 106.758 70.5446 106.019L70.5801 106.013Z" fill="#664328"/>
<path d="M65.2917 105.547C67.0111 104.956 68.7306 105.547 69.1442 106.829C69.5578 108.111 71.7205 111.119 69.9951 111.704C68.2697 112.289 63.3241 110.244 62.9045 108.95C62.485 107.656 63.5545 106.138 65.268 105.553L65.2917 105.547Z" fill="#664328"/>
<path d="M63.1704 103.065C63.4077 102.854 63.685 102.693 63.9859 102.592C64.2867 102.49 64.6049 102.45 64.9215 102.475C65.238 102.499 65.5464 102.587 65.8283 102.733C66.1102 102.879 66.3597 103.08 66.5621 103.325C67.3066 104.335 69.2151 106.663 68.0866 107.538C66.958 108.412 63.2236 107.491 62.4791 106.474C62.1314 105.93 62.0079 105.272 62.1346 104.639C62.2613 104.005 62.6283 103.445 63.1586 103.077L63.1704 103.065Z" fill="#664328"/>
<path d="M87.4969 108.028C85.9265 107.344 84.1655 107.233 82.5217 107.715C80.0341 108.584 76.6129 112.401 79.2718 114.256C81.9308 116.112 88.9505 115.479 91.964 111.952C93.9198 109.641 87.4969 108.028 87.4969 108.028Z" fill="#CB7329"/>
<path d="M89.2696 105.541C89.5554 105.326 89.8812 105.171 90.2279 105.085C90.5745 104.999 90.9349 104.983 91.2879 105.038C91.6409 105.093 91.9793 105.218 92.2831 105.406C92.587 105.594 92.8502 105.84 93.0571 106.132C93.8134 107.313 94.4811 108.761 93.7603 110.203C92.094 113.512 88.9564 110.534 88.2001 109.334C87.8491 108.688 87.7645 107.93 87.9643 107.223C88.1641 106.515 88.6325 105.914 89.2696 105.547V105.541Z" fill="#664328"/>
<path d="M96.8092 102.746C97.8906 103.928 97.9083 105.641 96.8092 106.575C95.7102 107.508 93.3171 109.878 92.224 108.69C91.1309 107.502 91.8163 103.224 92.8799 102.291C93.4592 101.847 94.1882 101.645 94.9133 101.728C95.6385 101.81 96.3033 102.171 96.7679 102.734L96.8092 102.746Z" fill="#664328"/>
<path d="M65.8709 98.332C66.1484 98.3027 66.429 98.3291 66.6962 98.4096C66.9634 98.4901 67.2119 98.6231 67.4271 98.8008C67.6422 98.9786 67.8197 99.1975 67.9492 99.4447C68.0787 99.6919 68.1576 99.9625 68.1812 100.241C68.1812 101.351 68.3999 103.999 67.1413 104.058C65.8827 104.117 63.661 101.552 63.6314 100.441C63.6559 99.8704 63.9013 99.3312 64.3159 98.9376C64.7304 98.544 65.2816 98.3269 65.8532 98.332H65.8709Z" fill="#563722"/>
<path d="M69.4456 100.648C69.4456 100.648 67.6375 99.4665 66.6685 100.459C65.6994 101.452 65.4867 105.629 67.6316 107.55C69.7765 109.47 72.2759 105.777 73.44 104.714C74.604 103.65 69.4456 100.648 69.4456 100.648Z" fill="#C9632B"/>
<path d="M78.2379 104.873C78.2379 104.873 77.3575 102.947 75.709 102.911C74.0604 102.876 70.8165 105.157 71.5433 107.757C72.27 110.356 77.2748 109.842 79.1656 109.996C81.0564 110.15 78.2379 104.873 78.2379 104.873Z" fill="#CB7329"/>
<path d="M88.2473 101.168C88.2473 101.168 87.3669 99.242 85.7243 99.1829C84.0816 99.1238 80.8318 101.452 81.529 104.052C82.2263 106.652 87.2606 106.138 89.1455 106.291C91.0304 106.445 88.2473 101.168 88.2473 101.168Z" fill="#CB7329"/>
<path d="M69.9418 98.0247C71.6435 96.9198 73.6939 97.1148 74.5152 98.4502C75.3366 99.7856 78.5923 102.586 76.8788 103.674C75.1652 104.761 69.1973 103.786 68.3464 102.445C67.4956 101.103 68.2283 99.1356 69.9241 98.0366L69.9418 98.0247Z" fill="#664328"/>
<path d="M69.8061 95.088C69.9873 94.814 70.2216 94.5791 70.4952 94.3972C70.7688 94.2153 71.076 94.09 71.3988 94.0289C71.7216 93.9677 72.0534 93.9719 72.3746 94.0412C72.6957 94.1105 72.9997 94.2434 73.2686 94.4322C74.2908 95.2417 76.8139 97.0557 75.9394 98.2374C75.0649 99.4192 71.0528 99.5078 70.0306 98.6924C69.5339 98.2406 69.2317 97.6138 69.1877 96.9438C69.1436 96.2738 69.361 95.6128 69.7942 95.0999L69.8061 95.088Z" fill="#664328"/>
<path d="M75.4548 98.4561C75.4548 98.4561 74.013 97.5166 73.2449 98.3143C72.4767 99.112 72.2877 102.45 74.0071 103.939C75.7266 105.428 77.706 102.527 78.6337 101.682C79.5614 100.837 75.4548 98.4561 75.4548 98.4561Z" fill="#C9632B"/>
<path d="M73.9954 96.3703C75.3485 95.4958 76.9498 95.6494 77.6352 96.713C78.3206 97.7766 80.8732 99.9865 79.5142 100.849C78.1551 101.712 73.3867 100.956 72.725 99.8919C72.0632 98.8283 72.6304 97.2566 73.9835 96.3821L73.9954 96.3703Z" fill="#664328"/>
<path d="M79.1833 99.9569C81.3578 99.5433 83.3195 100.577 83.6327 102.267C83.9458 103.957 84.8144 107.946 82.64 108.359C80.4655 108.773 76.0221 105.452 75.7385 103.762C75.4549 102.072 76.9853 100.371 79.1597 99.9569H79.1833Z" fill="#563722"/>
<path d="M85.8543 103.656C88.0287 103.242 89.9905 104.247 90.3036 105.966C90.6168 107.686 91.4854 111.645 89.3109 112.064C87.1365 112.484 82.6931 109.151 82.4095 107.461C82.1258 105.771 83.6562 104.093 85.8307 103.662L85.8543 103.656Z" fill="#563722"/>
<path d="M93.4353 94.8694C93.4353 94.8694 92.5549 92.9372 90.9064 92.8781C89.2578 92.8191 86.0139 95.1471 86.7111 97.7529C87.4084 100.359 92.4427 99.8328 94.3276 99.9864C96.2125 100.14 93.4353 94.8694 93.4353 94.8694Z" fill="#CB7329"/>
<path d="M91.0423 94.8044C92.8799 96.0394 93.5712 98.1725 92.5904 99.5728C91.6095 100.973 89.4528 104.459 87.6033 103.219C85.7539 101.978 84.9325 96.5003 85.9193 95.0999C86.9061 93.6995 89.1869 93.5577 91.0245 94.7926L91.0423 94.8044Z" fill="#563722"/>
<path d="M94.6644 98.7751C96.502 100.004 97.1934 102.143 96.2066 103.544C95.2198 104.944 93.0749 108.43 91.2196 107.189C89.3642 105.948 88.5547 100.471 89.5356 99.0706C90.5164 97.6702 92.8031 97.5284 94.6408 98.7574L94.6644 98.7751Z" fill="#563722"/>
<path d="M79.2718 99.1533C79.455 97.552 80.6072 96.388 81.8422 96.5534C83.0771 96.7189 86.4274 96.1221 86.2501 97.7352C86.0729 99.3483 82.433 102.533 81.1922 102.362C79.9513 102.19 79.0946 100.766 79.2718 99.171V99.1533Z" fill="#664328"/>
<path d="M75.4786 91.9682C77.2512 90.6387 79.4907 90.6801 80.4893 92.0687C81.4878 93.4572 84.0759 96.6362 82.2973 97.9775C80.5188 99.3188 75.0886 98.2965 74.0782 96.908C73.0678 95.5194 73.6941 93.3154 75.455 91.9859L75.4786 91.9682Z" fill="#563722"/>
<path d="M80.4064 106.841C80.6773 106.771 80.9594 106.757 81.236 106.798C81.5126 106.839 81.7782 106.935 82.0172 107.081C82.2561 107.226 82.4636 107.418 82.6273 107.644C82.7911 107.871 82.9079 108.128 82.9708 108.401C83.154 109.494 83.7331 112.088 82.4922 112.324C81.2514 112.56 78.6811 110.351 78.4979 109.251C78.4408 108.681 78.6082 108.111 78.9645 107.662C79.3209 107.213 79.8381 106.921 80.4064 106.847V106.841Z" fill="#563722"/>
<path d="M78.6694 109.293C80.2648 109.104 81.6652 110.091 81.807 111.503C81.9488 112.915 81.9133 114.457 80.6252 115.456C77.6708 117.677 76.1759 113.612 76.0341 112.2C75.8923 110.788 77.0681 109.494 78.6576 109.299L78.6694 109.293Z" fill="#664328"/>
<path d="M86.6756 110.156C87.1188 111.698 86.3684 113.24 84.9916 113.6C83.6149 113.961 80.3946 115.001 79.9455 113.453C79.4964 111.905 82.0136 108.377 83.3844 108.017C84.1002 107.875 84.8431 108.017 85.4561 108.413C86.0691 108.809 86.5043 109.427 86.6697 110.138L86.6756 110.156Z" fill="#664328"/>
<path d="M63.5721 93.9595C60.9781 96.5535 58.8864 105.009 59.495 105.08C60.1036 105.151 63.7434 94.2904 69.8768 95.0704C77.9837 96.0985 75.7856 96.5535 87.6623 97.2921C95.5446 97.7884 140.014 85.4272 143.997 79.8729C154.379 65.42 135.134 65.7922 129.544 65.42C123.954 65.0477 68.2814 89.2502 63.5721 93.9595Z" fill="#EDC55D"/>
<path d="M150.668 84.3222C150.349 85.3444 148.759 88.6593 142.886 92.4763C125.68 103.656 88.2119 121.642 81.7358 118.05L82.2026 117.778C84.5011 116.395 94.4161 110.055 92.4839 104.335C90.2977 97.877 84.702 97.6643 85.4406 91.7377C85.7834 89.0197 87.9519 86.6266 91.2254 84.529C102.86 77.0898 128.268 73.32 135.476 71.7187C145.48 69.497 145.852 69.8692 146.585 71.0037C147.318 72.1382 151.944 80.3042 150.668 84.3222Z" fill="#EDC55D"/>
<path d="M82.179 117.778C81.381 117.813 80.5857 117.662 79.8568 117.335C79.8568 117.335 92.4721 110.492 90.345 104.394C88.2178 98.2965 82.7699 98.1016 83.4967 92.5059C83.8925 89.4215 86.8824 86.7803 91.2254 84.529C87.9519 86.6266 85.7834 89.0197 85.4406 91.7378C84.702 97.6466 90.2977 97.877 92.4839 104.335C94.4161 110.055 84.5011 116.395 82.179 117.778Z" fill="#D3A93F"/>
<path opacity="0.9" d="M111.965 71.2283C111.965 71.2283 85.8603 80.7592 84.7258 82.91C83.5913 85.0608 92.3068 83.2705 96.6557 94.5445C101.005 105.818 95.7912 109.394 99.9999 114.5C103.791 120.394 105.824 123.667 111 124.5C116.176 125.333 126.666 126.765 135.317 117.778C143.967 108.791 150.444 98.0188 140.534 93.9536C130.625 89.8883 141.007 75.7958 132.109 73.9464C123.21 72.0969 120.326 66.6667 111.965 71.2283Z" fill="#C64224"/>
<path d="M107.676 82.1005C107.676 82.1005 113.088 79.5597 116.314 79.5361C118.057 79.5361 115.647 80.1683 112.869 80.9896C110.541 81.681 107.676 82.4668 107.676 82.1005Z" fill="#F0C52E"/>
<path d="M110.376 78.8448C110.376 78.8448 116.019 82.136 117.466 85.0254C118.24 86.5912 116.35 84.8245 114.081 82.8273C112.148 81.1374 109.891 79.0811 110.376 78.8448Z" fill="#F0C52E"/>
<path d="M103.823 80.1092C103.823 80.1092 109.608 78.6202 112.781 79.1875C114.5 79.4947 112.013 79.6897 109.129 79.9793C106.683 80.2215 103.752 80.4579 103.823 80.1092Z" fill="#F0C52E"/>
<path d="M105.814 83.2173C105.814 83.2173 111.244 80.6706 114.482 80.641C116.255 80.641 113.815 81.2792 111.026 82.1005C108.668 82.8214 105.814 83.5895 105.814 83.2173Z" fill="#F0C52E"/>
<path d="M105.554 79.217C105.554 79.217 111.203 82.5082 112.645 85.3976C113.419 86.9575 111.522 85.1908 109.259 83.1995C107.327 81.5096 105.076 79.4474 105.554 79.217Z" fill="#F0C52E"/>
<path d="M105.814 87.2943C105.814 87.2943 111.244 84.7477 114.482 84.7181C116.255 84.7181 113.815 85.3563 111.026 86.1776C108.668 86.8689 105.814 87.6666 105.814 87.2943Z" fill="#F0C52E"/>
<path d="M105.554 83.2941C105.554 83.2941 111.203 86.5853 112.645 89.4747C113.419 91.0346 111.522 89.2679 109.259 87.2766C107.327 85.5867 105.076 83.5245 105.554 83.2941Z" fill="#F0C52E"/>
<path d="M101.968 81.226C101.968 81.226 107.752 79.7311 110.931 80.2983C112.651 80.6115 110.157 80.8065 107.274 81.0901C104.833 81.3383 101.903 81.5864 101.968 81.226Z" fill="#F0C52E"/>
<path d="M108.42 80.6174C108.42 80.6174 113.827 78.0943 117.041 78.0529C118.814 78.0529 116.373 78.6852 113.596 79.5065C111.25 80.1978 108.42 80.9896 108.42 80.6174Z" fill="#F0C52E"/>
<path d="M114.087 77.7339C114.087 77.7339 119.735 81.0251 121.177 83.9145C121.957 85.4744 120.06 83.7136 117.791 81.7164C115.859 80.0265 113.596 77.9643 114.087 77.7339Z" fill="#F0C52E"/>
<path d="M99.8404 86.5853C99.8404 86.5853 106.34 86.2189 109.153 87.8379C110.665 88.7125 108.107 88.287 105.117 87.8379C102.582 87.5484 99.5627 87.0403 99.8404 86.5853Z" fill="#F0C52E"/>
<path d="M95.1784 81.2201C95.1784 81.2201 101.678 81.5923 104.29 83.5186C105.69 84.5645 103.203 83.8436 100.278 83.0932C97.7665 82.455 94.8239 81.6396 95.1784 81.2201Z" fill="#F0C52E"/>
<path d="M104.561 78.632C104.561 78.632 110.352 77.1371 113.525 77.7043C115.245 78.0175 112.751 78.2066 109.868 78.4961C107.427 78.7384 104.496 78.9925 104.561 78.632Z" fill="#F0C52E"/>
<path d="M102.937 81.0487C102.937 81.0487 105.998 77.3144 108.657 75.9849C110.098 75.264 108.462 76.6407 106.618 78.2657C105.052 79.6542 103.144 81.2851 102.937 81.0487Z" fill="#F0C52E"/>
<path d="M100.461 78.7679C100.461 78.7679 107.002 78.4429 109.821 79.5951C111.345 80.2215 108.775 79.9319 105.773 79.6542C103.226 79.4238 100.189 79.1047 100.461 78.7679Z" fill="#F0C52E"/>
<path d="M96.6615 81.811C96.6615 81.811 102.31 85.1022 103.752 87.9916C104.532 89.5515 102.635 87.7907 100.366 85.7935C98.4342 84.1036 96.177 82.0414 96.6615 81.811Z" fill="#F0C52E"/>
<path d="M93.0749 83.82C93.0749 83.82 98.8596 82.325 102.033 82.8982C103.752 83.2054 101.264 83.4004 98.381 83.6841C95.9347 83.9322 93.004 84.1804 93.0749 83.82Z" fill="#F0C52E"/>
<path d="M94.0379 83.6545C94.0379 83.6545 97.0987 79.9201 99.7636 78.5906C101.205 77.8698 99.5686 79.2465 97.7191 80.8714C96.1533 82.2305 94.2507 83.879 94.0379 83.6545Z" fill="#F0C52E"/>
<path d="M91.5682 81.3619C91.5682 81.3619 98.1329 81.0487 100.922 82.1891C102.446 82.8155 99.8819 82.5259 96.8743 82.2482C94.3276 82.0178 91.2964 81.6987 91.5682 81.3619Z" fill="#F0C52E"/>
<path d="M98.6173 81.4387C98.6173 81.4387 102.576 78.1829 105.536 77.2257C107.132 76.7117 105.176 77.8166 102.943 79.1934C101.052 80.3397 98.765 81.6869 98.6173 81.4387Z" fill="#F0C52E"/>
<path d="M111.28 77.2671C111.28 77.2671 115.812 75.6008 118.778 75.8017C120.385 75.908 118.282 76.2685 115.865 76.7294C113.815 77.1253 111.345 77.5625 111.28 77.2671Z" fill="#F0C52E"/>
<path d="M114.246 74.3009C114.246 74.3009 118.778 72.6346 121.744 72.8355C123.351 72.9419 121.248 73.3023 118.831 73.7632C116.781 74.1591 114.311 74.5963 114.246 74.3009Z" fill="#F0C52E"/>
<path d="M110.837 78.3957C110.837 78.3957 117.378 78.0707 120.196 79.2229C121.721 79.8492 119.156 79.5597 116.149 79.2879C113.602 79.0515 110.571 78.7325 110.837 78.3957Z" fill="#F0C52E"/>
<path d="M108.249 78.0943C108.249 78.0943 112.214 74.8386 115.168 73.8872C116.769 73.3732 114.813 74.4781 112.58 75.8549C110.689 77.0012 108.396 78.3484 108.249 78.0943Z" fill="#F0C52E"/>
<path d="M95.8402 78.7974C95.8402 78.7974 101.643 77.3675 104.81 77.9702C106.523 78.2952 104.03 78.4666 101.146 78.7206C98.7237 78.9393 95.7693 79.1579 95.8402 78.7974Z" fill="#F0C52E"/>
<path d="M92.8739 82.8745C92.8739 82.8745 98.6764 81.4446 101.843 82.0473C103.557 82.3723 101.069 82.5437 98.18 82.7977C95.7338 83.0164 92.8148 83.235 92.8739 82.8745Z" fill="#F0C52E"/>
<path d="M93.9967 85.4685C93.9967 85.4685 99.7992 84.0386 102.966 84.6413C104.686 84.9663 102.192 85.1376 99.3028 85.3917C96.8448 85.6103 93.914 85.829 93.9967 85.4685Z" fill="#F0C52E"/>
<path d="M98.4342 82.8745C98.4342 82.8745 104.237 81.4446 107.404 82.0473C109.117 82.3723 106.624 82.5437 103.74 82.7977C101.294 83.0164 98.3633 83.235 98.4342 82.8745Z" fill="#F0C52E"/>
<path d="M93.8372 78.5139C93.8372 78.5139 99.811 78.6202 102.7 80.0147C104.278 80.7651 101.826 80.2924 98.966 79.802C96.567 79.3824 93.6717 78.8507 93.8372 78.5139Z" fill="#F0C52E"/>
<path d="M97.0278 76.7057C97.0278 76.7057 103.002 76.8121 105.891 78.2007C107.469 78.957 105.017 78.4843 102.157 77.9939C99.7577 77.5743 96.8683 77.0366 97.0278 76.7057Z" fill="#F0C52E"/>
<path d="M100.721 77.1785C100.721 77.1785 105.413 75.0985 108.515 74.9626C110.193 74.8917 108.007 75.4649 105.495 76.1444C103.368 76.7707 100.798 77.4562 100.721 77.1785Z" fill="#F0C52E"/>
<path d="M115.859 77.5448C115.859 77.5448 121.809 77.1726 124.846 77.9584C126.495 78.378 124.002 78.2243 121.112 78.0825C118.666 77.9644 115.729 77.7989 115.859 77.5448Z" fill="#F0C52E"/>
<path d="M112.905 75.2404C112.905 75.2404 118.849 75.6717 121.638 76.8476C123.145 77.4798 120.74 76.9953 117.933 76.4694C115.57 76.0322 112.734 75.4708 112.905 75.2404Z" fill="#F0C52E"/>
<path d="M120.309 73.6627C120.309 73.6627 124.48 77.2966 124.829 79.607C125.018 80.8596 123.848 79.1934 122.406 77.2789C121.177 75.654 119.777 73.6982 120.309 73.6627Z" fill="#F0C52E"/>
<path d="M112.355 73.2018C112.355 73.2018 118.607 74.6081 120.852 76.0912C122.069 76.9125 119.759 76.0617 117.041 75.1399C114.725 74.3363 111.983 73.3673 112.355 73.2018Z" fill="#F0C52E"/>
<path d="M119.895 74.6908C119.895 74.6908 124.74 73.4677 127.842 73.5564C129.521 73.6095 127.293 73.8872 124.734 74.2477C122.566 74.549 119.948 74.8917 119.895 74.6908Z" fill="#F0C52E"/>
<path d="M113.939 72.351C113.939 72.351 118.932 72.1146 121.951 72.8178C123.588 73.2018 121.36 73.0305 118.766 72.8769C116.58 72.741 113.951 72.5578 113.939 72.351Z" fill="#F0C52E"/>
<path d="M106.896 73.4618C106.896 73.4618 111.889 73.2255 114.908 73.9286C116.545 74.3127 114.317 74.1473 111.729 73.9877C109.543 73.8577 106.913 73.6687 106.896 73.4618Z" fill="#F0C52E"/>
<path d="M105.418 75.6835C105.418 75.6835 110.405 75.4531 113.431 76.1562C115.068 76.5344 112.84 76.369 110.246 76.2094C108.06 76.0794 105.43 75.8962 105.418 75.6835Z" fill="#F0C52E"/>
</svg>
