<svg width="180" height="180" viewBox="0 0 180 180" fill="none" xmlns="http://www.w3.org/2000/svg">
<g clip-path="url(#clip0_44_3512)">
<path d="M137 107C137 123.33 126.17 128.59 110.5 130.25V122.38C122.87 120 131 114.15 131 100C131 88.38 125.52 73.41 116.7 61.59C129 73.94 137 92.93 137 107Z" fill="#EEEEEE"/>
<path d="M70.5 123.72V130.25C58.92 129 50 125.83 46.11 117.65C51.92 121.7 60.48 123.18 70.5 123.72Z" fill="#EEEEEE"/>
<path d="M131 100C131 114.15 122.87 120 110.5 122.38C103.08 123.81 94.13 124 84.5 124C79.62 124 74.92 124 70.5 123.72C60.5 123.18 51.92 121.72 46.11 117.65C44.6204 114.302 43.8994 110.663 44 107C44 84.36 64.82 49 90.5 49C100.22 49 109.25 54.07 116.7 61.59C125.52 73.41 131 88.38 131 100Z" fill="#F9F9F9"/>
<path d="M110.5 122.38V131H70.5V123.72C74.92 123.95 79.62 124 84.5 124C94.13 124 103.08 123.81 110.5 122.38Z" fill="#082D19"/>
<path d="M110.5 88.27V122.38C103.08 123.81 94.13 124 84.5 124C79.62 124 74.92 124 70.5 123.72V88.27C70.5 86.8723 71.0552 85.5319 72.0435 84.5435C73.0319 83.5552 74.3723 83 75.77 83H105.23C106.628 83 107.968 83.5552 108.956 84.5435C109.945 85.5319 110.5 86.8723 110.5 88.27Z" fill="#0B3F25"/>
</g>
<defs>
<clipPath id="clip0_44_3512">
<rect width="93" height="82" fill="white" transform="translate(44 49)"/>
</clipPath>
</defs>
</svg>
