<svg width="180" height="180" viewBox="0 0 180 180" fill="none" xmlns="http://www.w3.org/2000/svg">
<path d="M91.5496 129.242C134.7 127.564 169.156 112.749 168.511 96.1517C167.866 79.5546 132.362 67.4604 89.2123 69.1384C46.0622 70.8164 11.6054 85.6313 12.2509 102.228C12.8963 118.825 48.3995 130.92 91.5496 129.242Z" fill="#ABABAB"/>
<path d="M91.4674 126.898C134.617 125.22 169.074 110.405 168.429 93.8084C167.783 77.2114 132.28 65.1171 89.1301 66.7952C45.98 68.4732 11.5232 83.288 12.1687 99.8851C12.8141 116.482 48.3173 128.576 91.4674 126.898Z" fill="#DCDDDB"/>
<path d="M84.5749 73.5058C79.1874 78.2004 65.1657 69.4006 56.0627 72.5488C46.9597 75.6971 34.6179 78.0127 33.1978 86.7971C32.8613 88.7108 30.4121 101.537 36.1428 107.764C41.085 113.161 43.9772 115.532 58.6861 116.014C73.395 116.495 95.3802 118.312 99.2293 116.698C103.078 115.083 126.36 116.733 131.354 111.166C136.348 105.6 149.87 103.893 149.263 96.8359C148.655 89.7788 140.861 79.1458 131.782 81.2529C122.703 83.36 114.783 76.7477 111.068 73.3877C107.353 70.0277 102.921 57.5561 84.5749 73.5058Z" fill="#F9D885" stroke="#DBAC40" stroke-width="1.59" stroke-linecap="round" stroke-linejoin="round"/>
<path d="M49.4817 84.7383C49.4817 84.7383 56.1535 104.353 62.9125 101.347C69.6716 98.3402 87.1237 101.174 100.102 102.445C113.079 103.716 111.163 99.4196 113.817 95.6635" stroke="#DBAC3E" stroke-width="1.59" stroke-linecap="round" stroke-linejoin="round"/>
<path d="M43.321 103.08C43.321 103.08 60.7716 112.379 70.5486 112.838C80.3257 113.298 100.617 113.723 113.863 109.614C124.971 106.167 128.922 109.167 132.608 105.371" stroke="#DBAC3E" stroke-width="1.59" stroke-linecap="round" stroke-linejoin="round"/>
<path d="M73.4893 77.4545C73.4893 77.4545 94.5513 97.0802 103.365 86.5638C112.178 76.0474 135.161 90.7704 133.628 95.2774C132.095 99.7844 120.201 105.889 112.768 107.102" stroke="#DBAC3E" stroke-width="1.59" stroke-linecap="round" stroke-linejoin="round"/>
<path d="M57.4239 74.4912C57.4239 74.4912 43.9077 70.7299 42.9146 80.0393C41.9214 89.3487 38.0343 97.8723 45.5826 100.889C53.1309 103.905 75.5132 107.834 78.762 106.405" stroke="#DBAC3E" stroke-width="1.59" stroke-linecap="round" stroke-linejoin="round"/>
<path d="M135.823 83.8949C137.33 84.5352 138.624 85.5897 139.555 86.9359C140.486 88.2821 141.016 89.8648 141.083 91.5002C141.286 97.1985 137.788 101.305 134.067 102.035" stroke="#DBAC3E" stroke-width="1.59" stroke-linecap="round" stroke-linejoin="round"/>
<path d="M63.324 107.982C63.324 107.982 89.9263 111.061 92.7222 109.136C95.5181 107.212 107.338 108.889 113.261 103.748C117.26 100.399 121.593 97.4699 126.192 95.0083" stroke="#DBAC3E" stroke-width="1.59" stroke-linecap="round" stroke-linejoin="round"/>
<path d="M38.022 84.7932C38.022 84.7932 34.2636 95.7346 38.1886 102.821C42.1137 109.908 50.4632 112.698 51.5233 112.733C52.5834 112.767 62.0029 114.236 62.0029 114.236" stroke="#DBAC3E" stroke-width="1.59" stroke-linecap="round" stroke-linejoin="round"/>
<path d="M93.5433 64.0343C93.5433 64.0343 96.7445 64.1749 93.1405 64.0812C89.5364 63.9874 65.9927 68.0023 62.5968 69.205C59.2009 70.4078 37.2381 75.6283 35.8476 81.6072C34.457 87.5862 41.9602 97.5519 46.8817 95.586C51.8033 93.62 67.3426 95.1272 73.5515 103.045C79.7603 110.962 92.8818 109.33 96.7516 103.621C100.621 97.9122 122.366 102.518 124.859 97.5499C127.353 92.5817 139.731 86.9496 137.986 82.7384C136.241 78.5273 129.132 76.6334 128.433 74.9391C127.734 73.2448 112.586 61.9555 93.5433 64.0343Z" fill="#DD653A"/>
<path d="M59.4605 81.6888C51.5923 81.9874 51.1293 85.7619 53.9022 87.4333C56.675 89.1046 66.0217 92.4442 67.6776 90.9008C69.3336 89.3575 71.4998 86.644 69.5 85.1432C67.5002 83.6424 67.3333 81.3632 59.4605 81.6888Z" fill="#F8F2E8"/>
<path d="M101.499 86.5057C95.9788 86.7188 95.6818 89.3525 97.5993 90.5343C99.5167 91.716 106.098 94.0501 107.258 92.9664C108.418 91.8828 109.937 89.9761 108.535 88.9335C107.133 87.8909 107.012 86.2914 101.499 86.5057Z" fill="#F8F2E8"/>
<path d="M74.7271 68.2504C67.876 68.5133 67.4783 71.1293 69.8586 72.3163C72.239 73.5033 80.3792 75.7515 81.8237 74.6625C83.2682 73.5736 85.1774 71.6525 83.4437 70.607C81.71 69.5614 81.5716 67.9864 74.7271 68.2504Z" fill="#F8F2E8"/>
<path d="M113.285 77.3911C108.224 79.4433 107.676 82.1645 109.944 82.6118C112.212 83.0591 117.93 81.247 121.228 81.4322C126.023 81.7216 122.564 77.7698 120.791 77.2641C119.017 76.7585 118.346 75.339 113.285 77.3911Z" fill="#F8F2E8"/>
<path d="M91.2226 79.3198C88.7951 82.0173 85.6796 84.0036 82.2096 85.066C78.6118 85.9671 74.8425 85.9266 71.2649 84.9483C73.6924 82.2509 76.808 80.2645 80.2779 79.2021C83.8757 78.301 87.645 78.3415 91.2226 79.3198Z" fill="#385C2B"/>
<path d="M89.3051 77.0373C89.3051 77.0373 84.6208 76.9059 81.5796 74.1628C78.5383 71.4197 78.2892 67.1669 78.2892 67.1669C78.2892 67.1669 82.9735 67.2983 86.0069 70.047C89.0403 72.7956 89.3051 77.0373 89.3051 77.0373Z" fill="#385C2B"/>
<path d="M101.959 71.2529C101.499 71.2674 101.041 71.3093 100.587 71.3785C102.205 69.9608 103.383 68.1093 103.983 66.043C101.699 66.3334 99.53 67.2142 97.6905 68.5986C96.0381 70.0131 94.8306 71.8757 94.2138 73.9615L94.2067 74.0018L94.2605 74.0113C96.6157 75.4622 99.3263 76.2335 102.093 76.24C104.884 76.0661 107.573 75.1229 109.861 73.5148C107.488 72.0413 104.752 71.2581 101.959 71.2529Z" fill="#385C2B"/>
</svg>
