<svg width="180" height="180" viewBox="0 0 180 180" fill="none" xmlns="http://www.w3.org/2000/svg">
<path d="M90.8859 119.747C135.346 117.95 170.718 102.575 169.891 85.405C169.065 68.2353 132.353 55.7731 87.8926 57.5698C43.4325 59.3665 8.06062 74.7418 8.88721 91.9115C9.7138 109.081 46.4259 121.543 90.8859 119.747Z" fill="#ABABAB"/>
<path d="M91.9581 116.869C136.58 114.955 172.04 99.4342 171.16 82.2019C170.279 64.9696 133.392 52.5513 88.7698 54.465C44.1476 56.3787 8.68783 71.8996 9.56824 89.132C10.4486 106.364 47.3358 118.783 91.9581 116.869Z" fill="#F2F1F1"/>
<path d="M92.2909 112.623C130.684 110.977 161.194 97.6212 160.436 82.793C159.678 67.9648 127.941 57.279 89.5475 58.9255C51.1544 60.5721 20.6448 73.9275 21.4024 88.7557C22.16 103.584 53.8979 114.27 92.2909 112.623Z" fill="#D59037"/>
<path d="M91.6292 110.449C129.297 108.833 159.229 95.7304 158.486 81.1823C157.743 66.6343 126.605 56.1503 88.9376 57.7657C51.2703 59.3811 21.3374 72.4842 22.0807 87.0323C22.8239 101.58 53.9619 112.064 91.6292 110.449Z" fill="#F5AB3F"/>
<path d="M91.8789 107.771C126.24 106.297 153.546 94.3448 152.868 81.0742C152.19 67.8036 123.785 58.2403 89.4236 59.714C55.0624 61.1876 27.7567 73.1401 28.4347 86.4107C29.1127 99.6813 57.5176 109.245 91.8789 107.771Z" fill="#DD653A"/>
<path d="M48.4366 88.331C53.8023 88.1008 58.0604 86.1201 57.9473 83.9068C57.8342 81.6935 53.3928 80.0858 48.0271 80.3159C42.6614 80.546 38.4033 82.5268 38.5164 84.7401C38.6295 86.9534 43.0709 88.5611 48.4366 88.331Z" fill="white"/>
<path d="M69.6911 74.1578C75.0568 73.9277 79.3148 71.9469 79.2018 69.7336C79.0887 67.5203 74.6473 65.9126 69.2816 66.1427C63.9159 66.3728 59.6578 68.3536 59.7709 70.5669C59.884 72.7802 64.3254 74.3879 69.6911 74.1578Z" fill="white"/>
<path d="M99.3904 71.7533C104.756 71.5232 109.014 69.5424 108.901 67.3291C108.788 65.1158 104.347 63.5081 98.9809 63.7382C93.6152 63.9684 89.3571 65.9491 89.4702 68.1624C89.5833 70.3757 94.0247 71.9834 99.3904 71.7533Z" fill="white"/>
<path d="M97.4918 98.9882C102.857 98.7581 107.116 96.7773 107.002 94.564C106.889 92.3507 102.448 90.7431 97.0823 90.9732C91.7166 91.2033 87.4585 93.1841 87.5716 95.3974C87.6846 97.6107 92.1261 99.2184 97.4918 98.9882Z" fill="white"/>
<path d="M135.469 84.9478C140.835 84.7177 145.093 82.7369 144.98 80.5236C144.867 78.3103 140.425 76.7027 135.06 76.9328C129.694 77.1629 125.436 79.1437 125.549 81.357C125.662 83.5703 130.103 85.1779 135.469 84.9478Z" fill="white"/>
<path d="M111.828 83.0101C117.174 82.794 121.422 80.8312 121.316 78.6259C121.209 76.4207 116.789 74.8081 111.443 75.0242C106.097 75.2402 101.849 77.2031 101.955 79.4083C102.061 81.6136 106.481 83.2261 111.828 83.0101Z" fill="white"/>
<path d="M71.5467 97.4803C76.9124 97.2502 81.1705 95.2694 81.0574 93.0561C80.9443 90.8428 76.5029 89.2351 71.1372 89.4652C65.7715 89.6954 61.5134 91.6761 61.6265 93.8894C61.7396 96.1027 66.181 97.7104 71.5467 97.4803Z" fill="white"/>
<path d="M80.6205 83.7978C83.8695 83.6584 86.4479 82.4599 86.3795 81.1209C86.3111 79.7818 83.6218 78.8092 80.3728 78.9486C77.1238 79.0879 74.5455 80.2864 74.6139 81.6255C74.6823 82.9645 77.3715 83.9371 80.6205 83.7978Z" fill="white"/>
<path d="M100.844 89.2749C104.093 89.1355 106.671 87.937 106.603 86.598C106.535 85.2589 103.845 84.2863 100.596 84.4257C97.3474 84.565 94.769 85.7635 94.8374 87.1026C94.9058 88.4416 97.5951 89.4142 100.844 89.2749Z" fill="white"/>
<path d="M123.254 93.179C126.503 93.0396 129.082 91.8412 129.013 90.5021C128.945 89.163 126.256 88.1905 123.007 88.3298C119.758 88.4691 117.179 89.6676 117.248 91.0067C117.316 92.3457 120.005 93.3183 123.254 93.179Z" fill="white"/>
<path d="M126.912 74.034C130.161 73.8946 132.739 72.6961 132.671 71.3571C132.602 70.018 129.913 69.0454 126.664 69.1848C123.415 69.3241 120.837 70.5226 120.905 71.8617C120.974 73.2007 123.663 74.1733 126.912 74.034Z" fill="white"/>
<path d="M72.7408 74.627C72.7408 74.627 68.0856 78.0189 62.141 78.2521C56.1965 78.4853 51.2103 75.5282 51.2103 75.5282C51.2103 75.5282 55.8713 72.1378 61.8163 71.8815C67.7612 71.6253 72.7408 74.627 72.7408 74.627Z" fill="#385C2B"/>
<path d="M79.8813 90.1171C79.8813 90.1171 76.3331 94.4451 70.646 96.1048C64.959 97.7645 59.3195 96.0277 59.3195 96.0277C59.3195 96.0277 62.8803 91.6566 68.5595 90.0238C74.2386 88.391 79.8813 90.1171 79.8813 90.1171Z" fill="#385C2B"/>
<path d="M124.223 91.2227C124.223 91.2227 119.568 94.6146 113.617 94.8694C107.666 95.1241 102.686 92.1455 102.686 92.1455C102.686 92.1455 107.325 88.7669 113.275 88.4945C119.224 88.2221 124.223 91.2227 124.223 91.2227Z" fill="#385C2B"/>
<path d="M138.213 78.9157C138.213 78.9157 133.556 82.3129 127.607 82.5623C121.658 82.8117 116.676 79.8384 116.676 79.8384C116.676 79.8384 121.337 76.448 127.282 76.1918C133.227 75.9355 138.213 78.9157 138.213 78.9157Z" fill="#385C2B"/>
<path d="M77.1817 81.2803C75.7493 83.0595 73.8005 84.4345 71.5571 85.2487C69.2592 85.9255 66.8001 85.9983 64.4593 85.4587C65.8893 83.6774 67.8388 82.3019 70.0838 81.4903C72.3818 80.8135 74.8409 80.7408 77.1817 81.2803Z" fill="#385C2B"/>
<path d="M53.5421 85.3839C52.1107 87.164 50.1616 88.5392 47.9175 89.3524C45.6298 90.0264 43.1816 90.0998 40.8507 89.5642C42.2237 87.7394 44.1865 86.3547 46.463 85.6049C48.7395 84.8551 51.2152 84.7778 53.5421 85.3839Z" fill="#385C2B"/>
<path d="M103.438 87.98C103.438 87.98 99.0503 89.2483 94.8545 87.8139C90.6587 86.3795 88.2295 82.785 88.2295 82.785C88.2295 82.785 92.6073 81.5491 96.8051 82.9551C101.003 84.3611 103.438 87.98 103.438 87.98Z" fill="#385C2B"/>
<path d="M101.075 77.9265C99.6347 79.7056 97.6778 81.0786 95.4274 81.8891C93.1297 82.5659 90.6706 82.6368 88.3311 82.0937C89.777 80.3115 91.743 78.9399 94.0027 78.1369C96.2925 77.4622 98.7428 77.3893 101.075 77.9265Z" fill="#385C2B"/>
<path d="M92.0163 64.9001C90.5849 66.6801 88.6358 68.0553 86.3918 68.8685C84.0935 69.5421 81.6354 69.613 79.2955 69.0732C80.729 67.295 82.6774 65.9203 84.92 65.1047C87.2177 64.4279 89.6768 64.357 92.0163 64.9001Z" fill="#385C2B"/>
<path d="M107.986 69.583C106.556 71.3643 104.606 72.7398 102.361 73.5514C100.069 74.2265 97.6166 74.3008 95.2809 73.7657C96.7109 71.9844 98.6604 70.6089 100.905 69.7973C103.198 69.1222 105.65 69.0479 107.986 69.583Z" fill="#385C2B"/>
<path d="M92.5211 69.9226C90.4397 71.0668 88.04 71.6317 85.6144 71.5486C83.1932 71.3029 80.9023 70.4174 79.0207 68.9999C81.0669 67.7801 83.4935 67.2092 85.928 67.3748C88.3625 67.5405 90.6704 68.4335 92.4976 69.9168L92.5211 69.9226Z" fill="#385C2B"/>
<path d="M120.755 69.038C119.324 70.8181 117.374 72.1933 115.13 73.0065C112.839 73.6816 110.386 73.754 108.052 73.2154C109.485 71.4373 111.434 70.0626 113.676 69.247C115.968 68.5718 118.421 68.4994 120.755 69.038Z" fill="#385C2B"/>
</svg>
