<svg width="180" height="180" viewBox="0 0 180 180" fill="none" xmlns="http://www.w3.org/2000/svg">
<path d="M170.945 82.9735C170.945 95.3773 134.679 111 89.9634 111C45.2479 111 8.9342 95.3773 8.9342 82.9735C8.9342 70.5698 45.2006 60.5078 89.9161 60.5078C134.632 60.5078 170.945 70.5698 170.945 82.9735Z" fill="#E2DAC9"/>
<path d="M171.472 81.8601C171.472 93.6902 135.205 106.283 90.4898 106.283C45.7743 106.283 9.4606 93.6902 9.4606 81.8601C9.4606 70.03 45.727 60.4336 90.4425 60.4336C135.158 60.4336 171.472 70.03 171.472 81.8601Z" fill="#F7F0DF"/>
<path d="M57.7733 95.9509C54.0684 96.43 36.7383 83.2907 36.3334 77.4668C36.2868 76.5474 36.3778 75.6262 36.6033 74.7336C38.8506 79.876 49.1083 88.1294 54.6758 90.7816C54.669 93.0963 55.5936 95.0264 57.7733 95.9509Z" fill="#C1A491"/>
<path d="M147.764 82.4943C148.176 81.2391 147.65 80.1998 146.367 79.3292C146.807 78.9854 147.208 78.5938 147.562 78.1618L147.629 78.0875C149.188 81.2661 147.764 82.4943 147.764 82.4943Z" fill="#C1A491"/>
<path d="M147.629 78.0876L147.562 78.1618C138.033 90.0729 61.2757 91.1324 57.5708 91.6116C54.1493 92.0637 39.3026 81.0502 36.6032 74.7336C38.2296 67.7691 47.6842 60.3458 61.4781 59.1581C77.0941 57.8084 125.663 65.5354 129.361 65.9066C134.321 66.4194 140.618 69.2808 145.382 74.8078C146.265 75.8028 147.02 76.9047 147.629 78.0876Z" fill="#FC9248"/>
<path d="M147.764 82.4944C138.235 94.4055 61.478 95.438 57.7731 95.9509C55.5933 95.0263 54.6687 93.0963 54.6418 90.7815C55.535 91.2947 56.5409 91.5797 57.5706 91.6116C61.1473 91.146 132.924 90.1472 146.367 79.3293C147.649 80.1999 148.176 81.2662 147.764 82.4944Z" fill="#B39B8D"/>
<path d="M146.367 79.3293C132.924 90.1269 61.1475 91.1459 57.5708 91.6115C56.5411 91.5797 55.5352 91.2946 54.6419 90.7815C54.5745 84.3097 61.4512 74.7943 67.2211 75.3814C79.1187 76.5894 136.251 72.493 146.367 79.3293Z" fill="#ED8B48"/>
<path d="M60.5468 62.566C60.5468 62.566 76.3653 68.6397 78.3629 71.7305L60.5468 62.566Z" fill="#ED8B48"/>
<path d="M75.2991 62.1814C75.2991 62.1814 91.1175 68.255 93.1151 71.3459L75.2991 62.1814Z" fill="#ED8B48"/>
<path d="M90.051 63.1465C90.051 63.1465 105.876 69.2201 107.874 72.3109L90.051 63.1465Z" fill="#ED8B48"/>
<path d="M104.81 64.1115C104.81 64.1115 120.629 70.1851 122.626 73.2759L104.81 64.1115Z" fill="#ED8B48"/>
<path d="M121.965 67.1483C121.965 67.1483 133.255 70.8195 134.976 73.5391L121.965 67.1483Z" fill="#ED8B48"/>
<path d="M64.8995 102.477C67.8823 101.802 70.8989 101.275 73.8952 100.682L82.9382 99.1767C85.9548 98.6638 89.0118 98.2791 92.0082 97.827C95.0045 97.3748 98.0818 97.0644 101.105 96.7C107.179 96.0251 113.252 95.4312 119.387 95.1208C122.444 94.9791 125.508 94.8441 128.578 94.8171C130.11 94.8171 131.649 94.8644 133.181 94.9656C134.727 94.9878 136.263 95.2147 137.749 95.6405C137.766 95.6477 137.78 95.6603 137.788 95.6762C137.797 95.6921 137.8 95.7104 137.797 95.7282C137.794 95.7367 137.789 95.7445 137.783 95.7511C137.777 95.7578 137.77 95.7631 137.761 95.7669C137.753 95.7707 137.744 95.7728 137.735 95.7731C137.726 95.7734 137.717 95.7719 137.709 95.7687C136.219 95.47 134.7 95.3432 133.181 95.3908C131.656 95.3908 130.13 95.438 128.605 95.5055C125.562 95.6539 122.532 95.8901 119.475 96.1803C113.401 96.7067 107.327 97.3613 101.254 98.0497C89.1063 99.3994 76.9928 100.92 64.913 102.612C64.9036 102.614 64.8939 102.614 64.8846 102.611C64.8752 102.609 64.8664 102.605 64.8588 102.6C64.8511 102.594 64.8448 102.587 64.8401 102.578C64.8355 102.57 64.8328 102.56 64.832 102.551C64.8314 102.534 64.8363 102.518 64.8461 102.504C64.8559 102.491 64.87 102.481 64.886 102.477H64.8995Z" fill="#24562E"/>
<path d="M121.135 95.0532C121.2 95.8999 121.132 96.7517 120.932 97.5772C120.746 98.4027 120.461 99.2027 120.082 99.9594C119.706 100.743 119.197 101.456 118.577 102.065C117.963 102.723 117.131 103.138 116.235 103.232C116.826 102.699 117.332 102.078 117.733 101.39C118.141 100.736 118.513 100.06 118.847 99.3655C119.61 97.9618 120.23 96.5041 121.135 95.0532Z" fill="#24562E"/>
<path d="M118.699 95.7417C117.531 96.8187 116.278 97.8004 114.953 98.6773C114.326 99.1227 113.684 99.5478 113.07 100.027C112.456 100.506 111.829 100.925 111.188 101.464C111.38 100.641 111.777 99.88 112.342 99.2509C112.887 98.6104 113.516 98.0453 114.211 97.5705C114.88 97.1028 115.598 96.7069 116.35 96.3896C117.099 96.0663 117.89 95.8482 118.699 95.7417Z" fill="#24562E"/>
<path d="M113.536 96.1871C112.936 96.8125 112.255 97.3549 111.511 97.8C110.79 98.2499 110.032 98.636 109.244 98.954C108.456 99.2742 107.641 99.5205 106.808 99.6896C105.963 99.8698 105.097 99.9289 104.236 99.8651C104.96 99.4273 105.708 99.0308 106.477 98.6773C107.226 98.3332 107.982 98.0025 108.744 97.6988C109.507 97.3951 110.276 97.1049 111.066 96.8485C111.873 96.5709 112.698 96.3499 113.536 96.1871Z" fill="#24562E"/>
<path d="M103.272 98.0226C101.976 99.0863 100.624 100.08 99.2225 100.999C98.5477 101.464 97.8728 101.923 97.2655 102.423C96.6042 102.919 95.9958 103.482 95.4501 104.103C95.5527 103.205 95.9217 102.359 96.5096 101.674C97.063 100.984 97.7184 100.383 98.4532 99.8919C99.1668 99.3972 99.9343 98.9852 100.741 98.6637C101.549 98.3291 102.402 98.1131 103.272 98.0226Z" fill="#24562E"/>
<path d="M121.357 96.1128C120.063 97.1781 118.711 98.1716 117.308 99.0889C116.633 99.5545 115.959 100.013 115.351 100.513C114.69 101.007 114.082 101.568 113.536 102.186C113.638 101.289 114.007 100.443 114.595 99.757C115.149 99.0676 115.804 98.4668 116.539 97.9754C117.254 97.4823 118.021 97.0703 118.827 96.7472C119.636 96.4164 120.488 96.2028 121.357 96.1128Z" fill="#24562E"/>
<path d="M94.89 98.2723C94.1612 98.8865 93.4189 99.4196 92.6833 99.946L90.517 101.512C89.8103 102.02 89.1342 102.57 88.4925 103.158C87.8332 103.741 87.2705 104.424 86.8256 105.183C86.7831 104.195 87.0915 103.225 87.6962 102.443C88.2491 101.656 88.934 100.971 89.7207 100.418C90.4816 99.8575 91.3061 99.3886 92.1772 99.0214C93.0399 98.6403 93.954 98.3879 94.89 98.2723Z" fill="#24562E"/>
<path d="M102.408 96.9294C101.809 97.5568 101.128 98.0994 100.383 98.5423C99.663 98.9935 98.9042 99.3797 98.1156 99.6963C97.3281 100.017 96.5125 100.263 95.6794 100.432C94.835 100.612 93.9693 100.671 93.1082 100.607C93.83 100.168 94.5782 99.7734 95.3487 99.4264C96.0978 99.0755 96.8537 98.7515 97.6162 98.4411C98.3788 98.1307 99.1481 97.854 99.931 97.5908C100.74 97.314 101.568 97.0931 102.408 96.9294Z" fill="#24562E"/>
<path d="M92.1363 98.765C90.8408 99.8288 89.4892 100.822 88.0872 101.741C87.4124 102.207 86.7375 102.666 86.1302 103.165C85.4672 103.662 84.8587 104.227 84.3148 104.852C84.4157 103.952 84.7848 103.103 85.3743 102.416C85.9277 101.727 86.5831 101.126 87.3179 100.634C88.0315 100.14 88.799 99.7276 89.6056 99.4061C90.4139 99.0715 91.2663 98.8556 92.1363 98.765Z" fill="#24562E"/>
<path d="M82.3648 99.8853C81.1096 100.945 79.8544 101.768 78.7071 102.693C78.1388 103.141 77.6001 103.626 77.0942 104.144C76.5669 104.694 76.1008 105.301 75.7041 105.952C75.6113 105.113 75.7911 104.266 76.2169 103.536C76.6387 102.808 77.198 102.168 77.8636 101.653C78.5083 101.146 79.2217 100.732 79.9826 100.425C80.7386 100.106 81.5451 99.9232 82.3648 99.8853Z" fill="#24562E"/>
<path d="M76.1965 101.073C74.9413 102.133 73.6861 102.956 72.5388 103.88C71.965 104.33 71.4196 104.814 70.9057 105.331C70.3784 105.882 69.9123 106.489 69.5155 107.14C69.4292 106.294 69.6161 105.443 70.0486 104.71C70.474 103.994 71.033 103.366 71.6953 102.861C72.34 102.354 73.0534 101.94 73.8143 101.633C74.5692 101.308 75.3757 101.118 76.1965 101.073Z" fill="#24562E"/>
<path d="M86.4878 99.4871C85.2326 100.553 83.9842 101.37 82.8302 102.301C82.2563 102.751 81.7109 103.235 81.197 103.752C80.6687 104.306 80.1984 104.912 79.7933 105.561C79.7118 104.715 79.8983 103.865 80.3265 103.131C80.7552 102.406 81.316 101.767 81.9798 101.248C82.6212 100.738 83.3355 100.326 84.0989 100.027C84.856 99.7039 85.6654 99.521 86.4878 99.4871Z" fill="#24562E"/>
<path d="M106.612 97.5569C105.478 98.3615 104.297 99.0983 103.076 99.7637C102.495 100.094 101.935 100.439 101.409 100.803C100.849 101.173 100.35 101.628 99.931 102.153C99.8865 101.372 100.153 100.605 100.673 100.02C101.148 99.4301 101.732 98.9375 102.394 98.5692C103.028 98.2016 103.709 97.9223 104.419 97.7391C105.134 97.5523 105.876 97.4907 106.612 97.5569Z" fill="#24562E"/>
<path d="M121.054 96.0587C119.704 94.9655 118.672 93.7845 117.551 92.6845C116.998 92.1311 116.438 91.5912 115.851 91.1053C115.244 90.5806 114.561 90.1505 113.826 89.8299C114.699 89.6496 115.607 89.7834 116.391 90.2078C117.17 90.5931 117.877 91.1089 118.483 91.733C119.084 92.3405 119.608 93.0206 120.041 93.7575C120.492 94.4697 120.833 95.2454 121.054 96.0587Z" fill="#24562E"/>
<path d="M118.523 96.1737C117.715 96.3336 116.887 96.3768 116.067 96.3019C115.252 96.244 114.446 96.0969 113.664 95.8632C112.866 95.635 112.102 95.3038 111.39 94.878C110.655 94.4576 110.037 93.8588 109.595 93.1368C110.378 93.454 111.1 93.6835 111.835 93.9129C112.571 94.1424 113.306 94.3448 114.042 94.5878C115.575 94.9994 117.073 95.5296 118.523 96.1737Z" fill="#24562E"/>
<path d="M96.7997 98.2723C95.9503 98.4656 95.0767 98.5293 94.2083 98.4613C93.3418 98.4129 92.4837 98.2657 91.6506 98.0226C90.7981 97.7851 89.986 97.4211 89.2414 96.9429C88.464 96.4777 87.8453 95.7885 87.4665 94.9656C88.1807 95.3857 88.9359 95.7317 89.7205 95.9981C90.4696 96.2748 91.2457 96.4975 92.0285 96.7269C93.6455 97.1559 95.2382 97.6718 96.7997 98.2723Z" fill="#24562E"/>
<path d="M120.959 94.9926C120.107 95.1794 119.232 95.243 118.361 95.1815C117.494 95.1341 116.635 94.9846 115.803 94.7361C114.952 94.5051 114.141 94.1431 113.401 93.6631C112.623 93.1979 112.005 92.5087 111.626 91.6858C112.328 92.1166 113.075 92.4697 113.853 92.7386C114.602 93.0152 115.378 93.2447 116.154 93.4674C117.782 93.8899 119.386 94.399 120.959 94.9926Z" fill="#24562E"/>
<path d="M72.856 101.512C72.0035 101.698 71.1285 101.762 70.2579 101.701C69.3911 101.65 68.533 101.5 67.7002 101.255C66.8469 101.023 66.0344 100.661 65.291 100.182C64.5172 99.7146 63.9013 99.0259 63.5229 98.2048C64.2342 98.6241 64.9874 98.9679 65.7701 99.2306C66.5259 99.5073 67.2953 99.7367 68.0781 99.9594C69.6971 100.392 71.292 100.91 72.856 101.512Z" fill="#24562E"/>
<path d="M106.356 97.3006C105.431 97.1724 104.56 96.9834 103.703 96.7877L101.152 96.1939L98.615 95.6068C97.7647 95.4178 96.9076 95.2626 95.9966 95.0534C96.8575 94.7205 97.773 94.5512 98.696 94.554C99.6187 94.5565 100.538 94.6652 101.436 94.8779C102.327 95.0945 103.193 95.402 104.021 95.7957C104.869 96.1785 105.656 96.6857 106.356 97.3006Z" fill="#24562E"/>
<path d="M111.194 96.268C110.349 96.215 109.508 96.1045 108.677 95.9374C107.861 95.7754 107.057 95.5932 106.261 95.3907C105.465 95.1883 104.682 94.9656 103.892 94.7159C103.082 94.4667 102.287 94.1715 101.51 93.8318C102.358 93.6573 103.225 93.6028 104.088 93.6699C104.936 93.7285 105.776 93.8664 106.599 94.0815C107.423 94.294 108.227 94.5786 109.001 94.9318C109.788 95.278 110.526 95.7273 111.194 96.268Z" fill="#24562E"/>
<path d="M86.4881 99.8515C85.7012 100.075 84.8813 100.16 84.0653 100.101C83.2467 100.052 82.4397 99.8839 81.6696 99.6018C80.8746 99.3256 80.141 98.8969 79.5101 98.3398C78.8682 97.7806 78.4214 97.0312 78.2346 96.2006C78.819 96.6896 79.4522 97.117 80.1242 97.476C80.7792 97.8066 81.4555 98.093 82.1488 98.3331C83.5187 98.8527 84.9629 99.2374 86.4881 99.8515Z" fill="#24562E"/>
<path d="M77.7082 100.594C76.9213 100.817 76.1015 100.902 75.2855 100.843C74.4669 100.794 73.6598 100.626 72.8898 100.344C72.0948 100.068 71.3612 99.6392 70.7303 99.0821C70.0869 98.5241 69.6398 97.7742 69.4548 96.9429C70.0379 97.4335 70.6713 97.8611 71.3444 98.2183C72.0006 98.5483 72.6767 98.8368 73.369 99.0821C74.7322 99.595 76.1831 99.9797 77.7082 100.594Z" fill="#24562E"/>
<path d="M90.9421 98.8122C90.1558 99.039 89.3354 99.1236 88.5194 99.0619C87.7011 99.0152 86.894 98.8492 86.1236 98.5692C85.3294 98.2881 84.5964 97.8574 83.9641 97.3005C83.3208 96.7425 82.8737 95.9926 82.6887 95.1613C83.2696 95.6548 83.9033 96.0825 84.5782 96.4367C85.2344 96.7667 85.9106 97.0552 86.6028 97.3005C87.9727 97.7932 89.4169 98.1711 90.9421 98.8122Z" fill="#24562E"/>
</svg>
