<svg width="180" height="180" viewBox="0 0 180 180" fill="none" xmlns="http://www.w3.org/2000/svg">
<path d="M108.722 113.494L118.917 127.875C118.917 127.875 123.421 131.492 120.948 136.154C118.476 140.817 127.805 142.239 128.468 137.91C129.13 133.582 129.589 134.065 129.589 134.065C129.589 134.065 137.406 136.435 138.502 131.527C139.471 127.138 137.423 123.283 133.854 124.618C130.286 125.952 119.827 111.071 119.827 111.071L108.722 113.494Z" fill="#CEC3BC"/>
<path d="M59.1695 44.8711C38.5001 56.6794 40.3751 91.8078 73.9704 100.93C97.8288 107.409 106.393 111.422 107.37 114.31C108.348 117.199 114.72 124.073 116.368 124.311C118.017 124.548 124.686 125.548 125.91 122.888C127.133 120.228 131.577 122.563 123.267 113.573C122.477 112.695 117.473 105.943 115.502 93.1599C113.53 80.3765 102.323 20.2175 59.1695 44.8711Z" fill="#AD6F36"/>
<mask id="mask0_44_2705" style="mask-type:alpha" maskUnits="userSpaceOnUse" x="45" y="39" width="94" height="102">
<path d="M108.721 113.494L118.917 127.875C118.917 127.875 123.42 131.492 120.948 136.154C118.475 140.817 127.805 142.239 128.467 137.91C129.13 133.582 129.589 134.065 129.589 134.065C129.589 134.065 137.406 136.435 138.502 131.527C139.471 127.138 137.423 123.283 133.854 124.618C130.286 125.952 119.826 111.071 119.826 111.071L108.721 113.494Z" fill="#CEC3BC"/>
<path d="M59.1694 44.8711C38.5 56.6794 40.375 91.8078 73.9704 100.93C97.8287 107.409 106.393 111.422 107.37 114.31C108.347 117.199 114.72 124.073 116.368 124.311C118.017 124.548 124.686 125.548 125.91 122.888C127.133 120.228 131.577 122.563 123.267 113.573C122.477 112.695 117.473 105.943 115.502 93.1599C113.53 80.3765 102.323 20.2175 59.1694 44.8711Z" fill="#AD6F36"/>
</mask>
<g mask="url(#mask0_44_2705)">
<path d="M115 123C115 154.756 89.2564 180.5 57.5 180.5C25.7436 180.5 0 154.756 0 123C0 91.2436 14.2436 40 46 40C46 110 115 91.2436 115 123Z" fill="#9F632C"/>
</g>
</svg>
