<svg width="180" height="180" viewBox="0 0 180 180" fill="none" xmlns="http://www.w3.org/2000/svg">
<path d="M153.24 75.8078C153.254 76.763 153.153 77.7165 152.939 78.6476C153.034 77.6849 153.151 76.7484 153.24 75.8078Z" fill="#5E422B"/>
<path d="M150.997 83.2361C143.481 95.2796 117.898 104.753 87.2448 105.644C56.5915 106.534 30.456 98.6855 22.2122 87.1147C25.1149 82.468 30.7017 78.1997 38.2629 74.6619C50.2578 69.035 67.1665 65.2383 86.0128 64.6912C101.638 64.2156 116.087 66.0339 127.589 69.4634C138.628 72.7689 146.961 77.5602 150.997 83.2361Z" fill="#4C371D"/>
<path d="M153.242 75.6063C153.247 75.6794 153.249 75.7527 153.246 75.826C153.158 76.7667 153.063 77.7092 152.946 78.6658C152.56 80.2935 151.903 81.8447 151.003 83.2544C146.973 77.5765 138.634 72.7872 127.571 69.4896C116.069 66.0601 101.619 64.2417 85.9943 64.7173C67.1539 65.2826 50.2392 69.0612 38.2443 74.6881C30.6831 78.2258 25.1145 82.4882 22.1936 87.1409C20.5904 85.006 19.655 82.4444 19.5051 79.7787C19.4913 79.7363 19.4775 79.6939 19.4656 79.6575C18.9992 64.1635 48.5661 50.7294 85.4872 49.5918C122.144 48.4868 152.283 59.9578 153.175 75.2793C153.229 75.3623 153.233 75.4752 153.242 75.6063Z" fill="#5E422B"/>
<path d="M153.274 76.7553C153.278 76.8292 153.277 76.9032 153.273 76.977C153.188 77.9096 153.089 78.8603 152.976 79.8088C152.593 81.439 151.937 82.9925 151.035 84.4035C147.005 78.7255 138.665 73.9302 127.595 70.6346C116.101 67.2092 101.652 65.3908 86.0249 65.8603C67.1803 66.4337 50.2656 70.2122 38.2707 75.8391C30.7095 79.3769 25.1409 83.6393 22.2201 88.2919C20.6141 86.1585 19.6784 83.596 19.5315 80.9298C19.5149 80.8906 19.5017 80.85 19.492 80.8086C19.0257 65.3145 48.5865 51.8824 85.5137 50.7428C122.164 49.6398 152.309 61.1088 153.196 76.4323C153.228 76.5384 153.255 76.6462 153.274 76.7553Z" fill="#AC5226"/>
<path d="M153.241 75.7674C153.241 75.7674 153.241 75.7674 153.253 75.8037C153.255 75.7305 153.254 75.6571 153.248 75.584C153.214 75.481 153.241 75.3583 153.23 75.2413C153.261 75.415 153.265 75.5925 153.241 75.7674Z" fill="#5E422B"/>
<path d="M58.8846 80.568C58.7372 76.9291 85.1979 75.8033 87.4997 69.3548C89.8015 62.9062 106.045 61.552 108.945 65.8419C117.01 77.746 129.737 68.8568 130.576 70.9363C131.415 73.0157 120.655 87.6519 114.859 83.8569C109.063 80.0619 89.8986 92.2362 92.4375 84.9931C94.9763 77.7501 78.9183 91.003 76.26 85.4812C73.6016 79.9594 59.4471 94.013 58.8846 80.568Z" stroke="#E5CA76" stroke-width="2.83" stroke-miterlimit="10"/>
<path d="M51.4333 88.1657C51.2623 83.529 77.7194 82.3306 79.9659 74.1706C82.2125 66.0106 99.6626 61.7156 102.176 67.5327C104.689 73.3498 123.985 75.9075 124.844 78.5433C125.704 81.1792 113.28 97.6647 107.451 92.8013C101.622 87.9378 82.5541 103.225 85.0046 94.0865C87.4551 84.9483 71.534 101.602 68.8332 94.5726C66.1323 87.5429 52.0787 105.237 51.4333 88.1657Z" stroke="#E5CA76" stroke-width="3.19" stroke-miterlimit="10"/>
<path d="M104.251 88.3078C104.094 91.9387 82.323 90.9589 79.9117 97.1951C77.5005 103.431 62.8987 105.504 61.263 100.775C59.6274 96.0458 44.0401 92.6076 43.5241 90.4698C43.0081 88.332 54.3698 76.3219 58.782 80.5613C63.1942 84.8007 79.8997 74.2125 77.2355 81.2149C74.5713 88.2173 88.7883 76.3086 90.4961 82.0197C92.2039 87.7307 104.938 74.8711 104.251 88.3078Z" stroke="#E5CA76" stroke-width="1.71" stroke-miterlimit="10"/>
<path d="M134.946 81.0484C134.789 84.6793 108.303 83.4065 105.437 89.6236C102.57 95.8406 84.8397 97.7132 82.7949 92.9835C80.7501 88.2538 61.7218 84.5833 61.0689 82.4365C60.4159 80.2898 74.0763 68.4219 79.508 72.7244C84.9396 77.0269 105.125 66.645 101.975 73.618C98.825 80.591 115.975 68.8589 118.122 74.601C120.269 80.3431 135.604 67.6075 134.946 81.0484Z" stroke="#E5CA76" stroke-width="2.83" stroke-miterlimit="10"/>
<path d="M130.239 89.4543C130.082 93.0852 103.605 91.8165 100.73 98.0295C97.8554 104.242 80.1351 106.125 78.0943 101.387C76.0536 96.6497 57.0132 92.9831 56.3683 90.8405C55.7233 88.6978 69.3738 76.8197 74.7993 81.1242C80.2249 85.4287 100.416 75.0448 97.2681 82.0239C94.1203 89.0029 111.269 77.2648 113.414 83.0008C115.559 88.7369 130.898 76.0134 130.239 89.4543Z" stroke="#E5CA76" stroke-width="2.83" stroke-miterlimit="10"/>
<path d="M139.693 90.0789C139.536 93.7098 113.051 92.437 110.185 98.6541C107.318 104.871 89.5775 106.713 87.5426 102.014C85.5077 97.3146 66.4676 93.6077 65.8166 91.467C65.1655 89.3263 78.8241 77.4523 84.2557 81.7548C89.6874 86.0574 109.872 75.6755 106.722 82.6485C103.573 89.6215 120.723 77.8894 122.87 83.6315C125.017 89.3737 140.356 76.6501 139.693 90.0789Z" stroke="#E5CA76" stroke-width="2.83" stroke-miterlimit="10"/>
<path d="M141.167 85.0802C141.01 88.711 114.525 87.4382 111.652 93.6573C108.78 99.8763 91.0452 101.717 89.0164 97.0152C86.9875 92.3138 67.9413 88.609 67.2903 86.4683C66.6393 84.3276 80.2978 72.4535 85.7234 76.758C91.149 81.0626 111.346 70.6767 108.19 77.6517C105.034 84.6267 122.197 72.8906 124.344 78.6327C126.491 84.3749 141.826 71.6392 141.167 85.0802Z" stroke="#E5CA76" stroke-width="2.83" stroke-miterlimit="10"/>
<path d="M145.15 94.1721C144.995 97.809 118.51 96.5362 115.643 102.753C112.777 108.97 95.0365 110.813 93.0016 106.113C90.9666 101.414 71.9265 97.7069 71.2755 95.5662C70.6245 93.4255 84.281 81.5455 89.7126 85.848C95.1443 90.1506 115.329 79.7686 112.175 86.7497C109.022 93.7307 126.182 81.9886 128.327 87.7247C130.472 93.4608 145.803 80.713 145.15 94.1721Z" stroke="#E5CA76" stroke-width="2.83" stroke-miterlimit="10"/>
<path d="M113.369 82.1239C113.212 85.7548 86.733 84.48 83.8603 90.699C80.9876 96.918 63.2632 98.7886 61.2245 94.057C59.1857 89.3253 40.1435 85.6527 39.4985 83.51C38.8535 81.3673 52.506 69.4953 57.9315 73.7998C63.3571 78.1043 83.548 67.7205 80.3983 74.6934C77.2485 81.6664 94.405 69.9324 96.552 75.6745C98.699 81.4166 114.028 68.6829 113.369 82.1239Z" stroke="#E5CA76" stroke-width="2.83" stroke-miterlimit="10"/>
<path d="M128.419 96.1277C128.262 99.7586 101.777 98.4858 98.9105 104.703C96.0438 110.92 78.3035 112.762 76.2685 108.063C74.2336 103.363 55.1956 99.6626 54.5426 97.5158C53.8896 95.3691 67.55 83.5011 72.9756 87.8056C78.4012 92.1101 98.5982 81.7243 95.4424 88.6993C92.2865 95.6742 109.449 83.9382 111.596 89.6803C113.743 95.4225 129.078 82.6868 128.419 96.1277Z" stroke="#E5CA76" stroke-width="2.83" stroke-miterlimit="10"/>
<path d="M137.024 95.1122C136.867 98.743 110.384 97.4763 107.515 103.687C104.646 109.898 86.9199 111.783 84.8731 107.047C82.8263 102.311 63.798 98.6409 63.147 96.5002C62.496 94.3595 76.1525 82.4795 81.5841 86.782C87.0158 91.0846 107.201 80.7027 104.053 87.6817C100.905 94.6608 118.054 82.9226 120.199 88.6587C122.344 94.3947 137.683 81.6712 137.024 95.1122Z" stroke="#E5CA76" stroke-width="2.83" stroke-miterlimit="10"/>
<path d="M145.519 89.0309C145.362 92.6618 118.879 91.3951 116.01 97.6061C113.142 103.817 95.4151 105.702 93.3683 100.966C91.3215 96.2302 72.2933 92.5597 71.6422 90.419C70.9912 88.2783 84.6477 76.3983 90.0794 80.7008C95.511 85.0033 115.696 74.6215 112.548 81.6005C109.4 88.5796 126.549 76.8414 128.694 82.5775C130.839 88.3135 146.178 75.59 145.519 89.0309Z" stroke="#E5CA76" stroke-width="1.88" stroke-miterlimit="10"/>
<path d="M106.002 90.224C105.845 93.8548 79.3597 92.5821 76.487 98.8011C73.6143 105.02 55.8919 106.897 53.8511 102.159C51.8104 97.4213 32.7781 93.7588 32.1251 91.612C31.4721 89.4653 45.1325 77.5974 50.5581 81.9019C55.9837 86.2064 76.1807 75.8205 73.0249 82.7955C69.8691 89.7705 87.0316 78.0344 89.1786 83.7766C91.3256 89.5187 106.661 76.783 106.002 90.224Z" stroke="#E5CA76" stroke-width="1.88" stroke-miterlimit="10"/>
<path d="M120.865 80.4843C120.71 84.1212 94.2252 82.8484 91.3566 89.0594C88.488 95.2703 70.7615 97.155 68.7147 92.4193C66.6679 87.6835 47.6397 84.013 46.9887 81.8723C46.3377 79.7316 59.9942 67.8516 65.4258 72.1541C70.8574 76.4567 91.0423 66.0747 87.8885 73.0558C84.7346 80.0368 101.895 68.2947 104.04 74.0308C106.185 79.7668 121.524 67.0433 120.865 80.4843Z" stroke="#E5CA76" stroke-width="2.83" stroke-miterlimit="10"/>
<path d="M104.917 72.8131C105.347 77.2379 78.9871 79.9264 77.1913 87.8858C75.3955 95.8452 58.1959 100.97 55.3735 95.5622C52.5512 90.1543 33.1549 88.8092 32.1514 86.3276C31.1479 83.846 42.6644 67.3142 48.7449 71.6331C54.8254 75.952 73.0364 60.1737 71.0871 69.1016C69.1379 78.0295 84.1255 61.1033 87.2022 67.6819C90.2789 74.2606 103.327 56.4853 104.917 72.8131Z" stroke="#E5CA76" stroke-width="2.08" stroke-miterlimit="10"/>
<path d="M123.074 89.0282C122.848 93.4124 93.7977 92.0442 90.6021 99.555C87.4065 107.066 67.9293 109.441 65.7096 103.722C63.4899 98.004 42.6094 93.7308 41.9109 91.1564C41.2123 88.5821 56.2903 74.1739 62.1899 79.3361C68.0895 84.4983 90.3693 71.8446 86.8633 80.2745C83.3573 88.7043 102.278 74.4444 104.595 81.3445C106.911 88.2447 123.884 72.823 123.074 89.0282Z" stroke="#E5CA76" stroke-width="3.25" stroke-miterlimit="10"/>
<path d="M100.338 87.2037C100.183 90.8407 73.7037 89.5659 70.831 95.7849C67.9583 102.004 50.2339 103.875 48.1952 99.1429C46.1564 94.4112 27.1141 90.7386 26.4691 88.5959C25.8242 86.4532 39.4746 74.5751 44.9002 78.8797C50.3258 83.1842 70.5167 72.8003 67.3689 79.7794C64.2211 86.7584 81.3757 75.0183 83.5207 80.7543C85.6657 86.4904 100.997 73.7628 100.338 87.2037Z" stroke="#E5CA76" stroke-width="2.83" stroke-miterlimit="10"/>
<path d="M93.1065 74.6733L92.0816 73.0065L90.8926 73.7376L91.9175 75.4044L93.1065 74.6733Z" fill="#43B549"/>
<path d="M91.9007 75.395C92.0686 75.2917 91.976 74.8362 91.6939 74.3774C91.4118 73.9187 91.047 73.6304 90.8791 73.7337C90.7112 73.8369 90.8037 74.2926 91.0858 74.7513C91.3679 75.2101 91.7327 75.4982 91.9007 75.395Z" fill="#43B549"/>
<path d="M93.0906 74.6624C93.2585 74.5592 93.166 74.1035 92.8839 73.6448C92.6018 73.186 92.237 72.8979 92.069 73.0011C91.9011 73.1044 91.9937 73.5599 92.2758 74.0187C92.5579 74.4774 92.9227 74.7657 93.0906 74.6624Z" fill="#389B47"/>
<path d="M87.9223 75.3795L86.7673 73.501L85.4317 74.3223L86.5868 76.2007L87.9223 75.3795Z" fill="#43B549"/>
<path d="M86.5638 76.1991C86.7557 76.0811 86.6526 75.5649 86.3337 75.0461C86.0147 74.5274 85.6006 74.2026 85.4087 74.3206C85.2168 74.4386 85.3198 74.9547 85.6387 75.4735C85.9577 75.9922 86.3719 76.3171 86.5638 76.1991Z" fill="#43B549"/>
<path d="M87.904 75.3761C88.0959 75.2581 87.9928 74.7419 87.6738 74.2232C87.3548 73.7045 86.9408 73.3796 86.7489 73.4976C86.557 73.6156 86.66 74.1318 86.9789 74.6505C87.2979 75.1692 87.7121 75.4941 87.904 75.3761Z" fill="#389B47"/>
<path d="M87.521 79.1728L86.4961 77.506L85.3071 78.2371L86.332 79.9039L87.521 79.1728Z" fill="#43B549"/>
<path d="M86.3174 79.8903C86.4853 79.7871 86.3927 79.3315 86.1106 78.8727C85.8285 78.414 85.4638 78.1258 85.2959 78.229C85.1279 78.3323 85.2205 78.7879 85.5026 79.2466C85.7847 79.7054 86.1495 79.9936 86.3174 79.8903Z" fill="#43B549"/>
<path d="M87.5017 79.1611C87.6696 79.0578 87.577 78.6022 87.2949 78.1435C87.0128 77.6847 86.6481 77.3965 86.4801 77.4998C86.3122 77.603 86.4048 78.0586 86.6869 78.5174C86.9689 78.9761 87.3338 79.2643 87.5017 79.1611Z" fill="#389B47"/>
<path d="M93.5258 82.4787L92.501 80.812L91.312 81.5432L92.3369 83.2099L93.5258 82.4787Z" fill="#43B549"/>
<path d="M92.3276 83.1867C92.4955 83.0834 92.4029 82.6278 92.1208 82.1691C91.8387 81.7103 91.474 81.4221 91.3061 81.5254C91.1381 81.6286 91.2307 82.0842 91.5128 82.543C91.7949 83.0017 92.1597 83.2899 92.3276 83.1867Z" fill="#43B549"/>
<path d="M93.5142 82.4633C93.6821 82.3601 93.5895 81.9045 93.3074 81.4458C93.0253 80.987 92.6606 80.6988 92.4926 80.802C92.3247 80.9053 92.4173 81.3609 92.6994 81.8197C92.9815 82.2784 93.3463 82.5666 93.5142 82.4633Z" fill="#389B47"/>
<path d="M90.9496 74.8217L89.0802 74.2437L88.6679 75.5772L90.5373 76.1552L90.9496 74.8217Z" fill="#43B549"/>
<path d="M90.6484 76.1418C90.7066 75.9535 90.3368 75.6718 89.8222 75.5127C89.3077 75.3537 88.8434 75.3774 88.7852 75.5657C88.727 75.754 89.0969 76.0356 89.6114 76.1947C90.1259 76.3538 90.5902 76.3302 90.6484 76.1418Z" fill="#43B549"/>
<path d="M91.0546 74.8081C91.1128 74.6198 90.7429 74.3381 90.2284 74.179C89.7139 74.02 89.2496 74.0437 89.1914 74.232C89.1331 74.4203 89.5031 74.7019 90.0176 74.861C90.5321 75.0201 90.9963 74.9964 91.0546 74.8081Z" fill="#389B47"/>
<path d="M93.2999 76.4735L91.6989 75.3487L90.8965 76.4907L92.4975 77.6156L93.2999 76.4735Z" fill="#43B549"/>
<path d="M92.5257 77.6175C92.6391 77.4562 92.3737 77.0744 91.9331 76.7648C91.4924 76.4552 91.0433 76.335 90.93 76.4963C90.8167 76.6576 91.0821 77.0393 91.5227 77.3489C91.9634 77.6585 92.4124 77.7787 92.5257 77.6175Z" fill="#43B549"/>
<path d="M93.3188 76.4794C93.4321 76.3181 93.1668 75.9364 92.7261 75.6268C92.2855 75.3172 91.8363 75.197 91.723 75.3582C91.6097 75.5195 91.8751 75.9012 92.3157 76.2108C92.7564 76.5205 93.2054 76.6407 93.3188 76.4794Z" fill="#389B47"/>
<path d="M91.9297 77.2171L89.9735 77.1719L89.9413 78.5673L91.8975 78.6125L91.9297 77.2171Z" fill="#43B549"/>
<path d="M91.8438 78.6303C91.8483 78.4333 91.4155 78.2634 90.8771 78.251C90.3387 78.2386 89.8986 78.3883 89.894 78.5853C89.8895 78.7824 90.3222 78.9522 90.8607 78.9646C91.3991 78.977 91.8392 78.8274 91.8438 78.6303Z" fill="#43B549"/>
<path d="M91.8779 77.2431C91.8825 77.0461 91.4497 76.8762 90.9113 76.8638C90.3729 76.8513 89.9328 77.0011 89.9282 77.1981C89.9237 77.3952 90.3564 77.565 90.8948 77.5774C91.4332 77.5898 91.8734 77.4402 91.8779 77.2431Z" fill="#389B47"/>
<path d="M94.7535 78.7525L93.7286 77.0857L92.5396 77.8168L93.5646 79.4836L94.7535 78.7525Z" fill="#43B549"/>
<path d="M93.5536 79.4659C93.7215 79.3627 93.6289 78.9071 93.3468 78.4483C93.0647 77.9896 92.7 77.7014 92.5321 77.8046C92.3641 77.9079 92.4567 78.3635 92.7388 78.8222C93.0209 79.281 93.3857 79.5692 93.5536 79.4659Z" fill="#43B549"/>
<path d="M94.7384 78.7367C94.9064 78.6334 94.8137 78.1778 94.5317 77.7191C94.2496 77.2603 93.8848 76.9721 93.7169 77.0753C93.549 77.1786 93.6415 77.6342 93.9236 78.093C94.2057 78.5517 94.5705 78.8399 94.7384 78.7367Z" fill="#389B47"/>
<path d="M95.2721 81.2014L95.4294 79.2511L94.0382 79.1389L93.8808 81.0892L95.2721 81.2014Z" fill="#43B549"/>
<path d="M94.4754 80.2163C94.5187 79.6795 94.3945 79.2316 94.1981 79.2157C94.0016 79.1999 93.8072 79.6221 93.7639 80.1589C93.7206 80.6957 93.8448 81.1438 94.0412 81.1596C94.2377 81.1755 94.4321 80.7531 94.4754 80.2163Z" fill="#43B549"/>
<path d="M95.861 80.3337C95.9043 79.7969 95.7801 79.349 95.5836 79.3331C95.3872 79.3173 95.1928 79.7395 95.1495 80.2763C95.1062 80.8131 95.2303 81.2612 95.4268 81.277C95.6233 81.2929 95.8177 80.8705 95.861 80.3337Z" fill="#389B47"/>
<path d="M96.8953 78.4557L96.9404 76.4996L95.545 76.4674L95.4999 78.4235L96.8953 78.4557Z" fill="#43B549"/>
<path d="M95.8066 77.4237C95.819 76.8853 95.6694 76.4451 95.4723 76.4405C95.2752 76.436 95.1054 76.8688 95.093 77.4072C95.0806 77.9456 95.2302 78.3858 95.4273 78.3903C95.6244 78.3949 95.7942 77.9621 95.8066 77.4237Z" fill="#43B549"/>
<path d="M97.2005 77.4579C97.2129 76.9195 97.0632 76.4793 96.8662 76.4748C96.6691 76.4703 96.4993 76.903 96.4869 77.4415C96.4744 77.9799 96.6241 78.4199 96.8212 78.4245C97.0182 78.429 97.1881 77.9963 97.2005 77.4579Z" fill="#389B47"/>
<path d="M96.5535 76.084L95.5286 74.4173L94.3396 75.1484L95.3645 76.8151L96.5535 76.084Z" fill="#43B549"/>
<path d="M95.3483 76.7993C95.5162 76.6961 95.4236 76.2405 95.1415 75.7817C94.8594 75.323 94.4947 75.0348 94.3268 75.138C94.1589 75.2413 94.2514 75.6969 94.5335 76.1556C94.8156 76.6144 95.1804 76.9026 95.3483 76.7993Z" fill="#43B549"/>
<path d="M96.5344 76.0761C96.7023 75.9728 96.6097 75.5173 96.3276 75.0585C96.0455 74.5998 95.6808 74.3115 95.5129 74.4148C95.345 74.518 95.4375 74.9737 95.7196 75.4324C96.0017 75.8912 96.3665 76.1793 96.5344 76.0761Z" fill="#389B47"/>
<path d="M84.7934 75.1942L83.2603 73.6092L82.1333 74.6993L83.6665 76.2843L84.7934 75.1942Z" fill="#43B549"/>
<path d="M83.6339 76.2781C83.7958 76.1215 83.5839 75.6397 83.1605 75.202C82.7371 74.7643 82.2627 74.5365 82.1007 74.6931C81.9388 74.8497 82.1508 75.3315 82.5741 75.7692C82.9975 76.2069 83.472 76.4347 83.6339 76.2781Z" fill="#43B549"/>
<path d="M84.7661 75.1825C84.928 75.0259 84.7161 74.5441 84.2927 74.1064C83.8693 73.6687 83.3948 73.4409 83.2329 73.5975C83.071 73.7542 83.2829 74.2359 83.7063 74.6736C84.1297 75.1113 84.6042 75.3392 84.7661 75.1825Z" fill="#389B47"/>
<path d="M81.3954 78.8421L80.3705 77.1754L79.1815 77.9065L80.2064 79.5732L81.3954 78.8421Z" fill="#43B549"/>
<path d="M80.1935 79.5574C80.3614 79.4541 80.2689 78.9985 79.9868 78.5398C79.7047 78.081 79.3399 77.7928 79.172 77.8961C79.0041 77.9993 79.0967 78.4549 79.3788 78.9137C79.6609 79.3724 80.0256 79.6606 80.1935 79.5574Z" fill="#43B549"/>
<path d="M81.3783 78.828C81.5462 78.7247 81.4537 78.2691 81.1716 77.8104C80.8895 77.3516 80.5247 77.0634 80.3568 77.1667C80.1888 77.2699 80.2815 77.7255 80.5636 78.1843C80.8456 78.643 81.2104 78.9312 81.3783 78.828Z" fill="#389B47"/>
<path d="M81.9031 81.507L80.8782 79.8403L79.6892 80.5714L80.7141 82.2381L81.9031 81.507Z" fill="#43B549"/>
<path d="M80.696 82.2236C80.8639 82.1203 80.7713 81.6648 80.4892 81.206C80.2071 80.7472 79.8424 80.459 79.6745 80.5623C79.5066 80.6655 79.5991 81.1211 79.8812 81.5799C80.1633 82.0387 80.5281 82.3268 80.696 82.2236Z" fill="#43B549"/>
<path d="M81.886 81.4909C82.0539 81.3876 81.9613 80.932 81.6792 80.4733C81.3971 80.0145 81.0324 79.7263 80.8645 79.8296C80.6965 79.9328 80.7891 80.3884 81.0712 80.8472C81.3533 81.3059 81.7181 81.5941 81.886 81.4909Z" fill="#389B47"/>
<path d="M86.2128 83.3819L85.1879 81.7152L83.9989 82.4463L85.0238 84.1131L86.2128 83.3819Z" fill="#43B549"/>
<path d="M85.0165 84.0997C85.1844 83.9964 85.0919 83.5409 84.8098 83.0821C84.5277 82.6234 84.1629 82.3351 83.995 82.4384C83.8271 82.5416 83.9196 82.9973 84.2017 83.456C84.4838 83.9148 84.8486 84.2029 85.0165 84.0997Z" fill="#43B549"/>
<path d="M86.1955 83.3723C86.3635 83.269 86.2709 82.8135 85.9888 82.3547C85.7067 81.896 85.3419 81.6077 85.174 81.711C85.0061 81.8142 85.0986 82.2699 85.3807 82.7286C85.6628 83.1874 86.0276 83.4755 86.1955 83.3723Z" fill="#389B47"/>
<path d="M84.9984 76.9507L82.8916 76.2992L82.4285 77.7971L84.5352 78.4485L84.9984 76.9507Z" fill="#43B549"/>
<path d="M84.6542 78.4335C84.7208 78.2183 84.3031 77.898 83.7213 77.7181C83.1396 77.5382 82.614 77.5669 82.5475 77.7821C82.4809 77.9973 82.8986 78.3176 83.4803 78.4975C84.0621 78.6774 84.5877 78.6487 84.6542 78.4335Z" fill="#43B549"/>
<path d="M85.1098 76.934C85.1763 76.7188 84.7587 76.3985 84.1769 76.2186C83.5951 76.0387 83.0696 76.0673 83.003 76.2825C82.9365 76.4978 83.3541 76.8181 83.9359 76.998C84.5177 77.1778 85.0432 77.1492 85.1098 76.934Z" fill="#389B47"/>
<path d="M82.4374 76.3188L80.6331 75.051L79.7317 76.3339L81.5361 77.6016L82.4374 76.3188Z" fill="#43B549"/>
<path d="M81.5697 77.6099C81.6993 77.4256 81.4003 76.9924 80.9021 76.6423C80.4038 76.2922 79.8949 76.1578 79.7654 76.3422C79.6359 76.5265 79.9348 76.9597 80.4331 77.3098C80.9313 77.6599 81.4402 77.7943 81.5697 77.6099Z" fill="#43B549"/>
<path d="M82.471 76.3268C82.6005 76.1425 82.3015 75.7093 81.8033 75.3592C81.305 75.0091 80.7961 74.8747 80.6666 75.0591C80.5371 75.2434 80.836 75.6766 81.3343 76.0267C81.8325 76.3768 82.3415 76.5111 82.471 76.3268Z" fill="#389B47"/>
<path d="M84.6641 79.4897L82.708 79.4445L82.6758 80.84L84.6318 80.8851L84.6641 79.4897Z" fill="#43B549"/>
<path d="M84.5821 80.9017C84.5866 80.7046 84.1538 80.5348 83.6154 80.5224C83.077 80.51 82.6369 80.6596 82.6323 80.8567C82.6278 81.0537 83.0605 81.2236 83.5989 81.236C84.1374 81.2485 84.5775 81.0987 84.5821 80.9017Z" fill="#43B549"/>
<path d="M84.6164 79.5081C84.6209 79.311 84.1881 79.1412 83.6497 79.1288C83.1113 79.1164 82.6712 79.266 82.6667 79.4631C82.6621 79.6602 83.0949 79.83 83.6333 79.8424C84.1717 79.8549 84.6118 79.7052 84.6164 79.5081Z" fill="#389B47"/>
<path d="M89.2852 81.3874L88.1301 79.509L86.7946 80.3302L87.9496 82.2087L89.2852 81.3874Z" fill="#43B549"/>
<path d="M87.9393 82.1971C88.1312 82.0791 88.0281 81.5629 87.7092 81.0442C87.3902 80.5255 86.9761 80.2006 86.7842 80.3186C86.5923 80.4366 86.6953 80.9528 87.0142 81.4715C87.3332 81.9902 87.7474 82.3151 87.9393 82.1971Z" fill="#43B549"/>
<path d="M89.2711 81.372C89.463 81.254 89.3599 80.7379 89.0409 80.2192C88.722 79.7005 88.3079 79.3756 88.116 79.4936C87.9241 79.6116 88.0271 80.1277 88.3461 80.6465C88.665 81.1652 89.0792 81.49 89.2711 81.372Z" fill="#389B47"/>
<path d="M89.6573 83.5391L89.8146 81.5888L88.4234 81.4766L88.266 83.4268L89.6573 83.5391Z" fill="#43B549"/>
<path d="M88.8571 82.5532C88.9005 82.0163 88.7763 81.5683 88.5798 81.5525C88.3833 81.5366 88.1889 81.9589 88.1456 82.4958C88.1023 83.0326 88.2265 83.4806 88.423 83.4964C88.6195 83.5123 88.8138 83.09 88.8571 82.5532Z" fill="#43B549"/>
<path d="M90.2498 82.6647C90.2931 82.1279 90.1689 81.68 89.9724 81.6641C89.7759 81.6483 89.5816 82.0705 89.5383 82.6073C89.4949 83.1441 89.6191 83.5922 89.8156 83.608C90.0121 83.6239 90.2065 83.2015 90.2498 82.6647Z" fill="#389B47"/>
<path d="M93.9386 77.3724L93.9879 75.176L92.4264 75.141L92.377 77.3373L93.9386 77.3724Z" fill="#43B549"/>
<path d="M90.4909 79.8962C90.5049 79.2874 90.3338 78.7896 90.1086 78.7844C89.8833 78.7792 89.6894 79.2686 89.6753 79.8774C89.6613 80.4861 89.8325 80.9839 90.0577 80.9891C90.2829 80.9943 90.4768 80.505 90.4909 79.8962Z" fill="#43B549"/>
<path d="M92.0552 79.936C92.0693 79.3272 91.8981 78.8295 91.6729 78.8243C91.4477 78.8191 91.2537 79.3084 91.2397 79.9172C91.2256 80.526 91.3968 81.0237 91.622 81.0289C91.8472 81.0341 92.0412 80.5448 92.0552 79.936Z" fill="#389B47"/>
<path d="M89.0807 77.8229L88.0558 76.1562L86.8669 76.8873L87.8917 78.554L89.0807 77.8229Z" fill="#43B549"/>
<path d="M87.8724 78.5437C88.0403 78.4404 87.9477 77.9849 87.6656 77.5261C87.3835 77.0673 87.0188 76.7791 86.8509 76.8824C86.683 76.9856 86.7755 77.4412 87.0576 77.9C87.3397 78.3588 87.7045 78.6469 87.8724 78.5437Z" fill="#43B549"/>
<path d="M89.0629 77.811C89.2308 77.7078 89.1382 77.2522 88.8561 76.7934C88.574 76.3346 88.2093 76.0464 88.0414 76.1497C87.8735 76.2529 87.966 76.7085 88.2481 77.1673C88.5302 77.6261 88.895 77.9143 89.0629 77.811Z" fill="#389B47"/>
<path d="M75.8483 73.2809C74.8364 78.8128 70.9592 79.9361 66.5808 79.1313C62.2024 78.3265 58.9715 75.9008 59.9854 70.375C60.9993 64.8491 65.8353 59.2033 70.2178 60.0001C74.6003 60.7968 76.842 67.7549 75.8483 73.2809Z" fill="#FCEFCE"/>
<path d="M69.4095 78.122C72.0365 77.2655 73.4718 74.4415 72.6153 71.8145C71.7588 69.1874 68.9348 67.7521 66.3078 68.6087C63.6808 69.4652 62.2454 72.2891 63.1019 74.9162C63.9584 77.5432 66.7824 78.9785 69.4095 78.122Z" fill="#F6C048"/>
<path d="M57.6794 72.5747C59.4219 77.9192 56.511 80.7519 52.2676 82.1086C48.0241 83.4653 44.0354 82.8485 42.3233 77.4942C40.6111 72.1399 42.231 64.8746 46.4805 63.516C50.73 62.1573 55.9751 67.2446 57.6794 72.5747Z" fill="#FCEFCE"/>
<path d="M52.2492 81.1895C54.8762 80.333 56.3116 77.509 55.4551 74.8819C54.5986 72.2549 51.7745 70.8196 49.1475 71.6761C46.5205 72.5326 45.0852 75.3566 45.9417 77.9836C46.7982 80.6107 49.6221 82.046 52.2492 81.1895Z" fill="#F6C048"/>
<path d="M125.903 78.2116C122.35 77.6402 118.709 78.0268 115.355 79.3313C105.419 83.1941 99.7411 92.4663 102.676 100.07C103.164 101.482 104.003 102.748 105.115 103.747C106.226 104.746 107.573 105.446 109.029 105.781C105.518 105.291 102.793 103.471 101.376 99.8235C98.4265 92.2379 104.095 82.9556 114.055 79.0849C117.828 77.6171 121.955 77.313 125.903 78.2116Z" fill="#896929"/>
<path d="M122.777 103.229C117.627 105.237 112.859 106.282 109.059 105.771C107.603 105.436 106.256 104.736 105.144 103.737C104.033 102.738 103.194 101.472 102.706 100.06C99.7568 92.4744 105.431 83.1901 115.385 79.3214C118.739 78.0168 122.38 77.6304 125.933 78.2018C131.51 79.4538 136.156 82.9732 137.922 87.5257C140.841 95.1211 132.713 99.3666 122.777 103.229Z" fill="#E0B762"/>
<path d="M107.38 92.0872C108.917 85.1439 116.085 80.4003 123.372 81.5104C129.215 82.3873 132.96 87.6018 131.734 93.1565C130.75 97.6002 126.132 100.647 121.489 99.9357C117.746 99.3729 115.345 96.0396 116.137 92.4835C116.493 91.074 117.363 89.8481 118.575 89.0451C119.787 88.2422 121.255 87.9198 122.692 88.1409C123.242 88.2035 123.773 88.3806 124.25 88.6609C124.728 88.9412 125.141 89.3184 125.464 89.7683C125.787 90.2182 126.012 90.7307 126.125 91.2728C126.238 91.815 126.235 92.3747 126.119 92.916C125.889 93.8176 125.333 94.6015 124.557 95.1147C123.781 95.628 122.842 95.8338 121.922 95.6919C121.571 95.6502 121.233 95.5359 120.928 95.3564C120.624 95.1768 120.36 94.9359 120.153 94.6489C119.947 94.3619 119.803 94.0351 119.729 93.6893C119.656 93.3435 119.655 92.9862 119.727 92.6401C119.872 92.0622 120.228 91.5593 120.725 91.23C121.221 90.9007 121.823 90.7687 122.412 90.86C122.637 90.8853 122.855 90.9576 123.051 91.0721C123.246 91.1866 123.416 91.3409 123.549 91.525C123.681 91.709 123.774 91.9189 123.821 92.1409C123.867 92.3629 123.867 92.5923 123.82 92.8142" stroke="#E5CA76" stroke-width="0.68" stroke-miterlimit="10" stroke-linecap="round"/>
<path d="M103.926 83.3254C100.373 82.754 96.732 83.1406 93.378 84.4451C83.4364 88.3099 77.7643 97.5801 80.6992 105.184C81.1876 106.596 82.0276 107.86 83.1399 108.858C84.2521 109.856 85.6001 110.554 87.0568 110.887C83.547 110.402 80.8219 108.583 79.3988 104.937C76.4497 97.3517 82.1179 88.0694 92.0777 84.1987C95.8514 82.7309 99.9783 82.4268 103.926 83.3254Z" fill="#896929"/>
<path d="M100.795 108.345C96.3697 110.07 92.2293 111.084 88.7389 111.009C88.1844 110.994 87.6311 110.951 87.081 110.879C85.624 110.544 84.276 109.845 83.1636 108.846C82.0512 107.847 81.2108 106.582 80.7215 105.17C77.7784 97.5822 83.4486 88.306 93.4023 84.4373C96.7553 83.1316 100.396 82.743 103.949 83.3115C105.415 83.6369 106.838 84.1312 108.19 84.7845C111.808 86.5276 114.644 89.3034 115.932 92.6374C118.861 100.223 110.737 104.48 100.795 108.345Z" fill="#E0B762"/>
<path opacity="0.58" d="M105.62 109.903C100.47 111.91 95.7023 112.955 91.9024 112.445C90.7724 112.177 89.7046 111.695 88.7575 111.023C92.2479 111.098 96.3883 110.084 100.814 108.359C110.755 104.495 118.881 100.243 115.926 92.6595C114.638 89.3255 111.802 86.5496 108.184 84.8066L108.758 84.8809C114.337 86.139 118.983 89.6584 120.749 94.2109C123.68 101.782 115.552 106.028 105.62 109.903Z" fill="#C0964B"/>
<path d="M85.4036 97.2009C86.9328 90.2535 94.1028 85.516 101.396 86.6241C107.245 87.499 110.99 92.7136 109.758 98.2702C108.779 102.712 104.192 105.749 99.5128 105.049C98.6535 104.951 97.8242 104.675 97.0784 104.237C96.3325 103.799 95.6867 103.21 95.1823 102.507C94.6779 101.805 94.3262 101.004 94.1499 100.158C93.9735 99.3109 93.9764 98.4366 94.1583 97.5911C94.5176 96.1831 95.388 94.9592 96.5999 94.1577C97.8119 93.3561 99.2788 93.0342 100.715 93.2546C101.265 93.3166 101.796 93.4931 102.273 93.7729C102.75 94.0526 103.164 94.4294 103.486 94.8788C103.809 95.3282 104.034 95.8402 104.147 96.3819C104.259 96.9236 104.257 97.4828 104.14 98.0236C103.912 98.926 103.356 99.7108 102.58 100.224C101.803 100.738 100.863 100.943 99.9439 100.8C99.5932 100.757 99.2551 100.642 98.9511 100.462C98.6471 100.282 98.3839 100.041 98.1781 99.7539C97.9723 99.4667 97.8284 99.14 97.7555 98.7943C97.6827 98.4486 97.6825 98.0915 97.755 97.7458C97.9026 97.1693 98.2594 96.6684 98.7559 96.3405C99.2524 96.0126 99.8531 95.8811 100.441 95.9717C100.666 95.9978 100.884 96.0706 101.079 96.1856C101.274 96.3006 101.443 96.4552 101.575 96.6394C101.707 96.8236 101.799 97.0334 101.846 97.2553C101.892 97.4772 101.891 97.7063 101.843 97.9279" stroke="#E5CA76" stroke-width="0.68" stroke-miterlimit="10" stroke-linecap="round"/>
<path d="M152.94 78.6477C150.82 96.6743 145.664 115.59 124.809 125.869C104.225 136.012 74.6546 138.581 48.7192 124.828C26.0938 112.818 19.6949 86.7556 19.4826 79.8128L19.4688 79.7704C19.6187 82.4361 20.5542 84.9977 22.1574 87.1325C30.383 98.7092 56.5022 106.59 87.19 105.662C117.878 104.733 143.468 95.2836 150.942 83.254C151.864 81.8425 152.539 80.285 152.94 78.6477Z" fill="#5E422B"/>
<path d="M39.3672 92.1333L39.3164 93.7252C39.3164 93.7252 41.1579 93.2052 45.0826 92.5156C49.0072 91.8259 54.7115 92.3794 54.7115 92.3794C54.7115 92.3794 55.9319 91.5994 55.6555 90.7309C55.379 89.8624 42.6288 90.5202 39.3672 92.1333Z" fill="#D2A432"/>
<path d="M39.345 92.7439L38.9022 94.5106C38.9022 94.5106 40.7457 93.9967 44.6683 93.301C48.591 92.6053 54.2972 93.1648 54.2972 93.1648L55.5435 91.5183C55.5435 91.5183 42.6086 91.1369 39.345 92.7439Z" fill="#E2B73C"/>
<path d="M42.4462 95.8823L42.2927 97.4675C42.2927 97.4675 44.1757 97.0747 48.1249 96.6452C52.074 96.2157 57.7372 97.1781 57.7372 97.1781C57.7372 97.1781 59.0055 96.4831 58.7897 95.5747C58.574 94.6663 45.8111 94.5036 42.4462 95.8823Z" fill="#D2A432"/>
<path d="M42.3835 96.4926L41.8157 98.2262C41.8157 98.2262 43.6988 97.8335 47.6479 97.404C51.5971 96.9745 57.2664 97.9349 57.2664 97.9349L58.6209 96.3737C58.6209 96.3737 45.7483 95.1139 42.3835 96.4926Z" fill="#E2B73C"/>
<path d="M47.8298 92.4511L47.4163 94.0204C47.4163 94.0204 49.3113 93.9523 53.3085 94.1842C57.3057 94.4161 62.7169 96.312 62.7169 96.312C62.7169 96.312 64.0924 95.8635 64.0221 94.9077C63.9518 93.9519 51.3782 91.6561 47.8298 92.4511Z" fill="#D2A432"/>
<path d="M47.6689 93.0465L46.8522 94.6535C46.8522 94.6535 48.7472 94.5854 52.7383 94.8193C56.7295 95.0531 62.1467 96.9471 62.1467 96.9471L63.7314 95.6394C63.7314 95.6394 51.1992 92.2575 47.6689 93.0465Z" fill="#E2B73C"/>
<path d="M46.8861 96.5262L46.4628 98.0652C46.4628 98.0652 48.3578 97.9971 52.349 98.2309C56.3401 98.4648 61.7554 100.353 61.7554 100.353C61.7554 100.353 63.1309 99.9042 63.0565 98.9564C62.9821 98.0087 50.4306 95.7191 46.8861 96.5262Z" fill="#D2A432"/>
<path d="M46.7475 97.1078L45.9307 98.7148C45.9307 98.7148 47.8257 98.6467 51.8168 98.8805C55.8079 99.1144 61.2232 101.002 61.2232 101.002L62.8099 99.7007C62.8099 99.7007 50.2717 96.3208 46.7475 97.1078Z" fill="#E2B73C"/>
<path d="M44.1706 88.0937L43.7473 89.6328C43.7473 89.6328 45.6423 89.5647 49.6334 89.7985C53.6245 90.0324 59.0418 91.9263 59.0418 91.9263C59.0418 91.9263 60.4173 91.4779 60.3409 90.524C60.2646 89.5702 47.719 87.2988 44.1706 88.0937Z" fill="#D2A432"/>
<path d="M44.003 88.6912L43.1862 90.2982C43.1862 90.2982 45.0812 90.2301 49.0723 90.4639C53.0635 90.6978 58.4807 92.5918 58.4807 92.5918L60.0654 91.2841C60.0654 91.2841 47.5575 87.8943 44.003 88.6912Z" fill="#E2B73C"/>
<path d="M37.6195 93.0853L37.1962 94.6243C37.1962 94.6243 39.0913 94.5562 43.0824 94.79C47.0735 95.0239 52.4908 96.9178 52.4908 96.9178C52.4908 96.9178 53.8663 96.4694 53.7899 95.5156C53.7136 94.5618 41.1559 92.2943 37.6195 93.0853Z" fill="#D2A432"/>
<path d="M37.4564 93.6747L36.6396 95.2817C36.6396 95.2817 38.5346 95.2136 42.5257 95.4474C46.5169 95.6813 51.9341 97.5752 51.9341 97.5752L53.5188 96.2676C53.5188 96.2676 40.9988 92.8818 37.4564 93.6747Z" fill="#E2B73C"/>
</svg>
