<svg width="180" height="178" viewBox="0 0 180 178" fill="none" xmlns="http://www.w3.org/2000/svg">
<path d="M125.567 74.8777C117.481 73.8492 101.786 91.0445 101.786 91.0445C101.786 91.0445 101.143 98.76 107.873 97.0533C114.603 95.3467 125.497 108.959 129.556 97.3778C133.614 85.7961 157.254 80.5078 154.427 75.1491C151.6 69.7903 133.766 81.9106 136.932 74.7141C140.099 67.5177 134.96 76.0575 125.567 74.8777Z" fill="#628E30"/>
<path d="M113.828 93.5492C105.739 92.5163 90.0394 109.715 90.0394 109.715C90.0394 109.715 89.4008 117.427 96.1262 115.724C102.852 114.021 113.75 127.63 117.813 116.045C121.876 104.46 145.507 99.1784 142.684 93.8161C139.862 88.4539 122.019 100.581 125.189 93.3892C128.359 86.1973 123.204 94.7351 113.828 93.5492Z" fill="#6F9A3F"/>
<path d="M109.457 66.6023C101.371 65.5739 85.6718 82.7727 85.6718 82.7727C85.6718 82.7727 85.0332 90.4846 91.7586 88.7815C98.484 87.0784 109.383 100.688 113.446 89.1024C117.508 77.5173 141.139 72.236 138.317 66.8737C135.494 61.5115 117.651 73.6387 120.818 66.4423C123.984 59.2458 118.823 67.8031 109.457 66.6023Z" fill="#6F9A3F"/>
<path d="M48.8668 100.002C53.8599 108.286 75.2196 112.62 75.2196 112.62C75.2196 112.62 80.3509 108.518 74.6532 103.19C68.9555 97.8624 69.6299 79.2299 59.7742 82.4496C49.9185 85.6693 30.2706 66.5855 29.001 72.5185C27.7313 78.4515 47.4776 87.938 40.887 89.3205C34.2964 90.7029 43.0769 90.4075 48.8668 100.002Z" fill="#6F9A3F"/>
<path d="M63.1061 98.8023C68.0766 107.103 89.4589 111.42 89.4589 111.42C89.4589 111.42 94.5902 107.318 88.8925 101.99C83.1947 96.6624 83.8692 78.03 74.0194 81.2667C64.1697 84.5035 44.5074 65.373 43.2357 71.3221C41.964 77.2711 61.7124 86.7416 55.1218 88.124C48.5312 89.5064 57.3161 89.2075 63.1061 98.8023Z" fill="#6F9A3F"/>
<path d="M37.4976 106.42C42.4952 114.7 63.8504 119.038 63.8504 119.038C63.8504 119.038 68.9817 114.936 63.284 109.608C57.5862 104.28 58.2607 85.6477 48.4065 88.8879C38.5522 92.1282 18.9059 72.9998 17.6067 78.9412C16.3075 84.8826 36.0834 94.3607 29.4928 95.7431C22.9022 97.1255 31.7122 96.8217 37.4976 106.42Z" fill="#6F9A3F"/>
<path d="M67.0061 95.9185C72.0027 104.206 93.3589 108.536 93.3589 108.536C93.3589 108.536 98.4902 104.434 92.7959 99.1108C87.1017 93.7876 87.7727 75.1507 77.9139 78.3944C68.0551 81.6381 48.4099 62.5017 47.1302 68.4497C45.8504 74.3977 65.6033 83.8647 59.0162 85.2517C52.4291 86.6386 61.2161 86.3237 67.0061 95.9185Z" fill="#6F9A3F"/>
<path d="M89.1506 112.871C94.1437 121.154 115.503 125.489 115.503 125.489C115.503 125.489 120.631 121.382 114.937 116.059C109.243 110.736 109.9 92.0805 100.062 95.3514C90.2241 98.6222 70.5659 79.4597 69.2782 85.4067C67.9905 91.3536 87.7514 100.822 81.1643 102.209C74.5772 103.596 83.3652 103.273 89.1506 112.871Z" fill="#6F9A3F"/>
<path d="M74.6396 91.5139C79.6101 99.8146 100.992 104.132 100.992 104.132C100.992 104.132 106.124 100.03 100.429 94.7063C94.7352 89.3831 95.4062 70.7461 85.5474 73.9899C75.6886 77.2336 56.0479 58.0937 54.7636 64.0452C53.4794 69.9966 73.2368 79.4602 66.6497 80.8471C60.0626 82.2341 68.8566 81.9282 74.6396 91.5139Z" fill="#6F9A3F"/>
<path d="M96.9108 81.0539C93.8259 71.5127 73.8895 60.1735 73.8895 60.1735C73.8895 60.1735 67.9828 62.3195 72.3799 69.2803C76.777 76.2412 72.0859 93.7112 82.4326 93.9668C92.7793 94.2223 107.818 119.019 110.375 113.817C112.931 108.615 95.6845 92.9375 102.397 93.8429C109.11 94.7483 100.495 92.1291 96.9108 81.0539Z" fill="#628E31"/>
<path d="M63.649 73.3323C63.0557 70.3658 68.5932 70.1186 71.4361 70.3658C75.1442 70.3366 78.4816 76.2989 78.1108 77.7821C77.74 79.2654 71.4361 80.007 68.4696 80.007C65.5032 80.007 64.3906 77.0405 63.649 73.3323Z" fill="#C9A053"/>
<ellipse cx="67.313" cy="73.6306" rx="0.741629" ry="0.370815" fill="#9E772C"/>
<ellipse cx="70.2795" cy="75.1139" rx="0.741629" ry="0.370815" fill="#9E772C"/>
<ellipse cx="72.5041" cy="73.6306" rx="0.741629" ry="0.370815" fill="#9E772C"/>
<ellipse cx="73.9874" cy="75.8555" rx="0.741629" ry="0.370815" fill="#9E772C"/>
<path d="M81.538 84.2055C77.8341 90.9584 84.5786 109.878 84.5786 109.878C84.5786 109.878 89.9373 112.768 91.1618 106.394C92.3862 100.019 106.231 94.5909 99.3039 87.5419C92.3772 80.493 97.1675 58.247 92.2313 59.0801C87.2952 59.9131 89.591 79.1666 85.5361 74.2368C81.4813 69.307 85.8229 76.3829 81.538 84.2055Z" fill="#6F9A3F"/>
<path d="M89.7309 69.1471C81.8974 71.1724 71.3158 93.7427 71.3158 93.7427C71.3158 93.7427 72.5464 101.454 78.4665 97.2981C84.3865 93.1422 97.8529 102.255 98.8641 89.4767C99.8753 76.6982 120.788 62.733 116.857 58.5806C112.927 54.4282 99.1063 72.8819 100.349 64.71C101.593 56.5381 98.7984 66.8037 89.7309 69.1471Z" fill="#6F9A3F"/>
<path d="M93.2503 103.95C98.2479 112.229 119.603 116.568 119.603 116.568C119.603 116.568 124.739 112.462 119.037 107.138C113.334 101.813 114.018 83.1739 104.159 86.4176C94.3004 89.6613 74.6586 70.5295 73.3754 76.4729C72.0922 82.4164 91.8521 91.8925 85.2615 93.2749C78.6709 94.6573 87.4649 94.3514 93.2503 103.95Z" fill="#6F9A3F"/>
<path d="M77.3084 78.3208C65.0623 78.5873 55.476 84.7245 55.9008 92.0189C56.3257 99.3134 66.5986 105.004 78.8492 104.734C91.0997 104.464 100.682 98.3302 100.26 91.0402C99.8389 83.7503 89.5725 78.0404 77.3084 78.3208ZM78.7629 103.184C67.9457 103.421 58.8785 98.3946 58.5251 91.94C58.1718 85.4854 66.6126 80.0891 77.4027 79.8721C88.1927 79.6552 97.2836 84.6565 97.6369 91.1111C97.9903 97.5657 89.5721 102.945 78.7629 103.184Z" fill="#E7EEDF"/>
<path d="M118.314 73.1986C110.82 75.019 105.472 80.1481 106.368 84.6526C107.265 89.1572 114.055 91.3307 121.556 89.5194C129.057 87.708 134.398 82.5699 133.502 78.0653C132.605 73.5608 125.812 71.3747 118.314 73.1986ZM121.358 88.5534C114.747 90.1612 108.743 88.239 107.944 84.2723C107.146 80.3057 111.88 75.7738 118.491 74.166C125.103 72.5582 131.103 74.4758 131.902 78.4425C132.7 82.4092 127.974 86.9421 121.363 88.5499L121.358 88.5534Z" fill="#E7EEDF"/>
<path d="M83.0268 83.5102C81.9481 79.423 74.892 77.7411 67.2667 79.7535C59.6413 81.766 54.3341 86.7108 55.4128 90.798C56.4915 94.8852 63.5475 96.5671 71.1729 94.5547C78.7983 92.5422 84.1055 87.5974 83.0268 83.5102Z" fill="#D75527"/>
<path d="M80.8784 84.0771C79.968 80.6273 74.0102 79.2084 67.5713 80.9077C61.1324 82.607 56.6507 86.7812 57.5612 90.2309C58.4716 93.6806 64.4294 95.0996 70.8683 93.4003C77.3072 91.7009 81.7889 87.5268 80.8784 84.0771Z" fill="#B74526"/>
<path d="M71.072 82.7088C71.3829 82.0954 71.391 81.4744 71.0899 81.3218C70.7889 81.1691 70.2927 81.5426 69.9817 82.156C69.6707 82.7694 69.6627 83.3903 69.9638 83.543C70.2648 83.6956 70.761 83.3221 71.072 82.7088Z" fill="#C28960"/>
<path d="M64.0052 85.8619C64.1374 85.5105 63.7731 85.0483 63.1915 84.8294C62.6099 84.6104 62.0312 84.7178 61.8989 85.0691C61.7667 85.4205 62.131 85.8827 62.7126 86.1016C63.2942 86.3206 63.8729 86.2132 64.0052 85.8619Z" fill="#C28960"/>
<path d="M81.7392 81.4978C81.9801 79.4757 85.5747 80.4758 87.3419 81.2285C89.7205 81.9854 90.6088 86.4981 90.0613 87.3696C89.5138 88.241 85.3254 87.397 83.4275 86.7766C81.5295 86.1562 81.4382 84.0255 81.7392 81.4978Z" fill="#C9A053"/>
<ellipse cx="84.0213" cy="82.4551" rx="0.499208" ry="0.249604" transform="rotate(18.1026 84.0213 82.4551)" fill="#9E772C"/>
<ellipse cx="85.609" cy="84.0246" rx="0.499208" ry="0.249604" transform="rotate(18.1026 85.609 84.0246)" fill="#9E772C"/>
<ellipse cx="87.3424" cy="83.5409" rx="0.499208" ry="0.249604" transform="rotate(18.1026 87.3424 83.5409)" fill="#9E772C"/>
<ellipse cx="87.8261" cy="85.2745" rx="0.499208" ry="0.249604" transform="rotate(18.1026 87.8261 85.2745)" fill="#9E772C"/>
<path d="M92.4653 78.9556C90.9011 77.6516 93.6985 75.1827 95.2927 74.1112C97.2236 72.5293 101.491 74.2438 101.924 75.1777C102.356 76.1117 99.3659 79.1635 97.8113 80.4168C96.2568 81.67 94.4205 80.5854 92.4653 78.9556Z" fill="#C9A053"/>
<ellipse cx="94.5114" cy="77.5639" rx="0.499208" ry="0.249604" transform="rotate(-38.8752 94.5114 77.5639)" fill="#9E772C"/>
<ellipse cx="96.6926" cy="77.088" rx="0.499208" ry="0.249604" transform="rotate(-38.8752 96.6926 77.088)" fill="#9E772C"/>
<ellipse cx="97.2318" cy="75.3708" rx="0.499208" ry="0.249604" transform="rotate(-38.8752 97.2318 75.3708)" fill="#9E772C"/>
<ellipse cx="98.949" cy="75.9101" rx="0.499208" ry="0.249604" transform="rotate(-38.8752 98.949 75.9101)" fill="#9E772C"/>
<path d="M113.623 77.4082C111.794 76.512 113.927 73.4505 115.222 72.0318C116.723 70.0375 121.276 70.6921 121.917 71.497C122.558 72.3019 120.376 75.9753 119.163 77.5612C117.95 79.147 115.909 78.5284 113.623 77.4082Z" fill="#C9A053"/>
<ellipse cx="115.281" cy="75.5714" rx="0.499208" ry="0.249604" transform="rotate(-52.5801 115.281 75.5714)" fill="#9E772C"/>
<ellipse cx="117.288" cy="74.5922" rx="0.499208" ry="0.249604" transform="rotate(-52.5801 117.288 74.5922)" fill="#9E772C"/>
<ellipse cx="117.404" cy="72.7963" rx="0.499208" ry="0.249604" transform="rotate(-52.5801 117.404 72.7963)" fill="#9E772C"/>
<ellipse cx="119.201" cy="72.9133" rx="0.499208" ry="0.249604" transform="rotate(-52.5801 119.201 72.9133)" fill="#9E772C"/>
<path d="M62.4188 87.7238C62.3148 87.3499 61.7599 87.1778 61.1795 87.3393C60.599 87.5007 60.2127 87.9347 60.3167 88.3085C60.4207 88.6823 60.9755 88.8545 61.556 88.693C62.1365 88.5315 62.5228 88.0976 62.4188 87.7238Z" fill="#C28960"/>
<path d="M66.7061 83.1872C66.3338 82.5791 65.8074 82.2237 65.5303 82.3934C65.2532 82.563 65.3303 83.1935 65.7025 83.8015C66.0748 84.4095 66.6012 84.7649 66.8783 84.5953C67.1554 84.4256 67.0783 83.7952 66.7061 83.1872Z" fill="#C28960"/>
<path d="M68.2943 91.0396C68.6052 90.4262 68.6133 89.8052 68.3122 89.6526C68.0112 89.5 67.515 89.8734 67.204 90.4868C66.893 91.1002 66.885 91.7212 67.186 91.8738C67.4871 92.0264 67.9833 91.6529 68.2943 91.0396Z" fill="#C28960"/>
<path d="M72.3899 89.8829C72.0995 89.2077 71.6292 88.7613 71.3394 88.886C71.0496 89.0106 71.0501 89.659 71.3405 90.3343C71.631 91.0095 72.1013 91.4558 72.3911 91.3311C72.6809 91.2065 72.6804 90.5581 72.3899 89.8829Z" fill="#C28960"/>
<path d="M78.2777 84.0839C78.1324 83.7275 77.56 83.6239 76.9991 83.8525C76.4382 84.0811 76.1013 84.5554 76.2465 84.9118C76.3918 85.2682 76.9642 85.3718 77.5251 85.1432C78.086 84.9146 78.4229 84.4403 78.2777 84.0839Z" fill="#C28960"/>
<path d="M75.0088 81.962C74.8021 81.6486 74.2161 81.6705 73.7 82.0109C73.1838 82.3513 72.9329 82.8813 73.1396 83.1947C73.3463 83.5081 73.9322 83.4862 74.4484 83.1458C74.9646 82.8054 75.2154 82.2754 75.0088 81.962Z" fill="#C28960"/>
<path d="M75.2879 88.905C75.3609 88.5304 74.9356 88.1323 74.338 88.0158C73.7404 87.8994 73.1968 88.1087 73.1238 88.4834C73.0508 88.858 73.4761 89.2561 74.0737 89.3726C74.6713 89.489 75.2149 89.2797 75.2879 88.905Z" fill="#C28960"/>
<path d="M77.5024 86.6533C77.5093 86.2653 77.0266 85.9421 76.4242 85.9313C75.8217 85.9205 75.3278 86.2262 75.3208 86.6142C75.3139 87.0021 75.7966 87.3254 76.399 87.3362C77.0015 87.347 77.4955 87.0412 77.5024 86.6533Z" fill="#C28960"/>
<path d="M64.7179 89.4302C64.5271 89.1032 63.9418 89.0894 63.4104 89.3993C62.879 89.7093 62.6029 90.2256 62.7936 90.5526C62.9844 90.8796 63.5697 90.8934 64.1011 90.5835C64.6325 90.2735 64.9086 89.7572 64.7179 89.4302Z" fill="#C28960"/>
<path d="M103.131 83.7726C101.832 80.9986 96.4709 80.7672 91.1572 83.2557C85.8434 85.7441 82.5889 90.0102 83.888 92.7842C85.1871 95.5582 90.5479 95.7896 95.8616 93.3012C101.175 90.8127 104.43 86.5466 103.131 83.7726Z" fill="#D75527"/>
<path d="M101.63 84.4751C100.533 82.1325 96.0079 81.9362 91.5227 84.0367C87.0374 86.1372 84.2908 89.739 85.3878 92.0816C86.4849 94.4242 91.0103 94.6205 95.4955 92.52C99.9807 90.4196 102.727 86.8177 101.63 84.4751Z" fill="#B74526"/>
<path d="M94.5095 84.8127C94.6915 84.3285 94.6547 83.8666 94.4273 83.7811C94.1999 83.6957 93.8681 84.019 93.6861 84.5033C93.5041 84.9876 93.5409 85.4495 93.7683 85.5349C93.9956 85.6203 94.3275 85.297 94.5095 84.8127Z" fill="#C28960"/>
<path d="M89.6408 87.9275C89.6912 87.6513 89.3773 87.3627 88.9398 87.2828C88.5022 87.2029 88.1066 87.3621 88.0562 87.6383C88.0058 87.9145 88.3196 88.2031 88.7572 88.283C89.1948 88.3629 89.5903 88.2037 89.6408 87.9275Z" fill="#C28960"/>
<path d="M88.62 89.4716C88.4941 89.2206 88.0675 89.1801 87.6671 89.381C87.2667 89.5818 87.0442 89.9481 87.1701 90.1991C87.296 90.45 87.7226 90.4906 88.123 90.2897C88.5234 90.0888 88.7459 89.7225 88.62 89.4716Z" fill="#C28960"/>
<path d="M91.4005 85.6766C91.089 85.2714 90.6783 85.0646 90.4833 85.2145C90.2882 85.3645 90.3826 85.8145 90.6941 86.2197C91.0055 86.6248 91.4162 86.8317 91.6113 86.6817C91.8063 86.5317 91.712 86.0817 91.4005 85.6766Z" fill="#C28960"/>
<path d="M93.1319 91.2476C93.3139 90.7633 93.2771 90.3015 93.0498 90.216C92.8224 90.1306 92.4905 90.4539 92.3085 90.9382C92.1265 91.4225 92.1633 91.8843 92.3907 91.9698C92.6181 92.0552 92.9499 91.7319 93.1319 91.2476Z" fill="#C28960"/>
<path d="M96.0231 89.9241C95.767 89.4601 95.3915 89.1767 95.1843 89.291C94.9772 89.4053 95.0169 89.8741 95.273 90.3381C95.529 90.8021 95.9046 91.0856 96.1117 90.9713C96.3188 90.857 96.2792 90.3881 96.0231 89.9241Z" fill="#C28960"/>
<path d="M99.8171 84.9344C99.6673 84.7007 99.2358 84.71 98.8534 84.9551C98.471 85.2003 98.2824 85.5885 98.4323 85.8222C98.5821 86.0559 99.0136 86.0466 99.396 85.8014C99.7784 85.5563 99.967 85.1681 99.8171 84.9344Z" fill="#C28960"/>
<path d="M96.99 84.7071C97.3334 84.3908 97.4645 83.9745 97.2829 83.7773C97.1012 83.58 96.6756 83.6765 96.3322 83.9928C95.9887 84.3091 95.8576 84.7254 96.0392 84.9226C96.2209 85.1199 96.6465 85.0233 96.99 84.7071Z" fill="#C28960"/>
<path d="M98.0349 88.8165C98.0338 88.5326 97.675 88.3038 97.2333 88.3054C96.7917 88.3071 96.4345 88.5386 96.4356 88.8225C96.4366 89.1064 96.7955 89.3352 97.2372 89.3336C97.6788 89.3319 98.036 89.1004 98.0349 88.8165Z" fill="#C28960"/>
<path d="M99.4616 86.9036C99.409 86.6246 99.0145 86.4647 98.5805 86.5465C98.1465 86.6283 97.8373 86.9208 97.8899 87.1998C97.9425 87.4788 98.3369 87.6387 98.7709 87.5569C99.2049 87.4751 99.5141 87.1826 99.4616 86.9036Z" fill="#C28960"/>
<path d="M90.0904 91.3697C90.4463 91.0725 90.5939 90.6627 90.42 90.4545C90.2461 90.2462 89.8166 90.3184 89.4606 90.6156C89.1047 90.9129 88.9571 91.3226 89.131 91.5309C89.3049 91.7391 89.7344 91.6669 90.0904 91.3697Z" fill="#C28960"/>
<path d="M130.923 96.1974C133.856 92.3164 129.853 84.3493 121.983 78.4023C114.112 72.4553 105.355 70.7805 102.422 74.6615C99.4899 78.5425 103.493 86.5096 111.363 92.4566C119.233 98.4036 127.99 100.078 130.923 96.1974Z" fill="#D75527"/>
<path d="M128.703 94.5205C131.179 91.2436 127.8 84.5169 121.156 79.4962C114.511 74.4754 107.118 73.0617 104.641 76.3387C102.165 79.6156 105.544 86.3422 112.189 91.363C118.833 96.3838 126.227 97.7975 128.703 94.5205Z" fill="#B74526"/>
<path d="M121.313 81.0617C121.049 80.6617 120.363 80.649 119.781 81.0335C119.2 81.4179 118.943 82.0538 119.207 82.4538C119.471 82.8538 120.157 82.8665 120.739 82.482C121.32 82.0976 121.578 81.4617 121.313 81.0617Z" fill="#C28960"/>
<path d="M112.069 77.6672C111.64 76.899 111.021 76.4273 110.688 76.6136C110.355 76.7999 110.433 77.5737 110.863 78.3419C111.292 79.1101 111.911 79.5818 112.244 79.3955C112.577 79.2092 112.499 78.4354 112.069 77.6672Z" fill="#C28960"/>
<path d="M109.731 80.0991C110.02 79.7647 109.787 79.091 109.211 78.5944C108.636 78.0978 107.935 77.9663 107.647 78.3007C107.358 78.635 107.591 79.3087 108.167 79.8053C108.742 80.302 109.443 80.4335 109.731 80.0991Z" fill="#C28960"/>
<path d="M116.194 78.8652C116.093 77.8956 115.734 77.1385 115.392 77.174C115.05 77.2096 114.854 78.0244 114.955 78.9939C115.056 79.9635 115.415 80.7206 115.757 80.6851C116.099 80.6495 116.294 79.8347 116.194 78.8652Z" fill="#C28960"/>
<path d="M114.546 87.1228C114.282 86.7228 113.596 86.7101 113.014 87.0946C112.433 87.479 112.176 88.1149 112.44 88.5149C112.704 88.9149 113.39 88.9276 113.972 88.5431C114.553 88.1587 114.811 87.5228 114.546 87.1228Z" fill="#C28960"/>
<path d="M118.413 90.8761C118.417 89.9076 118.139 89.1214 117.792 89.12C117.445 89.1187 117.16 89.9027 117.156 90.8711C117.153 91.8396 117.431 92.6257 117.778 92.6271C118.125 92.6285 118.409 91.8445 118.413 90.8761Z" fill="#C28960"/>
<path d="M126.824 90.7642C127.091 90.3964 126.823 89.747 126.225 89.3137C125.627 88.8804 124.927 88.8272 124.66 89.195C124.394 89.5627 124.662 90.2121 125.259 90.6454C125.857 91.0788 126.558 91.1319 126.824 90.7642Z" fill="#C28960"/>
<path d="M124.74 85.6435C124.942 85.2119 124.591 84.6217 123.956 84.3254C123.322 84.029 122.644 84.1386 122.443 84.5702C122.241 85.0018 122.592 85.5919 123.226 85.8883C123.861 86.1847 124.539 86.075 124.74 85.6435Z" fill="#C28960"/>
<path d="M121.316 91.1551C120.839 90.4535 120.187 90.0647 119.861 90.2865C119.535 90.5083 119.658 91.2569 120.135 91.9585C120.613 92.66 121.264 93.0489 121.59 92.8271C121.916 92.6052 121.793 91.8567 121.316 91.1551Z" fill="#C28960"/>
<path d="M124.807 92.5622C125.124 92.3016 124.961 91.5809 124.444 90.9526C123.927 90.3242 123.251 90.0262 122.934 90.2868C122.617 90.5475 122.78 91.2682 123.297 91.8965C123.815 92.5248 124.491 92.8229 124.807 92.5622Z" fill="#C28960"/>
<path d="M111.152 84.0061C111.377 83.5934 111.052 82.9823 110.426 82.6413C109.799 82.3003 109.11 82.3584 108.885 82.7712C108.66 83.184 108.985 83.7951 109.611 84.1361C110.237 84.4771 110.927 84.4189 111.152 84.0061Z" fill="#C28960"/>
<path d="M75.7551 94.9471C65.916 97.3383 58.8917 104.073 60.0494 109.971C61.207 115.869 70.1612 118.76 79.9829 116.346C89.8045 113.932 96.8462 107.22 95.6885 101.322C94.5309 95.4242 85.6167 92.5385 75.7551 94.9471ZM79.7468 115.106C71.0634 117.218 63.1896 114.698 62.156 109.483C61.1224 104.269 67.3251 98.3211 76.0086 96.2094C84.692 94.0976 92.5658 96.6178 93.6029 101.837C94.64 107.056 88.4337 112.999 79.7468 115.106Z" fill="#E7EEDF"/>
<path d="M94.6378 83.6617C89.0272 85.0232 85.0209 88.8625 85.6875 92.2382C86.3542 95.6138 91.4469 97.244 97.0586 95.8745C102.67 94.505 106.676 90.6737 106.009 87.2981C105.342 83.9225 100.223 82.3052 94.6378 83.6617ZM96.9181 95.1602C91.9667 96.3659 87.4685 94.926 86.8807 91.9514C86.293 88.9767 89.827 85.5818 94.7697 84.4116C99.7125 83.2414 104.216 84.6413 104.807 87.6204C105.398 90.5995 101.869 93.9544 96.8885 95.1686L96.9181 95.1602Z" fill="#E7EEDF"/>
<path d="M52.3741 79.1594C46.7454 80.5349 42.6322 83.6194 43.1113 86.1077C43.5904 88.596 48.5377 89.4868 54.1483 88.1254C59.759 86.7639 63.9128 83.648 63.4202 81.1701C62.9275 78.6923 57.9848 77.798 52.3741 79.1594ZM54.0448 87.599C49.0899 88.8003 44.729 88.005 44.3191 85.8024C43.9093 83.5999 47.5489 80.8741 52.5003 79.6683C57.4516 78.4626 61.8206 79.2589 62.253 81.444C62.6855 83.6291 58.9962 86.3933 54.0448 87.599Z" fill="#E7EEDF"/>
<path d="M86.8125 75.6832C76.5192 78.1871 69.1284 85.017 70.2931 90.9241C71.4577 96.8312 80.761 99.6039 91.0543 97.1C101.348 94.596 108.738 87.7661 107.574 81.859C106.409 75.9519 97.1058 73.1792 86.8125 75.6832ZM90.8269 95.8248C81.7212 98.0534 73.5387 95.5914 72.5016 90.3725C71.4645 85.1536 77.9986 79.1301 87.0921 76.9325C96.1857 74.7348 104.385 77.1624 105.417 82.3847C106.45 87.6071 99.8953 93.6321 90.8043 95.8422L90.8269 95.8248Z" fill="#E7EEDF"/>
<path d="M126.313 84.6239C118.275 85.32 105.31 105.769 105.31 105.769C105.31 105.769 105.735 113.576 112.058 110.466C118.382 107.355 130.889 118.552 133.275 106.162C135.662 93.7711 157.983 83.4599 154.507 78.7469C151.031 74.0338 135.269 89.8808 137.377 82.0438C139.486 74.2068 135.615 83.8172 126.313 84.6239Z" fill="#6F9A3F"/>
<path d="M48.6964 94.9595C52.7331 89.427 54.0368 83.5055 51.6082 81.7335C49.1796 79.9616 43.9384 83.0101 39.9017 88.5426C35.865 94.0751 34.5614 99.9965 36.99 101.769C39.4185 103.541 44.6597 100.492 48.6964 94.9595Z" fill="#D75527"/>
<path d="M48.0088 94.4579C51.4171 89.7868 52.519 84.7881 50.4701 83.2932C48.4213 81.7983 43.9974 84.3731 40.5891 89.0443C37.1809 93.7154 36.0789 98.714 38.1278 100.209C40.1767 101.704 44.6006 99.1291 48.0088 94.4579Z" fill="#B74526"/>
<path d="M44.0047 87.8191C44.0251 87.2327 43.8449 86.7505 43.6021 86.742C43.3594 86.7335 43.146 87.2021 43.1256 87.7885C43.1051 88.3748 43.2854 88.8571 43.5281 88.8655C43.7709 88.874 43.9842 88.4055 44.0047 87.8191Z" fill="#C28960"/>
<path d="M40.4696 93.4384C40.3318 93.1723 39.8749 93.1355 39.4491 93.3561C39.0234 93.5767 38.7901 93.9713 38.9279 94.2373C39.0658 94.5034 39.5227 94.5403 39.9485 94.3196C40.3742 94.099 40.6075 93.7045 40.4696 93.4384Z" fill="#C28960"/>
<path d="M39.9048 96.6689C40.1992 96.2363 40.254 95.7605 40.0273 95.6062C39.8005 95.4519 39.3781 95.6776 39.0837 96.1102C38.7893 96.5428 38.7345 97.0186 38.9612 97.1729C39.188 97.3272 39.6104 97.1016 39.9048 96.6689Z" fill="#C28960"/>
<path d="M41.9368 91.214C42.0718 90.9606 41.8247 90.5652 41.3849 90.3308C40.945 90.0964 40.479 90.1117 40.344 90.365C40.2089 90.6184 40.4561 91.0138 40.8959 91.2482C41.3358 91.4826 41.8018 91.4673 41.9368 91.214Z" fill="#C28960"/>
<path d="M44.9992 95.0062C45.0197 94.4198 44.8394 93.9376 44.5967 93.9291C44.3539 93.9207 44.1406 94.3892 44.1201 94.9756C44.0997 95.562 44.2799 96.0442 44.5227 96.0527C44.7654 96.0611 44.9788 95.5926 44.9992 95.0062Z" fill="#C28960"/>
<path d="M47.7085 93.0006C47.8857 92.787 47.7047 92.3444 47.304 92.012C46.9034 91.6797 46.435 91.5835 46.2577 91.7972C46.0805 92.0109 46.2616 92.4535 46.6622 92.7858C47.0628 93.1181 47.5313 93.2143 47.7085 93.0006Z" fill="#C28960"/>
<path d="M49.0158 85.9716C49.2838 85.5108 49.3131 85.0279 49.0813 84.8931C48.8495 84.7583 48.4444 85.0227 48.1764 85.4836C47.9084 85.9444 47.8791 86.4273 48.1109 86.5621C48.3427 86.6969 48.7478 86.4325 49.0158 85.9716Z" fill="#C28960"/>
<path d="M46.3245 86.2562C46.5404 85.7516 46.5203 85.259 46.2796 85.156C46.0389 85.053 45.6687 85.3786 45.4527 85.8832C45.2368 86.3878 45.2569 86.8804 45.4976 86.9834C45.7383 87.0864 46.1085 86.7608 46.3245 86.2562Z" fill="#C28960"/>
<path d="M48.7357 89.6816C48.5603 89.4465 48.1004 89.493 47.7085 89.7854C47.3166 90.0779 47.1412 90.5055 47.3167 90.7407C47.4922 90.9758 47.9521 90.9293 48.3439 90.6369C48.7358 90.3444 48.9112 89.9167 48.7357 89.6816Z" fill="#C28960"/>
<path d="M49.1214 88.0127C49.478 87.6599 49.6034 87.2086 49.4016 87.0044C49.1997 86.8003 48.747 86.9208 48.3903 87.2735C48.0337 87.6262 47.9083 88.0776 48.1101 88.2817C48.312 88.4858 48.7648 88.3654 49.1214 88.0127Z" fill="#C28960"/>
<path d="M42.1613 96.7405C42.3933 96.2465 42.3869 95.7548 42.1471 95.6421C41.9072 95.5295 41.5247 95.8386 41.2927 96.3326C41.0607 96.8266 41.0671 97.3184 41.307 97.431C41.5468 97.5436 41.9293 97.2345 42.1613 96.7405Z" fill="#C28960"/>
<path d="M24.5625 88.9417C24.5625 88.9417 30.9306 128.87 61.5709 129.642C92.2113 130.414 95.4965 130.135 114.637 129.104C133.777 128.072 146.257 109.304 148.407 87.041L24.5625 88.9417Z" fill="#D28C3A"/>
</svg>
