<svg width="180" height="180" viewBox="0 0 180 180" fill="none" xmlns="http://www.w3.org/2000/svg">
<path d="M106.756 77.9085L24.0944 112.896L158.397 105.803L106.756 77.9085Z" fill="#FFFCF0" stroke="#A07D36" stroke-width="0.94" stroke-linecap="round" stroke-linejoin="round"/>
<path d="M158.383 105.817L24.0836 112.903L24.466 120.151L158.765 113.066L158.383 105.817Z" fill="#A07D34" stroke="#A07D36" stroke-width="0.94" stroke-linecap="round" stroke-linejoin="round"/>
<path d="M27.4696 106.764C22.0994 107.132 17.9822 114.501 19.4061 114.518C20.8301 114.535 25.1739 112.799 27.8555 114.067C30.5371 115.336 45.6481 122.306 46.5548 118.549C47.4615 114.792 58.4205 113.693 58.4205 113.693C58.4205 113.693 59.1572 120.14 63.1216 118.674C67.086 117.208 69.1469 114.181 71.1625 113.457C73.178 112.733 79.9835 119.964 83.1254 116.448C86.2674 112.933 98.5391 106.721 102.251 111.023C105.963 115.324 107.341 114.287 108.714 112.04C110.087 109.794 117.07 117.244 118.555 116.82C120.04 116.396 123.139 110.67 123.139 110.67C123.139 110.67 122.77 118.628 128.736 117.612C134.701 116.596 137.547 113.437 137.911 111.385C138.276 109.333 149.828 117.907 152.216 113.982C154.603 110.057 161.984 111.435 160.33 107.106C158.675 102.777 157.939 102.38 152.142 102.155C146.345 101.93 27.4696 106.764 27.4696 106.764Z" fill="#648E21"/>
<path d="M150.772 95.6286L28.5786 102.075C26.6912 102.175 25.2419 103.786 25.3415 105.673L25.4527 107.781C25.5523 109.669 27.163 111.118 29.0504 111.018L151.244 104.572C153.132 104.472 154.581 102.861 154.481 100.974L154.37 98.8657C154.27 96.9783 152.66 95.529 150.772 95.6286Z" fill="#E1B186"/>
<path d="M151.95 93.6814L27.2066 100.263C26.0232 100.325 25.1145 101.335 25.1769 102.518L25.3081 105.006C25.3706 106.189 26.3805 107.098 27.564 107.035L152.307 100.454C153.49 100.392 154.399 99.3819 154.337 98.1984L154.205 95.7112C154.143 94.5277 153.133 93.619 151.95 93.6814Z" fill="#FFCF23"/>
<path d="M31.5109 91.6684C31.5109 91.6684 21.765 93.3856 22.3157 97.0618C22.8664 100.738 36.7493 108.187 50.1174 106.947C63.4854 105.707 74.2155 96.0253 74.0814 91.8607C73.9473 87.6962 31.5109 91.6684 31.5109 91.6684Z" fill="#E25123"/>
<path d="M69.2765 86.9733C69.2765 86.9733 59.5306 88.6905 60.0746 92.3649C60.6187 96.0393 74.5208 103.443 87.8617 102.225C101.203 101.006 111.966 91.3048 111.827 87.1318C111.688 82.9588 69.2765 86.9733 69.2765 86.9733Z" fill="#E25123"/>
<path d="M109.948 87.9354C109.948 87.9354 100.202 89.6526 100.746 93.327C101.29 97.0014 115.188 104.447 128.554 103.214C141.921 101.981 152.652 92.2922 152.513 88.1192C152.374 83.9462 109.948 87.9354 109.948 87.9354Z" fill="#E25123"/>
<path d="M26.4748 89.0833C21.1113 89.4533 16.9807 96.8181 18.4047 96.8354C19.8287 96.8526 24.1792 95.1183 26.8607 96.3868C29.5423 97.6554 44.6533 104.626 45.56 100.869C46.4667 97.1116 57.4275 96.0056 57.4275 96.0056C57.4275 96.0056 58.1643 102.453 62.1286 100.987C66.093 99.5204 68.1473 96.4923 70.1695 95.7698C72.1916 95.0473 78.9905 102.276 82.1324 98.761C85.2744 95.2457 97.5461 89.0338 101.258 93.3355C104.97 97.6372 106.341 96.5975 107.73 94.3197C109.119 92.0418 116.086 99.523 117.564 99.0976C119.042 98.6723 122.155 92.9489 122.155 92.9489C122.155 92.9489 121.786 100.908 127.771 99.8969C133.757 98.8863 136.583 95.7222 136.947 93.6698C137.312 91.6173 148.858 100.19 151.252 96.2668C153.646 92.344 161.027 93.7217 159.372 89.3926C157.718 85.0636 156.981 84.6663 151.184 84.4416C145.387 84.2168 26.4748 89.0833 26.4748 89.0833Z" fill="#648E21"/>
<path d="M104.887 51.3217L22.2255 86.309L156.528 79.2161L104.887 51.3217Z" fill="#FFF8DA" stroke="#A07D36" stroke-width="0.94" stroke-linecap="round" stroke-linejoin="round"/>
<path d="M156.522 79.2297L22.2221 86.315L22.6045 93.5633L156.904 86.4779L156.522 79.2297Z" fill="#A07D34" stroke="#A07D36" stroke-width="0.94" stroke-linecap="round" stroke-linejoin="round"/>
</svg>
