<svg width="180" height="180" viewBox="0 0 180 180" fill="none" xmlns="http://www.w3.org/2000/svg">
<path d="M119.38 59.1L119.09 61.31L118.29 67.63L116.16 84.27L108.67 142.94C108.67 143.85 107.83 144.68 106.02 145.36C105.708 137.821 104.143 130.386 101.39 123.36C90.39 96.17 102.53 75.97 108.76 65.64C109.208 64.8827 109.699 64.1516 110.23 63.45C107.54 63.84 104.48 64.16 101.16 64.37C97.91 71.11 95 79 94.16 86.9C92.33 103.55 100.16 112.49 88.16 147.08C87.23 147.08 86.36 147.08 85.53 147C84.3 147 83.17 146.88 82.13 146.79C75.13 146.16 71.99 144.67 71.99 142.94L61.57 61.31L61.29 59.1H119.38Z" fill="#E22723"/>
<path d="M121.67 59.1C121.67 59.89 120.75 60.64 119.09 61.31C116.225 62.3417 113.253 63.0462 110.23 63.41C107.54 63.8 104.48 64.12 101.16 64.33C97.84 64.54 94.16 64.68 90.33 64.68C77.46 64.68 66.4 63.29 61.57 61.31C59.92 60.64 59 59.89 59 59.1C59.0302 58.8383 59.1198 58.587 59.2619 58.3652C59.404 58.1433 59.5949 57.9569 59.82 57.82C60.4906 57.3489 61.2245 56.9752 62 56.71C62.53 56.51 63.12 56.31 63.78 56.13C64.44 55.95 65.26 55.74 66.1 55.55C74.0881 54.0899 82.2006 53.42 90.32 53.55C95.7438 53.5343 101.165 53.8047 106.56 54.36C109.246 54.6354 111.916 55.0459 114.56 55.59C115.4 55.78 116.17 55.97 116.88 56.17L117.23 56.27C117.74 56.42 118.23 56.58 118.66 56.75C119.435 57.0163 120.169 57.3899 120.84 57.86C121.064 57.9894 121.255 58.1685 121.399 58.3835C121.543 58.5985 121.636 58.8436 121.67 59.1Z" fill="#DDD5CC"/>
<path d="M59 59.1001L61.29 55.5601H119.38L121.67 59.1001H59Z" fill="#DDD5CC"/>
<path d="M90.33 60.74C106.374 60.74 119.38 58.4208 119.38 55.56C119.38 52.6992 106.374 50.38 90.33 50.38C74.2862 50.38 61.28 52.6992 61.28 55.56C61.28 58.4208 74.2862 60.74 90.33 60.74Z" fill="#F7F2ED"/>
<path d="M90.33 59.76C105.131 59.76 117.13 57.8796 117.13 55.56C117.13 53.2404 105.131 51.36 90.33 51.36C75.5288 51.36 63.53 53.2404 63.53 55.56C63.53 57.8796 75.5288 59.76 90.33 59.76Z" fill="#EAE3DC"/>
<path d="M91.02 56.25C92.34 56.25 93.41 56.0216 93.41 55.74C93.41 55.4583 92.34 55.23 91.02 55.23C89.7 55.23 88.63 55.4583 88.63 55.74C88.63 56.0216 89.7 56.25 91.02 56.25Z" fill="#DD230A"/>
<path d="M93.41 33.51H88.63V55.69H93.41V33.51Z" fill="#DD230A"/>
<path d="M91.02 34.02C92.34 34.02 93.41 33.7917 93.41 33.51C93.41 33.2283 92.34 33 91.02 33C89.7 33 88.63 33.2283 88.63 33.51C88.63 33.7917 89.7 34.02 91.02 34.02Z" fill="#C92211"/>
<path d="M108.76 65.6C102.53 75.93 90.43 96.13 101.39 123.32C104.143 130.346 105.708 137.781 106.02 145.32C103.22 146.38 98.15 147.06 90.33 147.06C89.58 147.06 88.85 147.06 88.16 147.06C100.16 112.47 92.33 103.53 94.16 86.88C95.02 79.01 97.91 71.09 101.16 64.31C104.48 64.1 107.54 63.78 110.23 63.39C109.698 64.0981 109.207 64.8359 108.76 65.6Z" fill="#FFEEEE"/>
</svg>
