<svg width="180" height="180" viewBox="0 0 180 180" fill="none" xmlns="http://www.w3.org/2000/svg">
<path d="M146.684 79.3985C135.248 71.3755 114.336 66 90.4679 66C66.6001 66 45.6635 71.3755 34.2516 79.3985H25V95.1861H25.1445C27.602 111.03 62.4561 141.822 90.5 121.014C128.173 93.023 153.832 107.398 155.863 95.1861H156V79.3985H146.684Z" fill="#59371A"/>
<path d="M156 79.4971C156 94.6827 129.771 77.8018 90.5001 106.994C61.4121 128.614 25 94.6827 25 79.4971C25 64.3116 54.3289 52 90.5001 52C126.671 52 156 64.3116 156 79.4971Z" fill="#825734"/>
<path d="M147 79.0625C147 91.8262 124.577 77.6425 91 102.125C66.1345 120.257 35 91.7943 35 79.0625C35 66.3306 60.0758 56 91 56C121.924 56 147 66.3227 147 79.0625Z" fill="#9B653D"/>
<path d="M126.5 80C133.404 80 139 77.9853 139 75.5C139 73.0147 133.404 71 126.5 71C119.596 71 114 73.0147 114 75.5C114 77.9853 119.596 80 126.5 80Z" fill="#8A5938"/>
<path d="M63 63L48 85" stroke="#59371A" stroke-width="1.93" stroke-miterlimit="10" stroke-linecap="round"/>
<path d="M78 60L56 94" stroke="#59371A" stroke-width="1.93" stroke-miterlimit="10" stroke-linecap="round"/>
<path d="M106 66L84 100" stroke="#59371A" stroke-width="1.93" stroke-miterlimit="10" stroke-linecap="round"/>
<path d="M95 58L67 101" stroke="#59371A" stroke-width="1.93" stroke-miterlimit="10" stroke-linecap="round"/>
<path d="M100 90L42 79" stroke="#59371A" stroke-width="1.93" stroke-miterlimit="10" stroke-linecap="round"/>
<path d="M93 97L49 89" stroke="#59371A" stroke-width="1.93" stroke-miterlimit="10" stroke-linecap="round"/>
<path d="M103 81L46 70" stroke="#59371A" stroke-width="1.93" stroke-miterlimit="10" stroke-linecap="round"/>
<path d="M110 73L58 63" stroke="#59371A" stroke-width="1.93" stroke-miterlimit="10" stroke-linecap="round"/>
</svg>
