<svg width="180" height="180" viewBox="0 0 180 180" fill="none" xmlns="http://www.w3.org/2000/svg">
<path d="M81.2834 93.1566C81.2351 88.6578 73.1097 85.0978 63.1348 85.205C53.1599 85.3122 45.1129 89.046 45.1612 93.5447C45.2096 98.0434 53.335 101.603 63.3098 101.496C73.2847 101.389 81.3318 97.6553 81.2834 93.1566Z" fill="#364323"/>
<path d="M80.926 64.2199L44.8109 64.6079L45.1215 93.5085L81.2366 93.1205L80.926 64.2199Z" fill="#364323"/>
<path d="M80.9745 64.2539C80.9262 59.7552 72.8008 56.1952 62.8259 56.3024C52.8511 56.4095 44.804 60.1433 44.8523 64.642C44.9007 69.1407 53.0261 72.7008 63.001 72.5936C72.9758 72.4864 81.0229 68.7526 80.9745 64.2539Z" fill="#FEF5F0" stroke="#243A1C" stroke-width="0.28" stroke-miterlimit="10"/>
<path d="M71.77 64.3528C71.7463 62.1467 67.7619 60.4008 62.8706 60.4534C57.9794 60.5059 54.0334 62.337 54.0571 64.5432C54.0808 66.7493 58.0652 68.4952 62.9565 68.4426C67.8477 68.3901 71.7937 66.559 71.77 64.3528Z" fill="#E3994C"/>
<path d="M63.4078 110.142C63.3595 105.643 55.234 102.083 45.2592 102.191C35.2843 102.298 27.2373 106.031 27.2856 110.53C27.334 115.029 35.4594 118.589 45.4342 118.482C55.4091 118.375 63.4562 114.641 63.4078 110.142Z" fill="#364323"/>
<path d="M63.0531 81.1982L26.938 81.5863L27.2486 110.487L63.3637 110.099L63.0531 81.1982Z" fill="#364323"/>
<path d="M63.0958 81.2331C63.0474 76.7344 54.922 73.1743 44.9472 73.2815C34.9723 73.3887 26.9252 77.1225 26.9736 81.6212C27.0219 86.1199 35.1474 89.6799 45.1222 89.5727C55.0971 89.4656 63.1441 85.7318 63.0958 81.2331Z" fill="#FEF5F0" stroke="#243A1C" stroke-width="0.28" stroke-miterlimit="10"/>
<path d="M53.8912 81.332C53.8675 79.1259 49.8831 77.38 44.9918 77.4326C40.1006 77.4851 36.1546 79.3162 36.1783 81.5224C36.202 83.7285 40.1864 85.4744 45.0777 85.4218C49.9689 85.3693 53.9149 83.5382 53.8912 81.332Z" fill="#E3994C"/>
<path d="M117.437 96.2989C117.388 91.8002 109.263 88.2402 99.2879 88.3473C89.313 88.4545 81.266 92.1883 81.3143 96.687C81.3626 101.186 89.488 104.746 99.4629 104.639C109.438 104.531 117.485 100.798 117.437 96.2989Z" fill="#364323"/>
<path d="M117.079 67.3614L80.9635 67.7495L81.2741 96.6501L117.389 96.2621L117.079 67.3614Z" fill="#364323"/>
<path d="M117.135 67.3961C117.087 62.8974 108.961 59.3374 98.9864 59.4446C89.0115 59.5517 80.9644 63.2855 81.0128 67.7843C81.0611 72.283 89.1866 75.843 99.1614 75.7358C109.136 75.6286 117.183 71.8948 117.135 67.3961Z" fill="#FEF5F0" stroke="#243A1C" stroke-width="0.28" stroke-miterlimit="10"/>
<path d="M107.93 67.4951C107.907 65.289 103.922 63.5431 99.031 63.5957C94.1398 63.6482 90.1938 65.4793 90.2175 67.6855C90.2413 69.8916 94.2256 71.6375 99.1169 71.5849C104.008 71.5324 107.954 69.7013 107.93 67.4951Z" fill="#E3994C"/>
<path d="M99.5609 113.284C99.5126 108.786 91.3871 105.226 81.4122 105.333C71.4374 105.44 63.3904 109.174 63.4387 113.673C63.487 118.171 71.6124 121.731 81.5873 121.624C91.5622 121.517 99.6092 117.783 99.5609 113.284Z" fill="#364323"/>
<path d="M99.1993 84.3432L63.0842 84.7312L63.3947 113.632L99.5098 113.244L99.1993 84.3432Z" fill="#364323"/>
<path d="M99.2489 84.3753C99.2006 79.8766 91.0752 76.3166 81.1003 76.4238C71.1254 76.531 63.0783 80.2648 63.1267 84.7635C63.175 89.2622 71.3005 92.8222 81.2753 92.715C91.2502 92.6078 99.2972 88.874 99.2489 84.3753Z" fill="#FEF5F0" stroke="#243A1C" stroke-width="0.28" stroke-miterlimit="10"/>
<path d="M90.0443 84.4743C90.0206 82.2681 86.0362 80.5222 81.1449 80.5748C76.2537 80.6274 72.3077 82.4584 72.3314 84.6646C72.3551 86.8708 76.3395 88.6166 81.2308 88.564C86.122 88.5115 90.068 86.6804 90.0443 84.4743Z" fill="#E3994C"/>
<path d="M153.58 98.0621C153.532 93.5634 145.406 90.0034 135.431 90.1105C125.457 90.2177 117.41 93.9515 117.458 98.4502C117.506 102.949 125.632 106.509 135.607 106.402C145.581 106.295 153.628 102.561 153.58 98.0621Z" fill="#364323"/>
<path d="M153.218 69.1291L117.103 69.5171L117.414 98.4177L153.529 98.0297L153.218 69.1291Z" fill="#364323"/>
<path d="M153.265 69.1627C153.216 64.664 145.091 61.104 135.116 61.2111C125.141 61.3183 117.094 65.0521 117.143 69.5508C117.191 74.0495 125.316 77.6096 135.291 77.5024C145.266 77.3952 153.313 73.6614 153.265 69.1627Z" fill="#FEF5F0" stroke="#243A1C" stroke-width="0.28" stroke-miterlimit="10"/>
<path d="M144.06 69.2617C144.036 67.0555 140.052 65.3097 135.161 65.3622C130.27 65.4148 126.324 67.2458 126.347 69.452C126.371 71.6582 130.355 73.404 135.247 73.3515C140.138 73.2989 144.084 71.4678 144.06 69.2617Z" fill="#E3994C"/>
<path d="M135.695 114.55C135.646 110.051 127.521 106.491 117.546 106.598C107.571 106.705 99.5242 110.439 99.5725 114.938C99.6209 119.436 107.746 122.996 117.721 122.889C127.696 122.782 135.743 119.048 135.695 114.55Z" fill="#364323"/>
<path d="M135.341 85.6146L99.2256 86.0026L99.5361 114.903L135.651 114.515L135.341 85.6146Z" fill="#364323"/>
<path d="M135.39 85.6406C135.342 81.1419 127.216 77.5819 117.241 77.689C107.267 77.7962 99.2195 81.53 99.2678 86.0287C99.3162 90.5274 107.442 94.0875 117.416 93.9803C127.391 93.8731 135.438 90.1393 135.39 85.6406Z" fill="#FEF5F0" stroke="#243A1C" stroke-width="0.28" stroke-miterlimit="10"/>
<path d="M126.185 85.7395C126.162 83.5333 122.177 81.7874 117.286 81.84C112.395 81.8926 108.449 83.7236 108.473 85.9298C108.496 88.136 112.481 89.8818 117.372 89.8292C122.263 89.7767 126.209 87.9456 126.185 85.7395Z" fill="#E3994C"/>
</svg>
