<svg width="180" height="180" viewBox="0 0 180 180" fill="none" xmlns="http://www.w3.org/2000/svg">
<path d="M82.8542 50.1093C82.8542 50.1093 33.1857 56.8703 31.1825 106.961C29.1793 157.051 142.321 111.664 145.301 96.137C148.281 80.61 134.064 38.8334 82.8542 50.1093Z" fill="#EED776"/>
<path d="M108.092 48.6258C105.318 50.4857 91.8472 47.2982 91.6302 49.808C91.4133 52.3179 76.8257 44.9312 79.1964 50.6829C81.567 56.4347 70.8358 50.9629 69.2863 50.3639C67.7368 49.7649 67.3824 52.3612 65.8286 54.93C64.2748 57.4988 61.8847 63.4947 58.8882 62.5761C55.8918 61.6575 43.611 61.231 47.6234 67.3634C51.6357 73.4957 35.8154 69.8328 37.9838 77.0962C40.1522 84.3596 32.8354 82.1705 35.1003 86.9359C37.3652 91.7013 27.286 99.1791 32.4279 101.679C37.5699 104.178 27.7365 111.074 32.6068 112.572C37.4771 114.07 36.1942 125.851 39.2329 121.907C42.2716 117.964 35.5994 110.07 38.5644 105.997C41.5294 101.925 36.4542 87.4808 40.6481 88.6505C44.8419 89.8202 57.0134 96.2891 54.8606 88.0206C52.7079 79.7521 48.4298 74.7173 54.8281 74.7273C61.2265 74.7372 64.4528 72.2664 64.375 69.2415C64.2972 66.2166 66.7798 63.919 69.6866 64.7766C72.5933 65.6342 74.2437 65.0087 75.3753 61.0476C76.5069 57.0864 74.7066 57.9436 81.0604 57.3461C87.4142 56.7486 86.2609 51.5165 93.5432 53.701C100.826 55.8856 104.116 61.0331 107.1 55.879C110.084 50.7249 117.349 65.2169 121.153 62.9282C124.956 60.6396 128.475 64.1879 132.503 67.4827C136.532 70.7776 140.784 76.8931 139.887 71.8351C138.99 66.7772 134.365 60.8356 130.666 60.4595C126.968 60.0835 123.551 57.6539 122.356 54.6124C121.162 51.5709 121.627 39.5751 108.092 48.6258Z" fill="#86B240"/>
<path d="M69.8752 75.6499C69.8752 75.6499 76.4192 68.1955 73.7143 65.6723C71.0095 63.1491 55.406 66.0199 45.6983 75.3729C35.9906 84.726 33.6501 99.0796 36.3784 102.263C39.1067 105.447 69.8752 75.6499 69.8752 75.6499Z" fill="#E35325"/>
<path d="M91.5424 71.4224C91.5424 71.4224 97.552 69.1632 96.7122 65.5607C95.8724 61.9582 85.9347 55.3126 77.5353 57.294C69.1358 59.2754 63.5489 69.5086 64.2042 73.653C64.8596 77.7973 91.5424 71.4224 91.5424 71.4224Z" fill="#E35325"/>
<path d="M132.358 70.4497C132.358 70.4497 135.939 65.1169 133.167 62.6756C130.396 60.2344 118.436 60.5992 112.74 67.097C107.044 73.5948 108.454 85.17 111.397 88.1587C114.341 91.1475 132.358 70.4497 132.358 70.4497Z" fill="#E35325"/>
<path d="M97.6789 64.7667C97.4328 66.6055 96.4664 68.2712 94.9922 69.3974C93.518 70.5236 91.6568 71.018 89.818 70.7719C85.9908 70.2598 76.7746 69.46 77.2914 65.5985C77.8081 61.7369 87.8355 56.3713 91.6627 56.8835C92.5763 57.0039 93.4571 57.3036 94.2545 57.7655C95.0519 58.2273 95.7502 58.8422 96.3092 59.5748C96.8682 60.3073 97.277 61.1431 97.5121 62.0341C97.7471 62.9251 97.8038 63.8538 97.6789 64.7667Z" fill="#664328"/>
<path d="M78.7106 73.7548C78.4646 75.5935 77.4982 77.2592 76.024 78.3854C74.5498 79.5116 72.6886 80.006 70.8499 79.76C67.0158 79.2469 57.8063 78.448 58.3231 74.5865C58.8399 70.7249 68.8751 65.3534 72.7092 65.8665C73.6219 65.9886 74.5016 66.2898 75.2977 66.7528C76.0938 67.2157 76.7906 67.8313 77.3482 68.5642C77.9058 69.2971 78.3132 70.1329 78.547 71.0236C78.7808 71.9144 78.8364 72.8425 78.7106 73.7548Z" fill="#664328"/>
<path d="M60.2485 80.4255C60.39 81.3335 60.3512 82.2605 60.1343 83.1536C59.9174 84.0466 59.5266 84.8882 58.9843 85.6301C58.4421 86.3721 57.7589 86.9999 56.9739 87.4777C56.1889 87.9555 55.3174 88.2739 54.4092 88.4148C50.5947 89.0094 41.5362 90.8466 40.9416 87.0321C40.347 83.2177 48.4447 75.1809 52.2697 74.5597C53.1789 74.4199 54.1067 74.4609 55 74.6801C55.8934 74.8994 56.7347 75.2927 57.4758 75.8376C58.2169 76.3824 58.8433 77.0681 59.3191 77.8554C59.7948 78.6426 60.1107 79.516 60.2485 80.4255Z" fill="#664328"/>
<path d="M33.0426 100.796C32.8579 99.8957 32.8524 98.9681 33.0263 98.066C33.2002 97.1638 33.5501 96.3047 34.0561 95.5378C34.5621 94.7709 35.2142 94.1112 35.9752 93.5964C36.7362 93.0815 37.5911 92.7217 38.4912 92.5374C42.2806 91.7645 51.2441 89.4879 52.0169 93.2773C52.7897 97.0667 45.0835 105.471 41.301 106.244C39.4835 106.615 37.593 106.25 36.0447 105.228C34.4963 104.207 33.4166 102.613 33.0426 100.796Z" fill="#664328"/>
<path d="M119.044 61.9047C118.794 63.7355 117.829 65.3929 116.36 66.5147C114.892 67.6365 113.039 68.1317 111.207 67.892C107.38 67.3798 98.1633 66.5801 98.68 62.7185C99.1968 58.8569 109.239 53.4864 113.066 53.9985C113.978 54.1234 114.857 54.4272 115.652 54.8925C116.447 55.3578 117.142 55.9754 117.697 56.71C118.253 57.4446 118.657 58.2816 118.889 59.173C119.12 60.0644 119.173 60.9928 119.044 61.9047Z" fill="#664328"/>
<path d="M141.152 76.2848C141.03 77.1952 140.73 78.0728 140.269 78.8673C139.808 79.6618 139.195 80.3578 138.465 80.9154C137.735 81.473 136.902 81.8814 136.015 82.1172C135.127 82.3531 134.201 82.4118 133.291 82.2899C129.464 81.7778 120.255 80.9721 120.771 77.1174C121.287 73.2626 131.323 67.8843 135.15 68.3965C136.063 68.5178 136.943 68.8184 137.74 69.281C138.537 69.7437 139.234 70.3593 139.792 71.0924C140.349 71.8255 140.757 72.6617 140.99 73.5528C141.223 74.4439 141.278 75.3724 141.152 76.2848Z" fill="#664328"/>
<path d="M111.399 70.8483C111.399 70.8483 117.408 68.5891 116.574 64.9944C115.74 61.3997 105.798 54.7395 97.3983 56.7209C88.9989 58.7022 83.4041 68.9414 84.0604 73.0789C84.7167 77.2164 111.399 70.8483 111.399 70.8483Z" fill="#E35325"/>
<path d="M82.2865 64.1756C82.2865 64.1756 33.4764 73.1987 36.1674 115.755C38.8583 158.311 147.221 112.362 148.742 99.0106C150.263 85.6593 132.181 51.2339 82.2865 64.1756Z" fill="#FEE784"/>
<path d="M57.2083 107.324C57.7775 107.4 58.3007 107.001 58.3769 106.431C58.453 105.862 58.0533 105.339 57.4841 105.263C56.9149 105.187 56.3917 105.586 56.3155 106.155C56.2393 106.725 56.639 107.248 57.2083 107.324Z" fill="#D3BD61"/>
<path d="M55.751 126.104C56.3203 126.181 56.8435 125.781 56.9196 125.212C56.9958 124.642 56.5961 124.119 56.0269 124.043C55.4577 123.967 54.9345 124.367 54.8583 124.936C54.7821 125.505 55.1818 126.028 55.751 126.104Z" fill="#D3BD61"/>
<path d="M66.4106 111.521C66.9799 111.597 67.5031 111.198 67.5792 110.628C67.6554 110.059 67.2557 109.536 66.6865 109.46C66.1173 109.384 65.5941 109.783 65.5179 110.352C65.4417 110.922 65.8414 111.445 66.4106 111.521Z" fill="#D3BD61"/>
<path d="M72.1966 102.308C72.7658 102.384 73.289 101.984 73.3652 101.415C73.4413 100.846 73.0416 100.322 72.4724 100.246C71.9032 100.17 71.38 100.57 71.3038 101.139C71.2276 101.708 71.6273 102.231 72.1966 102.308Z" fill="#D3BD61"/>
<path d="M54.5155 95.9828C55.0847 96.059 55.608 95.6593 55.6841 95.09C55.7603 94.5208 55.3606 93.9976 54.7914 93.9214C54.2222 93.8453 53.699 94.245 53.6228 94.8142C53.5466 95.3834 53.9463 95.9066 54.5155 95.9828Z" fill="#D3BD61"/>
<path d="M47.1085 104.658C47.6778 104.734 48.201 104.334 48.2771 103.765C48.3533 103.196 47.9536 102.672 47.3844 102.596C46.8152 102.52 46.292 102.92 46.2158 103.489C46.1396 104.058 46.5393 104.581 47.1085 104.658Z" fill="#D3BD61"/>
<path d="M48.712 116.874C49.2812 116.95 49.8044 116.551 49.8806 115.981C49.9568 115.412 49.5571 114.889 48.9879 114.813C48.4186 114.737 47.8954 115.136 47.8193 115.706C47.7431 116.275 48.1428 116.798 48.712 116.874Z" fill="#D3BD61"/>
<path d="M68.6305 124.723C69.1997 124.799 69.7229 124.399 69.7991 123.83C69.8753 123.261 69.4756 122.737 68.9063 122.661C68.3371 122.585 67.8139 122.985 67.7377 123.554C67.6616 124.123 68.0613 124.646 68.6305 124.723Z" fill="#D3BD61"/>
<path d="M60.1488 118.118C60.718 118.194 61.2412 117.794 61.3174 117.225C61.3936 116.656 60.9939 116.133 60.4246 116.057C59.8554 115.98 59.3322 116.38 59.256 116.949C59.1799 117.519 59.5796 118.042 60.1488 118.118Z" fill="#D3BD61"/>
<path d="M81.9541 115.839C82.5233 115.916 83.0465 115.516 83.1227 114.947C83.1988 114.377 82.7991 113.854 82.2299 113.778C81.6607 113.702 81.1375 114.102 81.0613 114.671C80.9851 115.24 81.3848 115.763 81.9541 115.839Z" fill="#D3BD61"/>
<path d="M85.6301 122.864C86.1994 122.94 86.7226 122.54 86.7987 121.971C86.8749 121.402 86.4752 120.879 85.906 120.803C85.3368 120.726 84.8136 121.126 84.7374 121.695C84.6612 122.265 85.0609 122.788 85.6301 122.864Z" fill="#D3BD61"/>
<path d="M107.404 108.068C107.973 108.145 108.497 107.745 108.573 107.176C108.649 106.606 108.249 106.083 107.68 106.007C107.111 105.931 106.588 106.331 106.512 106.9C106.435 107.469 106.835 107.992 107.404 108.068Z" fill="#D3BD61"/>
<path d="M105.357 94.4077C105.927 94.4838 106.45 94.0841 106.526 93.5149C106.602 92.9457 106.202 92.4225 105.633 92.3463C105.064 92.2701 104.541 92.6698 104.465 93.239C104.388 93.8083 104.788 94.3315 105.357 94.4077Z" fill="#D3BD61"/>
<path d="M85.7821 87.2347C86.3513 87.3109 86.8745 86.9112 86.9507 86.342C87.0269 85.7728 86.6272 85.2496 86.058 85.1734C85.4887 85.0972 84.9655 85.4969 84.8894 86.0661C84.8132 86.6354 85.2129 87.1586 85.7821 87.2347Z" fill="#D3BD61"/>
<path d="M72.4514 86.4999C73.0207 86.5761 73.5439 86.1764 73.62 85.6072C73.6962 85.038 73.2965 84.5148 72.7273 84.4386C72.1581 84.3624 71.6349 84.7621 71.5587 85.3313C71.4825 85.9006 71.8822 86.4238 72.4514 86.4999Z" fill="#D3BD61"/>
<path d="M95.0369 70.1345C95.6062 70.2106 96.1294 69.8109 96.2056 69.2417C96.2817 68.6725 95.882 68.1493 95.3128 68.0731C94.7436 67.9969 94.2204 68.3966 94.1442 68.9659C94.068 69.5351 94.4677 70.0583 95.0369 70.1345Z" fill="#D3BD61"/>
<path d="M94.4009 111.525C94.9701 111.601 95.4933 111.201 95.5695 110.632C95.6457 110.063 95.246 109.54 94.6768 109.464C94.1075 109.387 93.5843 109.787 93.5082 110.356C93.432 110.926 93.8317 111.449 94.4009 111.525Z" fill="#D3BD61"/>
<path d="M104.189 72.4083C104.758 72.4845 105.281 72.0848 105.357 71.5156C105.433 70.9464 105.034 70.4232 104.464 70.347C103.895 70.2708 103.372 70.6705 103.296 71.2397C103.22 71.8089 103.619 72.3321 104.189 72.4083Z" fill="#D3BD61"/>
<path d="M88.8662 98.6843C89.4354 98.7605 89.9586 98.3608 90.0348 97.7916C90.1109 97.2224 89.7112 96.6992 89.142 96.623C88.5728 96.5468 88.0496 96.9465 87.9734 97.5157C87.8972 98.0849 88.2969 98.6081 88.8662 98.6843Z" fill="#D3BD61"/>
<path d="M99.9418 100.537C100.511 100.613 101.034 100.214 101.11 99.6445C101.187 99.0753 100.787 98.5521 100.218 98.4759C99.6484 98.3998 99.1252 98.7995 99.049 99.3687C98.9728 99.9379 99.3725 100.461 99.9418 100.537Z" fill="#D3BD61"/>
<path d="M111.191 100.098C111.761 100.175 112.284 99.7748 112.36 99.2056C112.436 98.6364 112.036 98.1132 111.467 98.037C110.898 97.9608 110.375 98.3605 110.299 98.9297C110.222 99.4989 110.622 100.022 111.191 100.098Z" fill="#D3BD61"/>
<path d="M120.343 102.372C120.912 102.448 121.435 102.049 121.512 101.479C121.588 100.91 121.188 100.387 120.619 100.311C120.05 100.235 119.526 100.634 119.45 101.204C119.374 101.773 119.774 102.296 120.343 102.372Z" fill="#D3BD61"/>
<path d="M113.479 72.6025C114.048 72.6787 114.571 72.279 114.648 71.7097C114.724 71.1405 114.324 70.6173 113.755 70.5411C113.186 70.465 112.662 70.8646 112.586 71.4339C112.51 72.0031 112.91 72.5263 113.479 72.6025Z" fill="#D3BD61"/>
<path d="M122.624 74.8755C123.193 74.9517 123.717 74.552 123.793 73.9827C123.869 73.4135 123.469 72.8903 122.9 72.8141C122.331 72.738 121.808 73.1377 121.731 73.7069C121.655 74.2761 122.055 74.7993 122.624 74.8755Z" fill="#D3BD61"/>
<path d="M87.9806 77.8629C88.5499 77.9391 89.0731 77.5394 89.1492 76.9702C89.2254 76.4009 88.8257 75.8777 88.2565 75.8016C87.6873 75.7254 87.1641 76.1251 87.0879 76.6943C87.0117 77.2635 87.4114 77.7867 87.9806 77.8629Z" fill="#D3BD61"/>
<path d="M97.1258 80.1359C97.695 80.212 98.2182 79.8123 98.2944 79.2431C98.3706 78.6739 97.9709 78.1507 97.4017 78.0745C96.8325 77.9983 96.3092 78.398 96.2331 78.9673C96.1569 79.5365 96.5566 80.0597 97.1258 80.1359Z" fill="#D3BD61"/>
<path d="M109.195 81.4643C109.764 81.5405 110.287 81.1408 110.363 80.5715C110.439 80.0023 110.04 79.4791 109.47 79.4029C108.901 79.3268 108.378 79.7265 108.302 80.2957C108.226 80.8649 108.625 81.3881 109.195 81.4643Z" fill="#D3BD61"/>
<path d="M58.8303 89.6639C59.3996 89.7401 59.9228 89.3404 59.9989 88.7712C60.0751 88.202 59.6754 87.6788 59.1062 87.6026C58.537 87.5264 58.0138 87.9261 57.9376 88.4953C57.8614 89.0646 58.2611 89.5878 58.8303 89.6639Z" fill="#D3BD61"/>
<path d="M67.9752 91.9368C68.5444 92.013 69.0676 91.6133 69.1438 91.0441C69.2199 90.4749 68.8203 89.9517 68.251 89.8755C67.6818 89.7993 67.1586 90.199 67.0824 90.7682C67.0062 91.3374 67.4059 91.8606 67.9752 91.9368Z" fill="#D3BD61"/>
<path d="M81.6809 102.15C82.2501 102.226 82.7733 101.827 82.8495 101.257C82.9257 100.688 82.526 100.165 81.9567 100.089C81.3875 100.013 80.8643 100.412 80.7881 100.981C80.712 101.551 81.1117 102.074 81.6809 102.15Z" fill="#D3BD61"/>
<path d="M133.347 94.4114C133.917 94.4876 134.44 94.0879 134.516 93.5187C134.592 92.9495 134.192 92.4263 133.623 92.3501C133.054 92.2739 132.531 92.6736 132.455 93.2428C132.378 93.8121 132.778 94.3353 133.347 94.4114Z" fill="#D3BD61"/>
<path d="M113.772 87.2386C114.342 87.3148 114.865 86.9151 114.941 86.3458C115.017 85.7766 114.617 85.2534 114.048 85.1772C113.479 85.1011 112.956 85.5008 112.88 86.07C112.803 86.6392 113.203 87.1624 113.772 87.2386Z" fill="#D3BD61"/>
<path d="M63.7876 77.6539C64.3568 77.73 64.88 77.3303 64.9562 76.7611C65.0324 76.1919 64.6327 75.6687 64.0635 75.5925C63.4943 75.5163 62.9711 75.916 62.8949 76.4853C62.8187 77.0545 63.2184 77.5777 63.7876 77.6539Z" fill="#D3BD61"/>
<path d="M75.8489 78.9882C76.4182 79.0643 76.9414 78.6646 77.0175 78.0954C77.0937 77.5262 76.694 77.003 76.1248 76.9268C75.5556 76.8506 75.0324 77.2503 74.9562 77.8196C74.88 78.3888 75.2797 78.912 75.8489 78.9882Z" fill="#D3BD61"/>
<path d="M80.4345 84.7565C81.0038 84.8327 81.527 84.433 81.6031 83.8638C81.6793 83.2946 81.2796 82.7714 80.7104 82.6952C80.1412 82.619 79.618 83.0187 79.5418 83.5879C79.4656 84.1571 79.8653 84.6804 80.4345 84.7565Z" fill="#D3BD61"/>
<path d="M100.442 86.5038C101.011 86.58 101.534 86.1803 101.611 85.611C101.687 85.0418 101.287 84.5186 100.718 84.4424C100.149 84.3663 99.6255 84.766 99.5493 85.3352C99.4731 85.9044 99.8728 86.4276 100.442 86.5038Z" fill="#D3BD61"/>
<path d="M129.596 79.4805C130.166 79.5567 130.689 79.157 130.765 78.5878C130.841 78.0186 130.442 77.4954 129.872 77.4192C129.303 77.343 128.78 77.7427 128.704 78.3119C128.628 78.8811 129.027 79.4043 129.596 79.4805Z" fill="#D3BD61"/>
<path d="M119.835 82.1259C120.404 82.202 120.928 81.8023 121.004 81.2331C121.08 80.6639 120.68 80.1407 120.111 80.0645C119.542 79.9883 119.019 80.388 118.942 80.9572C118.866 81.5265 119.266 82.0497 119.835 82.1259Z" fill="#D3BD61"/>
<path d="M121.267 92.9069C121.837 92.983 122.36 92.5833 122.436 92.0141C122.512 91.4449 122.112 90.9217 121.543 90.8455C120.974 90.7693 120.451 91.169 120.375 91.7383C120.298 92.3075 120.698 92.8307 121.267 92.9069Z" fill="#D3BD61"/>
<path d="M138.911 86.4973C139.48 86.5735 140.004 86.1738 140.08 85.6046C140.156 85.0353 139.756 84.5121 139.187 84.436C138.618 84.3598 138.095 84.7595 138.018 85.3287C137.942 85.8979 138.342 86.4211 138.911 86.4973Z" fill="#D3BD61"/>
<path d="M100.771 120.155C101.341 120.231 101.864 119.832 101.94 119.262C102.016 118.693 101.616 118.17 101.047 118.094C100.478 118.018 99.9548 118.417 99.8787 118.986C99.8025 119.556 100.202 120.079 100.771 120.155Z" fill="#D3BD61"/>
<path d="M120.428 113.183C120.997 113.259 121.521 112.859 121.597 112.29C121.673 111.721 121.273 111.197 120.704 111.121C120.135 111.045 119.612 111.445 119.536 112.014C119.459 112.583 119.859 113.106 120.428 113.183Z" fill="#D3BD61"/>
<path d="M131.157 105.239C131.726 105.315 132.25 104.916 132.326 104.347C132.402 103.777 132.002 103.254 131.433 103.178C130.864 103.102 130.341 103.501 130.265 104.071C130.188 104.64 130.588 105.163 131.157 105.239Z" fill="#D3BD61"/>
</svg>
