<svg width="180" height="180" viewBox="0 0 180 180" fill="none" xmlns="http://www.w3.org/2000/svg">
<path d="M94.209 134.609C135.372 130.035 166.8 108.847 164.404 87.2842C162.008 65.7212 126.696 51.9486 85.533 56.5221C44.3695 61.0957 12.9422 82.2836 15.338 103.847C17.7338 125.41 53.0456 139.182 94.209 134.609Z" fill="#393F3C"/>
<path d="M72.8906 119.77C71.101 119.77 52.1967 107.361 50.0394 103.74C47.882 100.119 44.3066 71.5427 46.0962 69.7569C47.8858 67.9712 71.12 87.6186 71.12 87.6186C71.12 87.6186 74.6764 119.77 72.8906 119.77Z" fill="#E2E2E2"/>
<path d="M131.203 84.43C131.203 84.43 74.6764 119.77 72.8906 119.77C71.1048 119.77 71.101 87.6186 71.101 87.6186C71.101 87.6186 130.051 49.9541 131.837 51.8157C133.622 53.6773 131.837 83.3077 131.837 83.3077C131.837 83.5334 131.778 83.7553 131.667 83.9519C131.556 84.1485 131.397 84.3132 131.203 84.43Z" fill="#E8EAE9"/>
<path d="M131.837 51.8915L107.177 37.3664C106.779 37.1324 106.327 37.0062 105.866 37.0002C105.404 36.9942 104.949 37.1087 104.546 37.3322C104.546 37.3322 46.0962 67.9712 46.0962 69.7569C46.0962 71.5427 71.1199 87.6186 71.1199 87.6186L131.837 51.8915Z" fill="#EFEFEF"/>
<path d="M85.8423 56.9645V56.9952C85.8436 56.985 85.8436 56.9747 85.8423 56.9645Z" fill="#12663C"/>
<path d="M85.846 56.9948L86.4527 60.3313L79.9351 61.5143L79.3285 58.1778C79.4384 58.7768 80.9854 59.0005 82.7863 58.6707C84.5873 58.3408 85.956 57.5977 85.846 56.9948Z" fill="#12663C"/>
<path d="M85.8385 56.9645C85.683 56.3882 84.1589 56.1797 82.392 56.4982C80.6252 56.8166 79.2678 57.5522 79.3247 58.1474C79.3247 58.1474 79.3247 58.1702 79.3247 58.1778C79.4347 58.7768 80.9816 59.0005 82.7825 58.6707C84.5835 58.3408 85.9522 57.5977 85.8423 56.9948C85.8423 56.9846 85.8411 56.9744 85.8385 56.9645ZM85.0802 57.1237C85.0819 57.1414 85.0819 57.1592 85.0802 57.1768C85.0875 57.2118 85.0875 57.248 85.0802 57.283C85.0755 57.2988 85.0691 57.314 85.0612 57.3285C85.0191 57.41 84.9626 57.4832 84.8944 57.5446L84.811 57.6204L84.6897 57.7114C84.5693 57.7914 84.4425 57.8611 84.3105 57.9199L84.1854 57.9806L84.0186 58.0489C83.8848 58.1043 83.7481 58.1524 83.6091 58.1929L83.4574 58.2195L83.2527 58.2763H83.2072L82.9759 58.3294L82.7257 58.3787L82.4679 58.4204L82.2404 58.4508H82.1911L81.9788 58.4735H81.8536C81.6906 58.4735 81.5389 58.4735 81.3911 58.4735H81.2508C81.1598 58.4735 81.0688 58.4735 80.9854 58.4508C80.8999 58.4406 80.8151 58.4254 80.7314 58.4053C80.6674 58.392 80.6041 58.3755 80.5418 58.356L80.4356 58.3143C80.3505 58.2806 80.2721 58.2318 80.2043 58.1702L80.174 58.1361C80.1496 58.1081 80.1304 58.076 80.1171 58.0413V57.992V57.973C80.0678 57.5181 81.0991 56.9569 82.4527 56.7143C83.8062 56.4716 84.9664 56.6309 85.0764 57.0707L85.0802 57.1237Z" fill="#135432"/>
<path d="M85.0612 57.1048C85.063 57.1224 85.063 57.1402 85.0612 57.1579C85.0686 57.1929 85.0686 57.229 85.0612 57.264C85.0565 57.2798 85.0502 57.2951 85.0423 57.3095C85.0002 57.3911 84.9437 57.4643 84.8754 57.5256C84.1271 57.3094 83.3354 57.2911 82.5778 57.4726C81.7962 57.5731 81.0541 57.8749 80.4242 58.3484C80.3391 58.3147 80.2607 58.2659 80.193 58.2043L80.1626 58.1702C80.1382 58.1422 80.119 58.1101 80.1058 58.0754V58.0261V58.0072C80.0565 57.5522 81.0878 56.991 82.4413 56.7484C83.7949 56.5057 84.9513 56.665 85.0612 57.1048Z" fill="#8ABCA1"/>
<path d="M84.8678 57.5446L84.7844 57.6204L84.6631 57.7114C84.5427 57.7914 84.4159 57.8611 84.284 57.9199L84.1588 57.9806L83.992 58.0489C83.8582 58.1043 83.7215 58.1524 83.5825 58.1929L83.4574 58.2195L83.2527 58.2763H83.2072L82.9759 58.3294L82.7257 58.3787L82.4678 58.4204L82.2403 58.4508H82.1911L81.9787 58.4735H81.8536C81.6944 58.4735 81.5389 58.4735 81.3911 58.4735H81.2508C81.1598 58.4735 81.0688 58.4735 80.9854 58.4508C80.8999 58.4406 80.815 58.4254 80.7313 58.4053C80.6673 58.3925 80.604 58.376 80.5418 58.356L80.4356 58.3143C81.062 57.8505 81.797 57.5555 82.5702 57.4574C83.3307 57.287 84.1224 57.3171 84.8678 57.5446Z" fill="#79AA8E"/>
<path d="M83.4034 62.0949C85.2042 61.7683 86.5758 61.0175 86.4671 60.4179C86.3584 59.8183 84.8104 59.5971 83.0096 59.9237C81.2089 60.2503 79.8372 61.0011 79.946 61.6006C80.0547 62.2002 81.6027 62.4215 83.4034 62.0949Z" fill="#12663C"/>
<path d="M92.1248 58.1057C92.123 58.1172 92.123 58.1288 92.1248 58.1403V58.1057Z" fill="#12663C"/>
<path d="M98.5096 56.3503L99.4233 59.6147L93.0461 61.4005L92.1323 58.1398C92.2954 58.7237 93.8574 58.7996 95.6205 58.3067C97.3835 57.8138 98.6726 56.9379 98.5096 56.3503Z" fill="#12663C"/>
<path d="M98.4982 56.3237C98.2897 55.7664 96.7504 55.6982 95.0214 56.1835C93.2925 56.6688 92.011 57.5256 92.1248 58.1095C92.123 58.1208 92.123 58.1323 92.1248 58.1437C92.2878 58.7275 93.8499 58.8034 95.6129 58.3105C97.376 57.8176 98.6461 56.9418 98.502 56.3541L98.4982 56.3237ZM97.7399 56.555C97.7413 56.5727 97.7413 56.5904 97.7399 56.6081C97.7474 56.6431 97.7474 56.6793 97.7399 56.7143C97.7421 56.7294 97.7421 56.7447 97.7399 56.7598C97.7063 56.8449 97.6575 56.9233 97.5959 56.991L97.52 57.0745L97.4063 57.1768C97.2969 57.2673 97.1803 57.3484 97.0575 57.4195C97.0184 57.4457 96.9779 57.4698 96.9361 57.4915L96.7769 57.5787C96.6518 57.6394 96.5229 57.7001 96.3978 57.7569L96.2802 57.8062L96.0793 57.882H96.0338L95.8139 57.9579L95.5674 58.0299C95.484 58.0565 95.4006 58.0754 95.3172 58.0944L95.0897 58.1474H95.0442L94.8319 58.2195L94.7068 58.2384C94.5475 58.265 94.3921 58.2801 94.248 58.2915H94.1115H93.8423H93.5845C93.5162 58.2915 93.4518 58.2726 93.3911 58.2574L93.2849 58.2271C93.1974 58.2015 93.1152 58.1604 93.0423 58.1057L93.0044 58.0716C92.9784 58.0461 92.9567 58.0167 92.9399 57.9844C92.9399 57.9844 92.9399 57.9541 92.9399 57.9351C92.8489 57.4915 93.8233 56.8356 95.1466 56.464C96.4698 56.0925 97.6414 56.1493 97.8006 56.574L97.7399 56.555Z" fill="#135432"/>
<path d="M97.7399 56.5323V56.5512C97.7413 56.5689 97.7413 56.5866 97.7399 56.6043C97.7474 56.6393 97.7474 56.6755 97.7399 56.7105C97.7421 56.7255 97.7421 56.7409 97.7399 56.756C97.7063 56.8411 97.6574 56.9195 97.5958 56.9872C96.8259 56.8866 96.0435 56.944 95.2964 57.1558C94.5494 57.3677 93.8533 57.7296 93.2508 58.2195C93.1633 58.1939 93.0811 58.1528 93.0082 58.0981L92.9702 58.064C92.9443 58.0385 92.9225 58.0091 92.9058 57.9768C92.9058 57.9768 92.9058 57.9465 92.9058 57.9275C92.8148 57.4839 93.7892 56.828 95.1124 56.4564C96.4357 56.0849 97.5845 56.1076 97.7399 56.5323Z" fill="#8ABCA1"/>
<path d="M97.5882 56.9873L97.5124 57.0707L97.3987 57.173C97.2893 57.2635 97.1727 57.3446 97.0498 57.4157C97.0108 57.4419 96.9703 57.466 96.9285 57.4877L96.7693 57.5749C96.6442 57.6356 96.5115 57.6963 96.3901 57.7531L96.2726 57.8024L96.0716 57.8783H96.0261L95.8062 57.9541L95.5598 58.0261C95.4764 58.0527 95.393 58.0716 95.3096 58.0906L95.0821 58.1437H95.0366L94.8318 58.2195L94.7067 58.2385C94.5475 58.2612 94.392 58.2802 94.2479 58.2915H94.1115H93.8423H93.5844C93.5192 58.2848 93.4546 58.2734 93.3911 58.2574L93.2849 58.2271C93.8877 57.7409 94.583 57.3822 95.3286 57.173C96.0743 56.9638 96.8546 56.9083 97.6224 57.01L97.5882 56.9873Z" fill="#79AA8E"/>
<path d="M96.324 61.5628C98.0809 61.0687 99.3718 60.1939 99.2073 59.6089C99.0428 59.0239 97.4851 58.9503 95.7282 59.4444C93.9713 59.9386 92.6804 60.8134 92.8449 61.3983C93.0094 61.9833 94.5671 62.0569 96.324 61.5628Z" fill="#12663C"/>
<path d="M86.8167 58.4925C86.8145 58.5016 86.8145 58.5111 86.8167 58.5202V58.4964V58.4925Z" fill="#12663C"/>
<path d="M91.9313 57.0593V57.0831C91.9331 57.0752 91.9331 57.0671 91.9313 57.0593Z" fill="#12663C"/>
<path d="M91.9351 57.0821L92.6707 59.702L87.5522 61.1389L86.8204 58.519C86.9531 58.9892 88.2043 59.0498 89.6185 58.6555C91.0328 58.2612 92.0678 57.556 91.9351 57.0821Z" fill="#12663C"/>
<path d="M91.9275 57.082C91.7607 56.6308 90.5285 56.5778 89.1408 56.9683C87.7531 57.3588 86.7256 58.0413 86.8166 58.5114C86.8145 58.5201 86.8145 58.5292 86.8166 58.5379C86.9493 59.0081 88.2005 59.0688 89.6147 58.6744C91.029 58.2801 92.064 57.5749 91.9313 57.1048C91.9318 57.097 91.9305 57.0892 91.9275 57.082ZM91.3247 57.2678C91.3247 57.2678 91.3247 57.2943 91.3247 57.3057C91.3286 57.3347 91.3286 57.364 91.3247 57.3929V57.4308C91.2972 57.4994 91.2574 57.5624 91.2072 57.6166L91.1465 57.6811C91.1189 57.7117 91.0884 57.7397 91.0555 57.7645C90.9665 57.8364 90.8727 57.9023 90.7749 57.9616L90.6801 58.0185L90.5512 58.0868C90.4527 58.1361 90.3465 58.1853 90.2365 58.2308L90.1418 58.2688L89.9825 58.3294H89.9446L89.7664 58.3901L89.5692 58.4507L89.3683 58.5038L89.1863 58.5417H89.1484L88.9816 58.5759H88.883C88.7575 58.597 88.6309 58.611 88.5038 58.6176H88.3901H88.1778H87.9692C87.9179 58.6119 87.8672 58.6017 87.8176 58.5872L87.7304 58.5645C87.6588 58.5449 87.5918 58.5114 87.5332 58.4659C87.5226 58.4591 87.5135 58.45 87.5067 58.4394C87.4837 58.4197 87.4655 58.3951 87.4536 58.3673V58.3332C87.3816 57.9768 88.1626 57.4536 89.2242 57.1541C90.2858 56.8545 91.2261 56.9 91.3512 57.2451L91.3247 57.2678Z" fill="#135432"/>
<path d="M91.3209 57.2337C91.3209 57.2337 91.3209 57.2602 91.3209 57.2716C91.3248 57.3005 91.3248 57.3299 91.3209 57.3588V57.3967C91.2934 57.4653 91.2536 57.5283 91.2034 57.5825C90.588 57.4991 89.9621 57.5425 89.3642 57.71C88.7662 57.8776 88.2089 58.1658 87.7266 58.5569C87.655 58.5373 87.588 58.5038 87.5294 58.4583C87.5188 58.4515 87.5097 58.4425 87.5029 58.4318C87.4799 58.4122 87.4617 58.3875 87.4498 58.3598V58.3256C87.3778 57.9692 88.1588 57.446 89.2204 57.1465C90.282 56.847 91.1958 56.8887 91.3209 57.2337Z" fill="#8ABCA1"/>
<path d="M91.1958 57.5977L91.1352 57.6621C91.1066 57.6918 91.0762 57.7197 91.0442 57.7456C90.9552 57.8175 90.8614 57.8833 90.7636 57.9427L90.6688 57.9996L90.5399 58.0678C90.4413 58.1171 90.3352 58.1664 90.2252 58.2119L90.1304 58.2498L89.9712 58.3105H89.9333L89.7551 58.3711L89.5579 58.4318L89.357 58.4849L89.175 58.5228H89.1371C89.0823 58.5378 89.0265 58.5492 88.9702 58.5569H88.8717C88.7428 58.5759 88.6214 58.5911 88.4925 58.5986H88.3788H88.1664H87.9579C87.9065 58.5933 87.8558 58.5831 87.8063 58.5683L87.7191 58.5456C88.2014 58.1545 88.7587 57.8663 89.3566 57.6987C89.9546 57.5311 90.5805 57.4877 91.1958 57.5711V57.5977Z" fill="#79AA8E"/>
<path d="M90.3686 61.3439C91.782 60.9479 92.8207 60.2444 92.6885 59.7726C92.5564 59.3007 91.3034 59.2392 89.8899 59.6352C88.4765 60.0312 87.4378 60.7347 87.57 61.2065C87.7021 61.6783 88.9551 61.7398 90.3686 61.3439Z" fill="#12663C"/>
<g opacity="0.68">
<path opacity="0.68" d="M89.6907 54.902C89.6887 54.9134 89.6887 54.9251 89.6907 54.9365V54.902Z" fill="#12663C"/>
<path opacity="0.68" d="M96.2878 54.337L96.5912 57.7115L89.9978 58.3105L89.6907 54.9361C89.7438 55.5427 91.2679 55.8991 93.103 55.7361C94.9381 55.5731 96.3485 54.9437 96.2878 54.337Z" fill="#12663C"/>
<path opacity="0.68" d="M96.2802 54.3029C96.1779 53.719 94.6764 53.374 92.8906 53.5446C91.1049 53.7152 89.6868 54.3029 89.6906 54.9095C89.6887 54.9208 89.6887 54.9324 89.6906 54.9436C89.7437 55.5503 91.2679 55.9067 93.103 55.7437C94.938 55.5806 96.3561 54.9512 96.303 54.3446C96.284 54.3256 96.284 54.3143 96.2802 54.3029ZM95.4992 54.3977V54.447C95.4962 54.484 95.4859 54.5201 95.4688 54.5531C95.4643 54.5685 95.4565 54.5827 95.4461 54.5948C95.3996 54.6734 95.3377 54.7417 95.2641 54.7958L95.1731 54.864L95.0442 54.9436C94.9219 55.0103 94.7952 55.0685 94.6651 55.1181L94.5324 55.1673L94.3579 55.2242C94.2252 55.2621 94.0887 55.2963 93.9409 55.3304L93.8158 55.3569L93.6072 55.391H93.5579C93.4859 55.391 93.4063 55.4138 93.3267 55.4252L93.0726 55.4517C92.9854 55.4517 92.8982 55.4517 92.8148 55.4707H92.5797H92.5342C92.4622 55.4707 92.394 55.4707 92.3219 55.4707H92.1778C92.0244 55.4705 91.8712 55.4604 91.7191 55.4403C91.6719 55.438 91.6249 55.4317 91.5788 55.4214C91.4878 55.4214 91.4006 55.4062 91.3172 55.3759C91.2262 55.3569 91.1428 55.3342 91.0669 55.3114C90.9911 55.2887 90.938 55.2659 90.8812 55.2394C90.8472 55.2252 90.8143 55.2088 90.7826 55.1901C90.7002 55.151 90.6267 55.0955 90.5665 55.0271L90.5361 54.9891C90.5141 54.9599 90.4986 54.9263 90.4906 54.8906V54.8413V54.8185C90.4906 54.3673 91.5598 53.8972 92.9286 53.7759C94.2973 53.6545 95.4385 53.9162 95.5105 54.3636L95.4992 54.3977Z" fill="#135432"/>
<path opacity="0.68" d="M95.4954 54.375V54.447C95.4924 54.484 95.4821 54.5201 95.4651 54.5532C95.4605 54.5685 95.4528 54.5827 95.4423 54.5949C95.3958 54.6734 95.3339 54.7418 95.2604 54.7958C94.5258 54.5543 93.7499 54.4644 92.9795 54.5315C92.2092 54.5986 91.4605 54.8214 90.7788 55.1863C90.6965 55.1472 90.6229 55.0918 90.5627 55.0233L90.5324 54.9854C90.5104 54.9561 90.4949 54.9225 90.4869 54.8868V54.8375V54.8148C90.4869 54.3636 91.5561 53.8934 92.9248 53.7721C94.2935 53.6508 95.4234 53.9276 95.4954 54.375Z" fill="#8ABCA1"/>
<path opacity="0.68" d="M95.2641 54.8072L95.1731 54.8754L95.0442 54.9551C94.9219 55.0217 94.7952 55.0799 94.6651 55.1295L94.5324 55.1788L94.3579 55.2356C94.2252 55.2735 94.085 55.3115 93.9409 55.3418L93.8158 55.3683L93.6072 55.4025H93.5579C93.4821 55.4025 93.4063 55.4252 93.3267 55.4366L93.0726 55.4631C92.9854 55.4631 92.8982 55.4631 92.8148 55.4821H92.5797H92.5342C92.4584 55.4821 92.3902 55.4821 92.3219 55.4821H92.1779C92.0186 55.4821 91.8632 55.4821 91.7191 55.4517C91.6719 55.4494 91.6249 55.4431 91.5788 55.4328C91.4878 55.4328 91.4006 55.4176 91.3172 55.3873C91.2262 55.3683 91.1428 55.3456 91.067 55.3228C91.0037 55.3024 90.9417 55.2784 90.8812 55.2508C90.8472 55.2367 90.8143 55.2202 90.7826 55.2015C91.464 54.8359 92.2126 54.6125 92.9829 54.5447C93.7532 54.4769 94.5293 54.5662 95.2641 54.8072Z" fill="#79AA8E"/>
<path opacity="0.68" d="M93.4023 59.2071C95.225 59.0419 96.658 58.4159 96.6029 57.8091C96.5479 57.2022 95.0258 56.8442 93.2031 57.0095C91.3805 57.1747 89.9475 57.8006 90.0025 58.4075C90.0575 59.0143 91.5797 59.3723 93.4023 59.2071Z" fill="#12663C"/>
</g>
<path d="M89.3115 55.0043L89.5579 57.7114L84.2499 58.1891L84.0034 55.482C84.0489 55.9711 85.2698 56.2403 86.7295 56.1228C88.1892 56.0053 89.3532 55.4896 89.3115 55.0043Z" fill="#12663C"/>
<path d="M89.3077 54.9778C89.2243 54.5076 88.0186 54.2195 86.5854 54.3597C85.1522 54.5 84.0148 54.9778 84.0186 55.4555V55.482C84.0641 55.9711 85.2849 56.2403 86.7446 56.1228C88.2044 56.0053 89.3532 55.4896 89.3115 55.0043C89.3115 54.9967 89.3077 54.9853 89.3077 54.9778ZM88.6783 55.0498V55.0915C88.6761 55.1205 88.6684 55.1488 88.6555 55.1749C88.6507 55.187 88.6443 55.1985 88.6366 55.209C88.5992 55.2731 88.5489 55.3287 88.4887 55.3721L88.4167 55.4252L88.3143 55.4896C88.2142 55.5437 88.1103 55.5906 88.0034 55.6299L87.8972 55.6678L87.7608 55.7133C87.6508 55.7474 87.5408 55.774 87.4233 55.8005L87.3209 55.8195L87.1541 55.8498H87.1162L86.9304 55.8801L86.7257 55.9029H86.5172H86.3314H86.0205C85.8936 55.9025 85.767 55.8936 85.6413 55.8763H85.5314L85.3228 55.8384L85.1181 55.7853C85.069 55.7693 85.0208 55.7504 84.974 55.7285L84.8906 55.6906C84.8254 55.6564 84.7665 55.6116 84.7162 55.5579L84.6934 55.5275C84.677 55.5029 84.6643 55.4761 84.6555 55.4479C84.6573 55.4353 84.6573 55.4226 84.6555 55.41C84.6555 55.0308 85.5124 54.6517 86.6119 54.5721C87.7115 54.4924 88.6252 54.6858 88.6859 55.046L88.6783 55.0498Z" fill="#135432"/>
<path d="M88.6783 55.0346V55.0915C88.6761 55.1205 88.6684 55.1488 88.6555 55.1749C88.6507 55.1871 88.6443 55.1985 88.6366 55.2091C88.5992 55.2731 88.5488 55.3287 88.4887 55.3721C87.9065 55.1456 87.2756 55.0738 86.6574 55.1636C86.0325 55.1882 85.4243 55.3722 84.8906 55.6982C84.8254 55.664 84.7665 55.6192 84.7162 55.5655L84.6934 55.5351C84.677 55.5105 84.6643 55.4837 84.6555 55.4555C84.6573 55.4429 84.6573 55.4302 84.6555 55.4176C84.6555 55.0384 85.5124 54.6593 86.6119 54.5797C87.7114 54.5001 88.6176 54.6745 88.6783 55.0346Z" fill="#8ABCA1"/>
<path d="M88.4887 55.3721L88.4167 55.4252L88.3143 55.4896C88.2142 55.5437 88.1103 55.5906 88.0034 55.6299L87.8973 55.6678L87.7608 55.7133C87.6508 55.7474 87.5409 55.774 87.4233 55.8005L87.321 55.8195L87.1541 55.8498H87.1162C87.0556 55.8498 86.9949 55.8688 86.9304 55.8801L86.7257 55.9029H86.5172H86.3314H86.0205C85.8954 55.9029 85.7702 55.9029 85.6413 55.8763H85.5314L85.3229 55.8384L85.1181 55.7853C85.0687 55.77 85.0206 55.751 84.974 55.7285L84.8906 55.6906C85.4243 55.3646 86.0326 55.1806 86.6575 55.156C87.2763 55.0686 87.9072 55.143 88.4887 55.3721Z" fill="#79AA8E"/>
<path d="M86.9941 58.9092C88.4559 58.7767 89.6052 58.2737 89.5609 57.7857C89.5167 57.2977 88.2957 57.0095 86.8339 57.142C85.372 57.2746 84.2228 57.7776 84.267 58.2656C84.3112 58.7536 85.5322 59.0417 86.9941 58.9092Z" fill="#12663C"/>
<path d="M97.6565 61.3588V61.3866C97.6585 61.3775 97.6585 61.368 97.6565 61.3588Z" fill="#12663C"/>
<path d="M97.6527 61.3854L97.1371 64.0394L91.92 63.0384L92.4319 60.3844C92.3409 60.8621 93.4366 61.4763 94.8774 61.7531C96.3181 62.0299 97.558 61.8669 97.6527 61.3854Z" fill="#12663C"/>
<path d="M97.6527 61.3588C97.7058 60.8849 96.6252 60.2858 95.211 60.0128C93.7968 59.7398 92.557 59.8953 92.4394 60.3579C92.4394 60.3579 92.4394 60.3579 92.4394 60.3844C92.3484 60.8621 93.4442 61.4763 94.8849 61.7531C96.3257 62.0299 97.5655 61.8669 97.6603 61.374C97.6585 61.3686 97.6559 61.3635 97.6527 61.3588ZM97.0309 61.2527V61.2906C97.0194 61.3179 97.0041 61.3434 96.9854 61.3664L96.9589 61.3967C96.9032 61.444 96.8405 61.4824 96.7731 61.5105L96.6897 61.5408L96.5721 61.5749C96.4595 61.5985 96.3456 61.615 96.2309 61.6242H96.1209H95.9693H95.6205H95.5181H95.3475H95.3096C95.2472 61.6188 95.1852 61.61 95.1238 61.5977L94.9228 61.5636L94.7181 61.5218L94.5361 61.4763C94.5248 61.478 94.5133 61.478 94.502 61.4763L94.3352 61.4309L94.2404 61.4005C94.1153 61.3626 94.0015 61.3209 93.8916 61.2754L93.7892 61.2299C93.7209 61.2034 93.6565 61.1692 93.5958 61.1389C93.5352 61.1086 93.4707 61.0669 93.4176 61.029C93.374 61.0014 93.3322 60.971 93.2925 60.938L93.2243 60.8773C93.1703 60.8282 93.1265 60.7689 93.0953 60.7029C93.0938 60.6903 93.0938 60.6776 93.0953 60.665C93.0896 60.6362 93.0896 60.6066 93.0953 60.5778C93.0953 60.5778 93.0953 60.5512 93.0953 60.5398C93.1901 60.191 94.1228 60.0697 95.2072 60.2782C96.2916 60.4868 97.1029 60.9417 97.0688 61.3057L97.0309 61.2527Z" fill="#135432"/>
<path d="M97.0347 61.2527V61.2906C97.0232 61.3179 97.0079 61.3434 96.9892 61.3664L96.9627 61.3967C96.907 61.444 96.8443 61.4824 96.7769 61.5105C96.2625 61.1622 95.6826 60.9221 95.0726 60.8048C94.4625 60.6874 93.835 60.6954 93.2281 60.828C93.1741 60.7789 93.1303 60.7196 93.0991 60.6536C93.0976 60.641 93.0976 60.6283 93.0991 60.6157C93.0934 60.5869 93.0934 60.5573 93.0991 60.5285C93.0991 60.5285 93.0991 60.5019 93.0991 60.4906C93.1939 60.1418 94.1266 60.0204 95.211 60.229C96.2954 60.4375 97.0764 60.8735 97.0347 61.2527Z" fill="#8ABCA1"/>
<path d="M97.1228 64.1246C97.2153 63.6435 96.1217 63.0288 94.6802 62.7517C93.2387 62.4747 91.9952 62.6401 91.9027 63.1213C91.8102 63.6025 92.9038 64.2172 94.3453 64.4942C95.7868 64.7713 97.0303 64.6058 97.1228 64.1246Z" fill="#12663C"/>
<path d="M85.1447 62.8754V62.9032C85.1467 62.894 85.1467 62.8845 85.1447 62.8754Z" fill="#12663C"/>
<path d="M85.1409 62.9019L84.6252 65.556L79.4081 64.555L79.92 61.901C79.829 62.3787 80.9247 62.9929 82.3655 63.2697C83.8063 63.5465 85.0461 63.3835 85.1409 62.9019Z" fill="#12663C"/>
<path d="M82.6992 61.5294C84.1134 61.8024 85.1939 62.4015 85.1409 62.8754C85.1441 62.8801 85.1466 62.8852 85.1485 62.8906C85.0537 63.3835 83.8138 63.5465 82.3731 63.2697C80.9323 62.9929 79.8366 62.3787 79.9276 61.901V61.8744C80.0451 61.4119 81.2849 61.2564 82.6992 61.5294Z" fill="#135432"/>
<path d="M84.5229 62.7693V62.8072C84.5114 62.8345 84.4961 62.86 84.4774 62.883L84.4508 62.9133C84.3951 62.9606 84.3325 62.999 84.265 63.0271C83.7506 62.6788 83.1708 62.4387 82.5607 62.3214C81.9507 62.204 81.3231 62.2119 80.7162 62.3446C80.6622 62.2955 80.6184 62.2362 80.5873 62.1702C80.5858 62.1576 80.5858 62.1449 80.5873 62.1323C80.5816 62.1035 80.5816 62.0739 80.5873 62.0451C80.5873 62.0451 80.5873 62.0185 80.5873 62.0072C80.6821 61.6583 81.6148 61.537 82.6992 61.7456C83.7835 61.9541 84.5646 62.3901 84.5229 62.7693Z" fill="#8ABCA1"/>
<path d="M84.6145 65.6381C84.707 65.157 83.6134 64.5423 82.1719 64.2652C80.7304 63.9881 79.4869 64.1536 79.3944 64.6348C79.3019 65.116 80.3955 65.7307 81.837 66.0077C83.2785 66.2848 84.522 66.1193 84.6145 65.6381Z" fill="#12663C"/>
<g opacity="0.86">
<path opacity="0.86" d="M92.557 62.3901L91.9162 65.719L85.4138 64.4678L86.0508 61.1389C85.937 61.738 87.2982 62.5039 89.084 62.8489C90.8697 63.1939 92.428 62.9854 92.557 62.3901Z" fill="#12663C"/>
<path opacity="0.86" d="M92.557 62.356C92.6176 61.7607 91.2717 61.0138 89.5238 60.6764C87.7759 60.3389 86.2328 60.5323 86.0735 61.1048C86.0735 61.1048 86.0735 61.1276 86.0735 61.1351C85.9598 61.7342 87.3209 62.5001 89.1067 62.8451C90.8925 63.1901 92.4508 62.9854 92.5683 62.3863C92.557 62.3901 92.557 62.3636 92.557 62.356ZM91.7987 62.2233C91.7997 62.2397 91.7997 62.2562 91.7987 62.2726C91.7873 62.3081 91.7678 62.3406 91.7418 62.3674C91.7334 62.3814 91.7217 62.3931 91.7077 62.4015C91.6406 62.4639 91.562 62.5129 91.4764 62.5456L91.3702 62.5835C91.3247 62.5835 91.2754 62.61 91.2262 62.6252C91.0877 62.6566 90.947 62.6769 90.8053 62.6858C90.7586 62.6896 90.7117 62.6896 90.665 62.6858H90.483C90.339 62.6933 90.1948 62.6933 90.0508 62.6858H89.9219C89.852 62.682 89.7824 62.6744 89.7134 62.6631H89.6641L89.4328 62.629L89.1788 62.5873L88.9247 62.5342C88.8489 62.5342 88.7731 62.5001 88.701 62.4773H88.6555L88.4508 62.4204L88.3295 62.3787C88.1814 62.335 88.0358 62.2831 87.8934 62.2233C87.8504 62.2075 87.8085 62.1885 87.7683 62.1664C87.6078 62.0952 87.4532 62.0115 87.3058 61.9162C87.2505 61.8801 87.1973 61.8408 87.1465 61.7986L87.0669 61.7266C86.9992 61.6642 86.9439 61.5896 86.9039 61.5067C86.9024 61.4916 86.9024 61.4763 86.9039 61.4612C86.8902 61.4275 86.8838 61.3914 86.8849 61.355C86.8849 61.355 86.8849 61.3209 86.8849 61.302C87.0024 60.8622 88.1664 60.7143 89.5162 60.9721C90.866 61.2299 91.8897 61.8024 91.8366 62.2536L91.7987 62.2233Z" fill="#135432"/>
<path opacity="0.86" d="M91.7759 62.2043C91.777 62.2208 91.777 62.2372 91.7759 62.2536C91.7645 62.2892 91.745 62.3216 91.719 62.3484C91.7107 62.3624 91.6989 62.3742 91.6849 62.3825C91.6178 62.445 91.5393 62.4939 91.4536 62.5266C90.8133 62.0916 90.091 61.792 89.3308 61.6459C88.5706 61.4999 87.7887 61.5106 87.0328 61.6773C86.9651 61.6149 86.9098 61.5403 86.8697 61.4574C86.8682 61.4423 86.8682 61.427 86.8697 61.4119C86.8561 61.3782 86.8496 61.3421 86.8508 61.3058C86.8508 61.3058 86.8508 61.2716 86.8508 61.2527C86.9683 60.8129 88.1323 60.665 89.4821 60.9228C90.8318 61.1806 91.829 61.7532 91.7759 62.2043Z" fill="#8ABCA1"/>
<path opacity="0.86" d="M91.4195 62.5456L91.3133 62.5835L91.1693 62.6252C91.0308 62.6566 90.8901 62.6769 90.7484 62.6858C90.7017 62.6896 90.6548 62.6896 90.6081 62.6858H90.4261C90.2822 62.6933 90.1379 62.6933 89.9939 62.6858H89.865C89.7951 62.682 89.7255 62.6744 89.6565 62.6631H89.6072L89.3759 62.629L89.1219 62.5873L88.8678 62.5342C88.792 62.5342 88.7162 62.5001 88.6441 62.4773H88.5986L88.3939 62.4204L88.2726 62.3787C88.1209 62.3294 87.973 62.2764 87.8366 62.2233C87.7929 62.209 87.7509 62.1899 87.7114 62.1664C87.551 62.0952 87.3963 62.0115 87.2489 61.9162C87.193 61.881 87.1397 61.8417 87.0896 61.7986L87.01 61.7266C87.7621 61.5571 88.5409 61.5423 89.2989 61.6831C90.0569 61.8239 90.7784 62.1173 91.4195 62.5456Z" fill="#79AA8E"/>
<path opacity="0.86" d="M91.8859 65.8004C92.001 65.202 90.6372 64.4369 88.84 64.0914C87.0428 63.746 85.4926 63.951 85.3776 64.5494C85.2626 65.1478 86.6263 65.9129 88.4235 66.2584C90.2207 66.6038 91.7709 66.3988 91.8859 65.8004Z" fill="#12663C"/>
</g>
</svg>
